{
    "asset" : {
        "generator" : "Khronos glTF Blender I/O v3.2.43",
        "version" : "2.0"
    },
    "scene" : 0,
    "scenes" : [
        {
            "name" : "Scene",
            "nodes" : [
                0
            ]
        }
    ],
    "nodes" : [
        {
            "mesh" : 0,
            "name" : "ambulance",
            "rotation" : [
                0.7071068286895752,
                0,
                0,
                0.7071067094802856
            ]
        }
    ],
    "materials" : [
        {
            "doubleSided" : true,
            "name" : "paintWhite.001",
            "pbrMetallicRoughness" : {
                "baseColorFactor" : [
                    0.8980392217636108,
                    0.9058824181556702,
                    0.9686275124549866,
                    1
                ],
                "metallicFactor" : 0
            }
        },
        {
            "doubleSided" : true,
            "name" : "paintRed.001",
            "pbrMetallicRoughness" : {
                "baseColorFactor" : [
                    1,
                    0.22745099663734436,
                    0.3019607961177826,
                    1
                ],
                "metallicFactor" : 0
            }
        },
        {
            "doubleSided" : true,
            "name" : "plastic.001",
            "pbrMetallicRoughness" : {
                "baseColorFactor" : [
                    0.3764705955982208,
                    0.3764705955982208,
                    0.3764705955982208,
                    1
                ],
                "metallicFactor" : 0
            }
        },
        {
            "doubleSided" : true,
            "name" : "_defaultMat.001",
            "pbrMetallicRoughness" : {
                "metallicFactor" : 0
            }
        },
        {
            "doubleSided" : true,
            "name" : "lightFront.001",
            "pbrMetallicRoughness" : {
                "baseColorFactor" : [
                    1,
                    0.9762833118438721,
                    0.9292452931404114,
                    1
                ],
                "metallicFactor" : 0
            }
        },
        {
            "doubleSided" : true,
            "name" : "window.001",
            "pbrMetallicRoughness" : {
                "baseColorFactor" : [
                    0.9372549057006836,
                    0.9372549057006836,
                    0.9372549057006836,
                    1
                ],
                "metallicFactor" : 0
            }
        },
        {
            "doubleSided" : true,
            "name" : "lightBlue.001",
            "pbrMetallicRoughness" : {
                "baseColorFactor" : [
                    0.3568628132343292,
                    0.6941177248954773,
                    1,
                    1
                ],
                "metallicFactor" : 0
            }
        },
        {
            "doubleSided" : true,
            "name" : "carTire.001",
            "pbrMetallicRoughness" : {
                "baseColorFactor" : [
                    0.2392157018184662,
                    0.2392157018184662,
                    0.2392157018184662,
                    1
                ],
                "metallicFactor" : 0
            }
        }
    ],
    "meshes" : [
        {
            "name" : "ambulance",
            "primitives" : [
                {
                    "attributes" : {
                        "POSITION" : 0,
                        "NORMAL" : 1,
                        "TEXCOORD_0" : 2
                    },
                    "indices" : 3,
                    "material" : 0
                },
                {
                    "attributes" : {
                        "POSITION" : 4,
                        "NORMAL" : 5,
                        "TEXCOORD_0" : 6
                    },
                    "indices" : 7,
                    "material" : 1
                },
                {
                    "attributes" : {
                        "POSITION" : 8,
                        "NORMAL" : 9,
                        "TEXCOORD_0" : 10
                    },
                    "indices" : 11,
                    "material" : 2
                },
                {
                    "attributes" : {
                        "POSITION" : 12,
                        "NORMAL" : 13,
                        "TEXCOORD_0" : 14
                    },
                    "indices" : 15,
                    "material" : 3
                },
                {
                    "attributes" : {
                        "POSITION" : 16,
                        "NORMAL" : 17,
                        "TEXCOORD_0" : 18
                    },
                    "indices" : 19,
                    "material" : 4
                },
                {
                    "attributes" : {
                        "POSITION" : 20,
                        "NORMAL" : 21,
                        "TEXCOORD_0" : 22
                    },
                    "indices" : 23,
                    "material" : 5
                },
                {
                    "attributes" : {
                        "POSITION" : 24,
                        "NORMAL" : 25,
                        "TEXCOORD_0" : 26
                    },
                    "indices" : 27,
                    "material" : 6
                },
                {
                    "attributes" : {
                        "POSITION" : 28,
                        "NORMAL" : 29,
                        "TEXCOORD_0" : 30
                    },
                    "indices" : 31,
                    "material" : 7
                }
            ]
        }
    ],
    "accessors" : [
        {
            "bufferView" : 0,
            "componentType" : 5126,
            "count" : 206,
            "max" : [
                0.5625,
                1.125,
                -0.30000001192092896
            ],
            "min" : [
                -0.5625,
                -1.2000000476837158,
                -1.2000000476837158
            ],
            "type" : "VEC3"
        },
        {
            "bufferView" : 1,
            "componentType" : 5126,
            "count" : 206,
            "type" : "VEC3"
        },
        {
            "bufferView" : 2,
            "componentType" : 5126,
            "count" : 206,
            "type" : "VEC2"
        },
        {
            "bufferView" : 3,
            "componentType" : 5123,
            "count" : 450,
            "type" : "SCALAR"
        },
        {
            "bufferView" : 4,
            "componentType" : 5126,
            "count" : 176,
            "max" : [
                0.48750001192092896,
                1.125,
                -0.22499999403953552
            ],
            "min" : [
                -0.48750001192092896,
                -1.2000000476837158,
                -0.9750000238418579
            ],
            "type" : "VEC3"
        },
        {
            "bufferView" : 5,
            "componentType" : 5126,
            "count" : 176,
            "type" : "VEC3"
        },
        {
            "bufferView" : 6,
            "componentType" : 5126,
            "count" : 176,
            "type" : "VEC2"
        },
        {
            "bufferView" : 7,
            "componentType" : 5123,
            "count" : 384,
            "type" : "SCALAR"
        },
        {
            "bufferView" : 8,
            "componentType" : 5126,
            "count" : 1549,
            "max" : [
                0.5625,
                1.2000000476837158,
                -0.15000000596046448
            ],
            "min" : [
                -0.5625,
                -1.2000000476837158,
                -1.274999976158142
            ],
            "type" : "VEC3"
        },
        {
            "bufferView" : 9,
            "componentType" : 5126,
            "count" : 1549,
            "type" : "VEC3"
        },
        {
            "bufferView" : 10,
            "componentType" : 5126,
            "count" : 1549,
            "type" : "VEC2"
        },
        {
            "bufferView" : 11,
            "componentType" : 5123,
            "count" : 2820,
            "type" : "SCALAR"
        },
        {
            "bufferView" : 12,
            "componentType" : 5126,
            "count" : 1260,
            "max" : [
                0.5625,
                0.873245894908905,
                -0.10925409942865372
            ],
            "min" : [
                -0.5625,
                -0.798245906829834,
                -0.675000011920929
            ],
            "type" : "VEC3"
        },
        {
            "bufferView" : 13,
            "componentType" : 5126,
            "count" : 1260,
            "type" : "VEC3"
        },
        {
            "bufferView" : 14,
            "componentType" : 5126,
            "count" : 1260,
            "type" : "VEC2"
        },
        {
            "bufferView" : 15,
            "componentType" : 5123,
            "count" : 1746,
            "type" : "SCALAR"
        },
        {
            "bufferView" : 16,
            "componentType" : 5126,
            "count" : 8,
            "max" : [
                0.4124999940395355,
                1.125,
                -0.44999998807907104
            ],
            "min" : [
                -0.4124999940395355,
                1.125,
                -0.5249999761581421
            ],
            "type" : "VEC3"
        },
        {
            "bufferView" : 17,
            "componentType" : 5126,
            "count" : 8,
            "type" : "VEC3"
        },
        {
            "bufferView" : 18,
            "componentType" : 5126,
            "count" : 8,
            "type" : "VEC2"
        },
        {
            "bufferView" : 19,
            "componentType" : 5123,
            "count" : 12,
            "type" : "SCALAR"
        },
        {
            "bufferView" : 20,
            "componentType" : 5126,
            "count" : 44,
            "max" : [
                0.48750001192092896,
                0.824999988079071,
                -0.6000000238418579
            ],
            "min" : [
                -0.48750001192092896,
                -1.2000000476837158,
                -1.0499999523162842
            ],
            "type" : "VEC3"
        },
        {
            "bufferView" : 21,
            "componentType" : 5126,
            "count" : 44,
            "type" : "VEC3"
        },
        {
            "bufferView" : 22,
            "componentType" : 5126,
            "count" : 44,
            "type" : "VEC2"
        },
        {
            "bufferView" : 23,
            "componentType" : 5123,
            "count" : 90,
            "type" : "SCALAR"
        },
        {
            "bufferView" : 24,
            "componentType" : 5126,
            "count" : 64,
            "max" : [
                0.30000001192092896,
                0.6000000238418579,
                -0.9750000238418579
            ],
            "min" : [
                -0.30000001192092896,
                -1.125,
                -1.274999976158142
            ],
            "type" : "VEC3"
        },
        {
            "bufferView" : 25,
            "componentType" : 5126,
            "count" : 64,
            "type" : "VEC3"
        },
        {
            "bufferView" : 26,
            "componentType" : 5126,
            "count" : 64,
            "type" : "VEC2"
        },
        {
            "bufferView" : 27,
            "componentType" : 5123,
            "count" : 96,
            "type" : "SCALAR"
        },
        {
            "bufferView" : 28,
            "componentType" : 5126,
            "count" : 1056,
            "max" : [
                0.48750001192092896,
                0.9825000166893005,
                0
            ],
            "min" : [
                -0.48750001192092896,
                -0.9075000286102295,
                -0.44999998807907104
            ],
            "type" : "VEC3"
        },
        {
            "bufferView" : 29,
            "componentType" : 5126,
            "count" : 1056,
            "type" : "VEC3"
        },
        {
            "bufferView" : 30,
            "componentType" : 5126,
            "count" : 1056,
            "type" : "VEC2"
        },
        {
            "bufferView" : 31,
            "componentType" : 5123,
            "count" : 1992,
            "type" : "SCALAR"
        }
    ],
    "bufferViews" : [
        {
            "buffer" : 0,
            "byteLength" : 2472,
            "byteOffset" : 0
        },
        {
            "buffer" : 0,
            "byteLength" : 2472,
            "byteOffset" : 2472
        },
        {
            "buffer" : 0,
            "byteLength" : 1648,
            "byteOffset" : 4944
        },
        {
            "buffer" : 0,
            "byteLength" : 900,
            "byteOffset" : 6592
        },
        {
            "buffer" : 0,
            "byteLength" : 2112,
            "byteOffset" : 7492
        },
        {
            "buffer" : 0,
            "byteLength" : 2112,
            "byteOffset" : 9604
        },
        {
            "buffer" : 0,
            "byteLength" : 1408,
            "byteOffset" : 11716
        },
        {
            "buffer" : 0,
            "byteLength" : 768,
            "byteOffset" : 13124
        },
        {
            "buffer" : 0,
            "byteLength" : 18588,
            "byteOffset" : 13892
        },
        {
            "buffer" : 0,
            "byteLength" : 18588,
            "byteOffset" : 32480
        },
        {
            "buffer" : 0,
            "byteLength" : 12392,
            "byteOffset" : 51068
        },
        {
            "buffer" : 0,
            "byteLength" : 5640,
            "byteOffset" : 63460
        },
        {
            "buffer" : 0,
            "byteLength" : 15120,
            "byteOffset" : 69100
        },
        {
            "buffer" : 0,
            "byteLength" : 15120,
            "byteOffset" : 84220
        },
        {
            "buffer" : 0,
            "byteLength" : 10080,
            "byteOffset" : 99340
        },
        {
            "buffer" : 0,
            "byteLength" : 3492,
            "byteOffset" : 109420
        },
        {
            "buffer" : 0,
            "byteLength" : 96,
            "byteOffset" : 112912
        },
        {
            "buffer" : 0,
            "byteLength" : 96,
            "byteOffset" : 113008
        },
        {
            "buffer" : 0,
            "byteLength" : 64,
            "byteOffset" : 113104
        },
        {
            "buffer" : 0,
            "byteLength" : 24,
            "byteOffset" : 113168
        },
        {
            "buffer" : 0,
            "byteLength" : 528,
            "byteOffset" : 113192
        },
        {
            "buffer" : 0,
            "byteLength" : 528,
            "byteOffset" : 113720
        },
        {
            "buffer" : 0,
            "byteLength" : 352,
            "byteOffset" : 114248
        },
        {
            "buffer" : 0,
            "byteLength" : 180,
            "byteOffset" : 114600
        },
        {
            "buffer" : 0,
            "byteLength" : 768,
            "byteOffset" : 114780
        },
        {
            "buffer" : 0,
            "byteLength" : 768,
            "byteOffset" : 115548
        },
        {
            "buffer" : 0,
            "byteLength" : 512,
            "byteOffset" : 116316
        },
        {
            "buffer" : 0,
            "byteLength" : 192,
            "byteOffset" : 116828
        },
        {
            "buffer" : 0,
            "byteLength" : 12672,
            "byteOffset" : 117020
        },
        {
            "buffer" : 0,
            "byteLength" : 12672,
            "byteOffset" : 129692
        },
        {
            "buffer" : 0,
            "byteLength" : 8448,
            "byteOffset" : 142364
        },
        {
            "buffer" : 0,
            "byteLength" : 3984,
            "byteOffset" : 150812
        }
    ],
    "buffers" : [
        {
            "byteLength" : 154796,
            "uri" : "data:application/octet-stream;base64,"
        }
    ]
}
