{
    "asset" : {
        "generator" : "Khronos glTF Blender I/O v3.2.43",
        "version" : "2.0"
    },
    "scene" : 0,
    "scenes" : [
        {
            "name" : "Scene",
            "nodes" : [
                0
            ]
        }
    ],
    "nodes" : [
        {
            "mesh" : 0,
            "name" : "delivery",
            "rotation" : [
                0.7071068286895752,
                0,
                0,
                0.7071067094802856
            ]
        }
    ],
    "materials" : [
        {
            "doubleSided" : true,
            "name" : "lightBack",
            "pbrMetallicRoughness" : {
                "baseColorFactor" : [
                    1,
                    0.3490195870399475,
                    0.22745099663734436,
                    1
                ],
                "metallicFactor" : 0
            }
        },
        {
            "doubleSided" : true,
            "name" : "paintGreen",
            "pbrMetallicRoughness" : {
                "baseColorFactor" : [
                    0.2392157018184662,
                    0.8470587730407715,
                    0.5058823823928833,
                    1
                ],
                "metallicFactor" : 0
            }
        },
        {
            "doubleSided" : true,
            "name" : "plastic.002",
            "pbrMetallicRoughness" : {
                "baseColorFactor" : [
                    0.3764705955982208,
                    0.3764705955982208,
                    0.3764705955982208,
                    1
                ],
                "metallicFactor" : 0
            }
        },
        {
            "doubleSided" : true,
            "name" : "paintWhite.002",
            "pbrMetallicRoughness" : {
                "baseColorFactor" : [
                    0.8980392217636108,
                    0.9058824181556702,
                    0.9686275124549866,
                    1
                ],
                "metallicFactor" : 0
            }
        },
        {
            "doubleSided" : true,
            "name" : "_defaultMat.002",
            "pbrMetallicRoughness" : {
                "metallicFactor" : 0
            }
        },
        {
            "doubleSided" : true,
            "name" : "lightFront.002",
            "pbrMetallicRoughness" : {
                "baseColorFactor" : [
                    1,
                    0.9762833118438721,
                    0.9292452931404114,
                    1
                ],
                "metallicFactor" : 0
            }
        },
        {
            "doubleSided" : true,
            "name" : "window.002",
            "pbrMetallicRoughness" : {
                "baseColorFactor" : [
                    0.9372549057006836,
                    0.9372549057006836,
                    0.9372549057006836,
                    1
                ],
                "metallicFactor" : 0
            }
        },
        {
            "doubleSided" : true,
            "name" : "carTire.002",
            "pbrMetallicRoughness" : {
                "baseColorFactor" : [
                    0.2392157018184662,
                    0.2392157018184662,
                    0.2392157018184662,
                    1
                ],
                "metallicFactor" : 0
            }
        }
    ],
    "meshes" : [
        {
            "name" : "delivery",
            "primitives" : [
                {
                    "attributes" : {
                        "POSITION" : 0,
                        "NORMAL" : 1,
                        "TEXCOORD_0" : 2
                    },
                    "indices" : 3,
                    "material" : 0
                },
                {
                    "attributes" : {
                        "POSITION" : 4,
                        "NORMAL" : 5,
                        "TEXCOORD_0" : 6
                    },
                    "indices" : 7,
                    "material" : 1
                },
                {
                    "attributes" : {
                        "POSITION" : 8,
                        "NORMAL" : 9,
                        "TEXCOORD_0" : 10
                    },
                    "indices" : 11,
                    "material" : 2
                },
                {
                    "attributes" : {
                        "POSITION" : 12,
                        "NORMAL" : 13,
                        "TEXCOORD_0" : 14
                    },
                    "indices" : 15,
                    "material" : 3
                },
                {
                    "attributes" : {
                        "POSITION" : 16,
                        "NORMAL" : 17,
                        "TEXCOORD_0" : 18
                    },
                    "indices" : 19,
                    "material" : 4
                },
                {
                    "attributes" : {
                        "POSITION" : 20,
                        "NORMAL" : 21,
                        "TEXCOORD_0" : 22
                    },
                    "indices" : 23,
                    "material" : 5
                },
                {
                    "attributes" : {
                        "POSITION" : 24,
                        "NORMAL" : 25,
                        "TEXCOORD_0" : 26
                    },
                    "indices" : 27,
                    "material" : 6
                },
                {
                    "attributes" : {
                        "POSITION" : 28,
                        "NORMAL" : 29,
                        "TEXCOORD_0" : 30
                    },
                    "indices" : 31,
                    "material" : 7
                }
            ]
        }
    ],
    "accessors" : [
        {
            "bufferView" : 0,
            "componentType" : 5126,
            "count" : 12,
            "max" : [
                0.48750001192092896,
                -1.2000000476837158,
                -0.30000001192092896
            ],
            "min" : [
                -0.48750001192092896,
                -1.2000000476837158,
                -0.375
            ],
            "type" : "VEC3"
        },
        {
            "bufferView" : 1,
            "componentType" : 5126,
            "count" : 12,
            "type" : "VEC3"
        },
        {
            "bufferView" : 2,
            "componentType" : 5126,
            "count" : 12,
            "type" : "VEC2"
        },
        {
            "bufferView" : 3,
            "componentType" : 5123,
            "count" : 24,
            "type" : "SCALAR"
        },
        {
            "bufferView" : 4,
            "componentType" : 5126,
            "count" : 96,
            "max" : [
                0.48750001192092896,
                0.33519110083580017,
                -0.22499999403953552
            ],
            "min" : [
                -0.48750001192092896,
                -1.2000000476837158,
                -1.2000000476837158
            ],
            "type" : "VEC3"
        },
        {
            "bufferView" : 5,
            "componentType" : 5126,
            "count" : 96,
            "type" : "VEC3"
        },
        {
            "bufferView" : 6,
            "componentType" : 5126,
            "count" : 96,
            "type" : "VEC2"
        },
        {
            "bufferView" : 7,
            "componentType" : 5123,
            "count" : 240,
            "type" : "SCALAR"
        },
        {
            "bufferView" : 8,
            "componentType" : 5126,
            "count" : 1386,
            "max" : [
                0.48750001192092896,
                1.2000000476837158,
                -0.15000000596046448
            ],
            "min" : [
                -0.48750001192092896,
                -1.2000000476837158,
                -1.125
            ],
            "type" : "VEC3"
        },
        {
            "bufferView" : 9,
            "componentType" : 5126,
            "count" : 1386,
            "type" : "VEC3"
        },
        {
            "bufferView" : 10,
            "componentType" : 5126,
            "count" : 1386,
            "type" : "VEC2"
        },
        {
            "bufferView" : 11,
            "componentType" : 5123,
            "count" : 2622,
            "type" : "SCALAR"
        },
        {
            "bufferView" : 12,
            "componentType" : 5126,
            "count" : 114,
            "max" : [
                0.5625,
                1.125,
                -0.375
            ],
            "min" : [
                -0.5625,
                0.33519110083580017,
                -0.9750000238418579
            ],
            "type" : "VEC3"
        },
        {
            "bufferView" : 13,
            "componentType" : 5126,
            "count" : 114,
            "type" : "VEC3"
        },
        {
            "bufferView" : 14,
            "componentType" : 5126,
            "count" : 114,
            "type" : "VEC2"
        },
        {
            "bufferView" : 15,
            "componentType" : 5123,
            "count" : 246,
            "type" : "SCALAR"
        },
        {
            "bufferView" : 16,
            "componentType" : 5126,
            "count" : 1266,
            "max" : [
                0.5625,
                0.873245894908905,
                -0.10925409942865372
            ],
            "min" : [
                -0.5625,
                -1.125,
                -0.675000011920929
            ],
            "type" : "VEC3"
        },
        {
            "bufferView" : 17,
            "componentType" : 5126,
            "count" : 1266,
            "type" : "VEC3"
        },
        {
            "bufferView" : 18,
            "componentType" : 5126,
            "count" : 1266,
            "type" : "VEC2"
        },
        {
            "bufferView" : 19,
            "componentType" : 5123,
            "count" : 1752,
            "type" : "SCALAR"
        },
        {
            "bufferView" : 20,
            "componentType" : 5126,
            "count" : 8,
            "max" : [
                0.4124999940395355,
                1.125,
                -0.44999998807907104
            ],
            "min" : [
                -0.4124999940395355,
                1.125,
                -0.5249999761581421
            ],
            "type" : "VEC3"
        },
        {
            "bufferView" : 21,
            "componentType" : 5126,
            "count" : 8,
            "type" : "VEC3"
        },
        {
            "bufferView" : 22,
            "componentType" : 5126,
            "count" : 8,
            "type" : "VEC2"
        },
        {
            "bufferView" : 23,
            "componentType" : 5123,
            "count" : 12,
            "type" : "SCALAR"
        },
        {
            "bufferView" : 24,
            "componentType" : 5126,
            "count" : 20,
            "max" : [
                0.4124999940395355,
                0.824999988079071,
                -0.6000000238418579
            ],
            "min" : [
                -0.4124999940395355,
                0.33519110083580017,
                -0.9053642749786377
            ],
            "type" : "VEC3"
        },
        {
            "bufferView" : 25,
            "componentType" : 5126,
            "count" : 20,
            "type" : "VEC3"
        },
        {
            "bufferView" : 26,
            "componentType" : 5126,
            "count" : 20,
            "type" : "VEC2"
        },
        {
            "bufferView" : 27,
            "componentType" : 5123,
            "count" : 42,
            "type" : "SCALAR"
        },
        {
            "bufferView" : 28,
            "componentType" : 5126,
            "count" : 1086,
            "max" : [
                0.48750001192092896,
                0.9825000166893005,
                0
            ],
            "min" : [
                -0.48750001192092896,
                -1.125,
                -1.125
            ],
            "type" : "VEC3"
        },
        {
            "bufferView" : 29,
            "componentType" : 5126,
            "count" : 1086,
            "type" : "VEC3"
        },
        {
            "bufferView" : 30,
            "componentType" : 5126,
            "count" : 1086,
            "type" : "VEC2"
        },
        {
            "bufferView" : 31,
            "componentType" : 5123,
            "count" : 2046,
            "type" : "SCALAR"
        }
    ],
    "bufferViews" : [
        {
            "buffer" : 0,
            "byteLength" : 144,
            "byteOffset" : 0
        },
        {
            "buffer" : 0,
            "byteLength" : 144,
            "byteOffset" : 144
        },
        {
            "buffer" : 0,
            "byteLength" : 96,
            "byteOffset" : 288
        },
        {
            "buffer" : 0,
            "byteLength" : 48,
            "byteOffset" : 384
        },
        {
            "buffer" : 0,
            "byteLength" : 1152,
            "byteOffset" : 432
        },
        {
            "buffer" : 0,
            "byteLength" : 1152,
            "byteOffset" : 1584
        },
        {
            "buffer" : 0,
            "byteLength" : 768,
            "byteOffset" : 2736
        },
        {
            "buffer" : 0,
            "byteLength" : 480,
            "byteOffset" : 3504
        },
        {
            "buffer" : 0,
            "byteLength" : 16632,
            "byteOffset" : 3984
        },
        {
            "buffer" : 0,
            "byteLength" : 16632,
            "byteOffset" : 20616
        },
        {
            "buffer" : 0,
            "byteLength" : 11088,
            "byteOffset" : 37248
        },
        {
            "buffer" : 0,
            "byteLength" : 5244,
            "byteOffset" : 48336
        },
        {
            "buffer" : 0,
            "byteLength" : 1368,
            "byteOffset" : 53580
        },
        {
            "buffer" : 0,
            "byteLength" : 1368,
            "byteOffset" : 54948
        },
        {
            "buffer" : 0,
            "byteLength" : 912,
            "byteOffset" : 56316
        },
        {
            "buffer" : 0,
            "byteLength" : 492,
            "byteOffset" : 57228
        },
        {
            "buffer" : 0,
            "byteLength" : 15192,
            "byteOffset" : 57720
        },
        {
            "buffer" : 0,
            "byteLength" : 15192,
            "byteOffset" : 72912
        },
        {
            "buffer" : 0,
            "byteLength" : 10128,
            "byteOffset" : 88104
        },
        {
            "buffer" : 0,
            "byteLength" : 3504,
            "byteOffset" : 98232
        },
        {
            "buffer" : 0,
            "byteLength" : 96,
            "byteOffset" : 101736
        },
        {
            "buffer" : 0,
            "byteLength" : 96,
            "byteOffset" : 101832
        },
        {
            "buffer" : 0,
            "byteLength" : 64,
            "byteOffset" : 101928
        },
        {
            "buffer" : 0,
            "byteLength" : 24,
            "byteOffset" : 101992
        },
        {
            "buffer" : 0,
            "byteLength" : 240,
            "byteOffset" : 102016
        },
        {
            "buffer" : 0,
            "byteLength" : 240,
            "byteOffset" : 102256
        },
        {
            "buffer" : 0,
            "byteLength" : 160,
            "byteOffset" : 102496
        },
        {
            "buffer" : 0,
            "byteLength" : 84,
            "byteOffset" : 102656
        },
        {
            "buffer" : 0,
            "byteLength" : 13032,
            "byteOffset" : 102740
        },
        {
            "buffer" : 0,
            "byteLength" : 13032,
            "byteOffset" : 115772
        },
        {
            "buffer" : 0,
            "byteLength" : 8688,
            "byteOffset" : 128804
        },
        {
            "buffer" : 0,
            "byteLength" : 4092,
            "byteOffset" : 137492
        }
    ],
    "buffers" : [
        {
            "byteLength" : 141584,
            "uri" : "data:application/octet-stream;base64,"
        }
    ]
}
