{
    "asset" : {
        "generator" : "Khronos glTF Blender I/O v3.2.43",
        "version" : "2.0"
    },
    "scene" : 0,
    "scenes" : [
        {
            "name" : "Scene",
            "nodes" : [
                0
            ]
        }
    ],
    "nodes" : [
        {
            "mesh" : 0,
            "name" : "deliveryFlat",
            "rotation" : [
                0.7071068286895752,
                0,
                0,
                0.7071067094802856
            ]
        }
    ],
    "materials" : [
        {
            "doubleSided" : true,
            "name" : "plastic.003",
            "pbrMetallicRoughness" : {
                "baseColorFactor" : [
                    0.3764705955982208,
                    0.3764705955982208,
                    0.3764705955982208,
                    1
                ],
                "metallicFactor" : 0
            }
        },
        {
            "doubleSided" : true,
            "name" : "paintRed.002",
            "pbrMetallicRoughness" : {
                "baseColorFactor" : [
                    1,
                    0.22745099663734436,
                    0.3019607961177826,
                    1
                ],
                "metallicFactor" : 0
            }
        },
        {
            "doubleSided" : true,
            "name" : "window.003",
            "pbrMetallicRoughness" : {
                "baseColorFactor" : [
                    0.9372549057006836,
                    0.9372549057006836,
                    0.9372549057006836,
                    1
                ],
                "metallicFactor" : 0
            }
        },
        {
            "doubleSided" : true,
            "name" : "lightBack.001",
            "pbrMetallicRoughness" : {
                "baseColorFactor" : [
                    1,
                    0.3490195870399475,
                    0.22745099663734436,
                    1
                ],
                "metallicFactor" : 0
            }
        },
        {
            "doubleSided" : true,
            "name" : "lightFront.003",
            "pbrMetallicRoughness" : {
                "baseColorFactor" : [
                    1,
                    0.9762833118438721,
                    0.9292452931404114,
                    1
                ],
                "metallicFactor" : 0
            }
        },
        {
            "doubleSided" : true,
            "name" : "_defaultMat.003",
            "pbrMetallicRoughness" : {
                "metallicFactor" : 0
            }
        },
        {
            "doubleSided" : true,
            "name" : "carTire.003",
            "pbrMetallicRoughness" : {
                "baseColorFactor" : [
                    0.2392157018184662,
                    0.2392157018184662,
                    0.2392157018184662,
                    1
                ],
                "metallicFactor" : 0
            }
        }
    ],
    "meshes" : [
        {
            "name" : "deliveryFlat",
            "primitives" : [
                {
                    "attributes" : {
                        "POSITION" : 0,
                        "NORMAL" : 1,
                        "TEXCOORD_0" : 2
                    },
                    "indices" : 3,
                    "material" : 0
                },
                {
                    "attributes" : {
                        "POSITION" : 4,
                        "NORMAL" : 5,
                        "TEXCOORD_0" : 6
                    },
                    "indices" : 7,
                    "material" : 1
                },
                {
                    "attributes" : {
                        "POSITION" : 8,
                        "NORMAL" : 9,
                        "TEXCOORD_0" : 10
                    },
                    "indices" : 11,
                    "material" : 2
                },
                {
                    "attributes" : {
                        "POSITION" : 12,
                        "NORMAL" : 13,
                        "TEXCOORD_0" : 14
                    },
                    "indices" : 15,
                    "material" : 3
                },
                {
                    "attributes" : {
                        "POSITION" : 16,
                        "NORMAL" : 17,
                        "TEXCOORD_0" : 18
                    },
                    "indices" : 19,
                    "material" : 4
                },
                {
                    "attributes" : {
                        "POSITION" : 20,
                        "NORMAL" : 21,
                        "TEXCOORD_0" : 22
                    },
                    "indices" : 23,
                    "material" : 5
                },
                {
                    "attributes" : {
                        "POSITION" : 24,
                        "NORMAL" : 25,
                        "TEXCOORD_0" : 26
                    },
                    "indices" : 27,
                    "material" : 6
                }
            ]
        }
    ],
    "accessors" : [
        {
            "bufferView" : 0,
            "componentType" : 5126,
            "count" : 1536,
            "max" : [
                0.48750001192092896,
                1.2000000476837158,
                -0.15000000596046448
            ],
            "min" : [
                -0.48750001192092896,
                -1.2000000476837158,
                -0.9750000238418579
            ],
            "type" : "VEC3"
        },
        {
            "bufferView" : 1,
            "componentType" : 5126,
            "count" : 1536,
            "type" : "VEC3"
        },
        {
            "bufferView" : 2,
            "componentType" : 5126,
            "count" : 1536,
            "type" : "VEC2"
        },
        {
            "bufferView" : 3,
            "componentType" : 5123,
            "count" : 2910,
            "type" : "SCALAR"
        },
        {
            "bufferView" : 4,
            "componentType" : 5126,
            "count" : 130,
            "max" : [
                0.5625,
                1.125,
                -0.22499999403953552
            ],
            "min" : [
                -0.5625,
                -1.2000000476837158,
                -0.9750000238418579
            ],
            "type" : "VEC3"
        },
        {
            "bufferView" : 5,
            "componentType" : 5126,
            "count" : 130,
            "type" : "VEC3"
        },
        {
            "bufferView" : 6,
            "componentType" : 5126,
            "count" : 130,
            "type" : "VEC2"
        },
        {
            "bufferView" : 7,
            "componentType" : 5123,
            "count" : 276,
            "type" : "SCALAR"
        },
        {
            "bufferView" : 8,
            "componentType" : 5126,
            "count" : 18,
            "max" : [
                0.4124999940395355,
                0.8999999761581421,
                -0.6000000238418579
            ],
            "min" : [
                -0.4124999940395355,
                0.33519110083580017,
                -0.9053642749786377
            ],
            "type" : "VEC3"
        },
        {
            "bufferView" : 9,
            "componentType" : 5126,
            "count" : 18,
            "type" : "VEC3"
        },
        {
            "bufferView" : 10,
            "componentType" : 5126,
            "count" : 18,
            "type" : "VEC2"
        },
        {
            "bufferView" : 11,
            "componentType" : 5123,
            "count" : 30,
            "type" : "SCALAR"
        },
        {
            "bufferView" : 12,
            "componentType" : 5126,
            "count" : 10,
            "max" : [
                0.48750001192092896,
                -1.2000000476837158,
                -0.30000001192092896
            ],
            "min" : [
                -0.48750001192092896,
                -1.2000000476837158,
                -0.375
            ],
            "type" : "VEC3"
        },
        {
            "bufferView" : 13,
            "componentType" : 5126,
            "count" : 10,
            "type" : "VEC3"
        },
        {
            "bufferView" : 14,
            "componentType" : 5126,
            "count" : 10,
            "type" : "VEC2"
        },
        {
            "bufferView" : 15,
            "componentType" : 5123,
            "count" : 18,
            "type" : "SCALAR"
        },
        {
            "bufferView" : 16,
            "componentType" : 5126,
            "count" : 8,
            "max" : [
                0.4124999940395355,
                1.125,
                -0.44999998807907104
            ],
            "min" : [
                -0.4124999940395355,
                1.125,
                -0.5249999761581421
            ],
            "type" : "VEC3"
        },
        {
            "bufferView" : 17,
            "componentType" : 5126,
            "count" : 8,
            "type" : "VEC3"
        },
        {
            "bufferView" : 18,
            "componentType" : 5126,
            "count" : 8,
            "type" : "VEC2"
        },
        {
            "bufferView" : 19,
            "componentType" : 5123,
            "count" : 12,
            "type" : "SCALAR"
        },
        {
            "bufferView" : 20,
            "componentType" : 5126,
            "count" : 1256,
            "max" : [
                0.5625,
                0.873245894908905,
                -0.10925409942865372
            ],
            "min" : [
                -0.5625,
                -0.5732458829879761,
                -0.6000000238418579
            ],
            "type" : "VEC3"
        },
        {
            "bufferView" : 21,
            "componentType" : 5126,
            "count" : 1256,
            "type" : "VEC3"
        },
        {
            "bufferView" : 22,
            "componentType" : 5126,
            "count" : 1256,
            "type" : "VEC2"
        },
        {
            "bufferView" : 23,
            "componentType" : 5123,
            "count" : 1740,
            "type" : "SCALAR"
        },
        {
            "bufferView" : 24,
            "componentType" : 5126,
            "count" : 1056,
            "max" : [
                0.48750001192092896,
                0.9825000166893005,
                0
            ],
            "min" : [
                -0.48750001192092896,
                -0.6825000047683716,
                -0.44999998807907104
            ],
            "type" : "VEC3"
        },
        {
            "bufferView" : 25,
            "componentType" : 5126,
            "count" : 1056,
            "type" : "VEC3"
        },
        {
            "bufferView" : 26,
            "componentType" : 5126,
            "count" : 1056,
            "type" : "VEC2"
        },
        {
            "bufferView" : 27,
            "componentType" : 5123,
            "count" : 1992,
            "type" : "SCALAR"
        }
    ],
    "bufferViews" : [
        {
            "buffer" : 0,
            "byteLength" : 18432,
            "byteOffset" : 0
        },
        {
            "buffer" : 0,
            "byteLength" : 18432,
            "byteOffset" : 18432
        },
        {
            "buffer" : 0,
            "byteLength" : 12288,
            "byteOffset" : 36864
        },
        {
            "buffer" : 0,
            "byteLength" : 5820,
            "byteOffset" : 49152
        },
        {
            "buffer" : 0,
            "byteLength" : 1560,
            "byteOffset" : 54972
        },
        {
            "buffer" : 0,
            "byteLength" : 1560,
            "byteOffset" : 56532
        },
        {
            "buffer" : 0,
            "byteLength" : 1040,
            "byteOffset" : 58092
        },
        {
            "buffer" : 0,
            "byteLength" : 552,
            "byteOffset" : 59132
        },
        {
            "buffer" : 0,
            "byteLength" : 216,
            "byteOffset" : 59684
        },
        {
            "buffer" : 0,
            "byteLength" : 216,
            "byteOffset" : 59900
        },
        {
            "buffer" : 0,
            "byteLength" : 144,
            "byteOffset" : 60116
        },
        {
            "buffer" : 0,
            "byteLength" : 60,
            "byteOffset" : 60260
        },
        {
            "buffer" : 0,
            "byteLength" : 120,
            "byteOffset" : 60320
        },
        {
            "buffer" : 0,
            "byteLength" : 120,
            "byteOffset" : 60440
        },
        {
            "buffer" : 0,
            "byteLength" : 80,
            "byteOffset" : 60560
        },
        {
            "buffer" : 0,
            "byteLength" : 36,
            "byteOffset" : 60640
        },
        {
            "buffer" : 0,
            "byteLength" : 96,
            "byteOffset" : 60676
        },
        {
            "buffer" : 0,
            "byteLength" : 96,
            "byteOffset" : 60772
        },
        {
            "buffer" : 0,
            "byteLength" : 64,
            "byteOffset" : 60868
        },
        {
            "buffer" : 0,
            "byteLength" : 24,
            "byteOffset" : 60932
        },
        {
            "buffer" : 0,
            "byteLength" : 15072,
            "byteOffset" : 60956
        },
        {
            "buffer" : 0,
            "byteLength" : 15072,
            "byteOffset" : 76028
        },
        {
            "buffer" : 0,
            "byteLength" : 10048,
            "byteOffset" : 91100
        },
        {
            "buffer" : 0,
            "byteLength" : 3480,
            "byteOffset" : 101148
        },
        {
            "buffer" : 0,
            "byteLength" : 12672,
            "byteOffset" : 104628
        },
        {
            "buffer" : 0,
            "byteLength" : 12672,
            "byteOffset" : 117300
        },
        {
            "buffer" : 0,
            "byteLength" : 8448,
            "byteOffset" : 129972
        },
        {
            "buffer" : 0,
            "byteLength" : 3984,
            "byteOffset" : 138420
        }
    ],
    "buffers" : [
        {
            "byteLength" : 142404,
            "uri" : "data:application/octet-stream;base64,"
        }
    ]
}
