{
    "asset" : {
        "generator" : "Khronos glTF Blender I/O v3.2.43",
        "version" : "2.0"
    },
    "scene" : 0,
    "scenes" : [
        {
            "name" : "Scene",
            "nodes" : [
                0
            ]
        }
    ],
    "nodes" : [
        {
            "mesh" : 0,
            "name" : "hatchbackSports",
            "rotation" : [
                0.7071068286895752,
                0,
                0,
                0.7071067094802856
            ]
        }
    ],
    "materials" : [
        {
            "doubleSided" : true,
            "name" : "plastic.006",
            "pbrMetallicRoughness" : {
                "baseColorFactor" : [
                    0.3764705955982208,
                    0.3764705955982208,
                    0.3764705955982208,
                    1
                ],
                "metallicFactor" : 0
            }
        },
        {
            "doubleSided" : true,
            "name" : "paintGreen.003",
            "pbrMetallicRoughness" : {
                "baseColorFactor" : [
                    0.2392157018184662,
                    0.8470587730407715,
                    0.5058823823928833,
                    1
                ],
                "metallicFactor" : 0
            }
        },
        {
            "doubleSided" : true,
            "name" : "lightFront.006",
            "pbrMetallicRoughness" : {
                "baseColorFactor" : [
                    1,
                    0.9762833118438721,
                    0.9292452931404114,
                    1
                ],
                "metallicFactor" : 0
            }
        },
        {
            "doubleSided" : true,
            "name" : "_defaultMat.006",
            "pbrMetallicRoughness" : {
                "metallicFactor" : 0
            }
        },
        {
            "doubleSided" : true,
            "name" : "window.006",
            "pbrMetallicRoughness" : {
                "baseColorFactor" : [
                    0.9372549057006836,
                    0.9372549057006836,
                    0.9372549057006836,
                    1
                ],
                "metallicFactor" : 0
            }
        },
        {
            "doubleSided" : true,
            "name" : "lightBack.004",
            "pbrMetallicRoughness" : {
                "baseColorFactor" : [
                    1,
                    0.3490195870399475,
                    0.22745099663734436,
                    1
                ],
                "metallicFactor" : 0
            }
        },
        {
            "doubleSided" : true,
            "name" : "carTire.006",
            "pbrMetallicRoughness" : {
                "baseColorFactor" : [
                    0.2392157018184662,
                    0.2392157018184662,
                    0.2392157018184662,
                    1
                ],
                "metallicFactor" : 0
            }
        }
    ],
    "meshes" : [
        {
            "name" : "hatchbackSports",
            "primitives" : [
                {
                    "attributes" : {
                        "POSITION" : 0,
                        "NORMAL" : 1,
                        "TEXCOORD_0" : 2
                    },
                    "indices" : 3,
                    "material" : 0
                },
                {
                    "attributes" : {
                        "POSITION" : 4,
                        "NORMAL" : 5,
                        "TEXCOORD_0" : 6
                    },
                    "indices" : 7,
                    "material" : 1
                },
                {
                    "attributes" : {
                        "POSITION" : 8,
                        "NORMAL" : 9,
                        "TEXCOORD_0" : 10
                    },
                    "indices" : 11,
                    "material" : 2
                },
                {
                    "attributes" : {
                        "POSITION" : 12,
                        "NORMAL" : 13,
                        "TEXCOORD_0" : 14
                    },
                    "indices" : 15,
                    "material" : 3
                },
                {
                    "attributes" : {
                        "POSITION" : 16,
                        "NORMAL" : 17,
                        "TEXCOORD_0" : 18
                    },
                    "indices" : 19,
                    "material" : 4
                },
                {
                    "attributes" : {
                        "POSITION" : 20,
                        "NORMAL" : 21,
                        "TEXCOORD_0" : 22
                    },
                    "indices" : 23,
                    "material" : 5
                },
                {
                    "attributes" : {
                        "POSITION" : 24,
                        "NORMAL" : 25,
                        "TEXCOORD_0" : 26
                    },
                    "indices" : 27,
                    "material" : 6
                }
            ]
        }
    ],
    "accessors" : [
        {
            "bufferView" : 0,
            "componentType" : 5126,
            "count" : 1047,
            "max" : [
                0.48750001192092896,
                1.0499999523162842,
                -0.15000000596046448
            ],
            "min" : [
                -0.48750001192092896,
                -1.0499999523162842,
                -0.824999988079071
            ],
            "type" : "VEC3"
        },
        {
            "bufferView" : 1,
            "componentType" : 5126,
            "count" : 1047,
            "type" : "VEC3"
        },
        {
            "bufferView" : 2,
            "componentType" : 5126,
            "count" : 1047,
            "type" : "VEC2"
        },
        {
            "bufferView" : 3,
            "componentType" : 5123,
            "count" : 2022,
            "type" : "SCALAR"
        },
        {
            "bufferView" : 4,
            "componentType" : 5126,
            "count" : 219,
            "max" : [
                0.48750001192092896,
                0.9750000238418579,
                -0.15000000596046448
            ],
            "min" : [
                -0.48750001192092896,
                -0.9750000238418579,
                -0.824999988079071
            ],
            "type" : "VEC3"
        },
        {
            "bufferView" : 5,
            "componentType" : 5126,
            "count" : 219,
            "type" : "VEC3"
        },
        {
            "bufferView" : 6,
            "componentType" : 5126,
            "count" : 219,
            "type" : "VEC2"
        },
        {
            "bufferView" : 7,
            "componentType" : 5123,
            "count" : 468,
            "type" : "SCALAR"
        },
        {
            "bufferView" : 8,
            "componentType" : 5126,
            "count" : 8,
            "max" : [
                0.4124999940395355,
                0.9750000238418579,
                -0.375
            ],
            "min" : [
                -0.4124999940395355,
                0.9750000238418579,
                -0.44999998807907104
            ],
            "type" : "VEC3"
        },
        {
            "bufferView" : 9,
            "componentType" : 5126,
            "count" : 8,
            "type" : "VEC3"
        },
        {
            "bufferView" : 10,
            "componentType" : 5126,
            "count" : 8,
            "type" : "VEC2"
        },
        {
            "bufferView" : 11,
            "componentType" : 5123,
            "count" : 12,
            "type" : "SCALAR"
        },
        {
            "bufferView" : 12,
            "componentType" : 5126,
            "count" : 1108,
            "max" : [
                0.48750001192092896,
                0.7435261011123657,
                -0.08897385746240616
            ],
            "min" : [
                -0.48750001192092896,
                -0.7435261011123657,
                -0.6000000238418579
            ],
            "type" : "VEC3"
        },
        {
            "bufferView" : 13,
            "componentType" : 5126,
            "count" : 1108,
            "type" : "VEC3"
        },
        {
            "bufferView" : 14,
            "componentType" : 5126,
            "count" : 1108,
            "type" : "VEC2"
        },
        {
            "bufferView" : 15,
            "componentType" : 5123,
            "count" : 1428,
            "type" : "SCALAR"
        },
        {
            "bufferView" : 16,
            "componentType" : 5126,
            "count" : 12,
            "max" : [
                0.4124999940395355,
                0.42967671155929565,
                -0.6000000238418579
            ],
            "min" : [
                -0.4124999940395355,
                -0.28492841124534607,
                -0.7538487911224365
            ],
            "type" : "VEC3"
        },
        {
            "bufferView" : 17,
            "componentType" : 5126,
            "count" : 12,
            "type" : "VEC3"
        },
        {
            "bufferView" : 18,
            "componentType" : 5126,
            "count" : 12,
            "type" : "VEC2"
        },
        {
            "bufferView" : 19,
            "componentType" : 5123,
            "count" : 18,
            "type" : "SCALAR"
        },
        {
            "bufferView" : 20,
            "componentType" : 5126,
            "count" : 8,
            "max" : [
                0.4124999940395355,
                -0.842400074005127,
                -0.6000000238418579
            ],
            "min" : [
                -0.4124999940395355,
                -0.9750000238418579,
                -0.6701229810714722
            ],
            "type" : "VEC3"
        },
        {
            "bufferView" : 21,
            "componentType" : 5126,
            "count" : 8,
            "type" : "VEC3"
        },
        {
            "bufferView" : 22,
            "componentType" : 5126,
            "count" : 8,
            "type" : "VEC2"
        },
        {
            "bufferView" : 23,
            "componentType" : 5123,
            "count" : 12,
            "type" : "SCALAR"
        },
        {
            "bufferView" : 24,
            "componentType" : 5126,
            "count" : 1048,
            "max" : [
                0.48750001192092896,
                0.8324999213218689,
                0
            ],
            "min" : [
                -0.48750001192092896,
                -0.8324999213218689,
                -0.44999998807907104
            ],
            "type" : "VEC3"
        },
        {
            "bufferView" : 25,
            "componentType" : 5126,
            "count" : 1048,
            "type" : "VEC3"
        },
        {
            "bufferView" : 26,
            "componentType" : 5126,
            "count" : 1048,
            "type" : "VEC2"
        },
        {
            "bufferView" : 27,
            "componentType" : 5123,
            "count" : 1992,
            "type" : "SCALAR"
        }
    ],
    "bufferViews" : [
        {
            "buffer" : 0,
            "byteLength" : 12564,
            "byteOffset" : 0
        },
        {
            "buffer" : 0,
            "byteLength" : 12564,
            "byteOffset" : 12564
        },
        {
            "buffer" : 0,
            "byteLength" : 8376,
            "byteOffset" : 25128
        },
        {
            "buffer" : 0,
            "byteLength" : 4044,
            "byteOffset" : 33504
        },
        {
            "buffer" : 0,
            "byteLength" : 2628,
            "byteOffset" : 37548
        },
        {
            "buffer" : 0,
            "byteLength" : 2628,
            "byteOffset" : 40176
        },
        {
            "buffer" : 0,
            "byteLength" : 1752,
            "byteOffset" : 42804
        },
        {
            "buffer" : 0,
            "byteLength" : 936,
            "byteOffset" : 44556
        },
        {
            "buffer" : 0,
            "byteLength" : 96,
            "byteOffset" : 45492
        },
        {
            "buffer" : 0,
            "byteLength" : 96,
            "byteOffset" : 45588
        },
        {
            "buffer" : 0,
            "byteLength" : 64,
            "byteOffset" : 45684
        },
        {
            "buffer" : 0,
            "byteLength" : 24,
            "byteOffset" : 45748
        },
        {
            "buffer" : 0,
            "byteLength" : 13296,
            "byteOffset" : 45772
        },
        {
            "buffer" : 0,
            "byteLength" : 13296,
            "byteOffset" : 59068
        },
        {
            "buffer" : 0,
            "byteLength" : 8864,
            "byteOffset" : 72364
        },
        {
            "buffer" : 0,
            "byteLength" : 2856,
            "byteOffset" : 81228
        },
        {
            "buffer" : 0,
            "byteLength" : 144,
            "byteOffset" : 84084
        },
        {
            "buffer" : 0,
            "byteLength" : 144,
            "byteOffset" : 84228
        },
        {
            "buffer" : 0,
            "byteLength" : 96,
            "byteOffset" : 84372
        },
        {
            "buffer" : 0,
            "byteLength" : 36,
            "byteOffset" : 84468
        },
        {
            "buffer" : 0,
            "byteLength" : 96,
            "byteOffset" : 84504
        },
        {
            "buffer" : 0,
            "byteLength" : 96,
            "byteOffset" : 84600
        },
        {
            "buffer" : 0,
            "byteLength" : 64,
            "byteOffset" : 84696
        },
        {
            "buffer" : 0,
            "byteLength" : 24,
            "byteOffset" : 84760
        },
        {
            "buffer" : 0,
            "byteLength" : 12576,
            "byteOffset" : 84784
        },
        {
            "buffer" : 0,
            "byteLength" : 12576,
            "byteOffset" : 97360
        },
        {
            "buffer" : 0,
            "byteLength" : 8384,
            "byteOffset" : 109936
        },
        {
            "buffer" : 0,
            "byteLength" : 3984,
            "byteOffset" : 118320
        }
    ],
    "buffers" : [
        {
            "byteLength" : 122304,
            "uri" : "data:application/octet-stream;base64,"
        }
    ]
}
