{
    "asset" : {
        "generator" : "Khronos glTF Blender I/O v3.2.43",
        "version" : "2.0"
    },
    "scene" : 0,
    "scenes" : [
        {
            "name" : "Scene",
            "nodes" : [
                0
            ]
        }
    ],
    "nodes" : [
        {
            "mesh" : 0,
            "name" : "firetruck",
            "rotation" : [
                0.7071068286895752,
                0,
                0,
                0.7071067094802856
            ]
        }
    ],
    "materials" : [
        {
            "doubleSided" : true,
            "name" : "lightBack.002",
            "pbrMetallicRoughness" : {
                "baseColorFactor" : [
                    1,
                    0.3490195870399475,
                    0.22745099663734436,
                    1
                ],
                "metallicFactor" : 0
            }
        },
        {
            "doubleSided" : true,
            "name" : "paintGreen.001",
            "pbrMetallicRoughness" : {
                "baseColorFactor" : [
                    0.2392157018184662,
                    0.8470587730407715,
                    0.5058823823928833,
                    1
                ],
                "metallicFactor" : 0
            }
        },
        {
            "doubleSided" : true,
            "name" : "plastic.004",
            "pbrMetallicRoughness" : {
                "baseColorFactor" : [
                    0.3764705955982208,
                    0.3764705955982208,
                    0.3764705955982208,
                    1
                ],
                "metallicFactor" : 0
            }
        },
        {
            "doubleSided" : true,
            "name" : "paintRed.003",
            "pbrMetallicRoughness" : {
                "baseColorFactor" : [
                    1,
                    0.22745099663734436,
                    0.3019607961177826,
                    1
                ],
                "metallicFactor" : 0
            }
        },
        {
            "doubleSided" : true,
            "name" : "lightFront.004",
            "pbrMetallicRoughness" : {
                "baseColorFactor" : [
                    1,
                    0.9762833118438721,
                    0.9292452931404114,
                    1
                ],
                "metallicFactor" : 0
            }
        },
        {
            "doubleSided" : true,
            "name" : "window.004",
            "pbrMetallicRoughness" : {
                "baseColorFactor" : [
                    0.9372549057006836,
                    0.9372549057006836,
                    0.9372549057006836,
                    1
                ],
                "metallicFactor" : 0
            }
        },
        {
            "doubleSided" : true,
            "name" : "lightBlue.002",
            "pbrMetallicRoughness" : {
                "baseColorFactor" : [
                    0.3568628132343292,
                    0.6941177248954773,
                    1,
                    1
                ],
                "metallicFactor" : 0
            }
        },
        {
            "doubleSided" : true,
            "name" : "_defaultMat.004",
            "pbrMetallicRoughness" : {
                "metallicFactor" : 0
            }
        },
        {
            "doubleSided" : true,
            "name" : "carTire.004",
            "pbrMetallicRoughness" : {
                "baseColorFactor" : [
                    0.2392157018184662,
                    0.2392157018184662,
                    0.2392157018184662,
                    1
                ],
                "metallicFactor" : 0
            }
        }
    ],
    "meshes" : [
        {
            "name" : "firetruck",
            "primitives" : [
                {
                    "attributes" : {
                        "POSITION" : 0,
                        "NORMAL" : 1,
                        "TEXCOORD_0" : 2
                    },
                    "indices" : 3,
                    "material" : 0
                },
                {
                    "attributes" : {
                        "POSITION" : 4,
                        "NORMAL" : 5,
                        "TEXCOORD_0" : 6
                    },
                    "indices" : 7,
                    "material" : 1
                },
                {
                    "attributes" : {
                        "POSITION" : 8,
                        "NORMAL" : 9,
                        "TEXCOORD_0" : 10
                    },
                    "indices" : 11,
                    "material" : 2
                },
                {
                    "attributes" : {
                        "POSITION" : 12,
                        "NORMAL" : 13,
                        "TEXCOORD_0" : 14
                    },
                    "indices" : 15,
                    "material" : 3
                },
                {
                    "attributes" : {
                        "POSITION" : 16,
                        "NORMAL" : 17,
                        "TEXCOORD_0" : 18
                    },
                    "indices" : 19,
                    "material" : 4
                },
                {
                    "attributes" : {
                        "POSITION" : 20,
                        "NORMAL" : 21,
                        "TEXCOORD_0" : 22
                    },
                    "indices" : 23,
                    "material" : 5
                },
                {
                    "attributes" : {
                        "POSITION" : 24,
                        "NORMAL" : 25,
                        "TEXCOORD_0" : 26
                    },
                    "indices" : 27,
                    "material" : 6
                },
                {
                    "attributes" : {
                        "POSITION" : 28,
                        "NORMAL" : 29,
                        "TEXCOORD_0" : 30
                    },
                    "indices" : 31,
                    "material" : 7
                },
                {
                    "attributes" : {
                        "POSITION" : 32,
                        "NORMAL" : 33,
                        "TEXCOORD_0" : 34
                    },
                    "indices" : 35,
                    "material" : 8
                }
            ]
        }
    ],
    "accessors" : [
        {
            "bufferView" : 0,
            "componentType" : 5126,
            "count" : 10,
            "max" : [
                0.48750001192092896,
                -1.2374999523162842,
                -0.30000001192092896
            ],
            "min" : [
                -0.48750001192092896,
                -1.2374999523162842,
                -0.375
            ],
            "type" : "VEC3"
        },
        {
            "bufferView" : 1,
            "componentType" : 5126,
            "count" : 10,
            "type" : "VEC3"
        },
        {
            "bufferView" : 2,
            "componentType" : 5126,
            "count" : 10,
            "type" : "VEC2"
        },
        {
            "bufferView" : 3,
            "componentType" : 5123,
            "count" : 18,
            "type" : "SCALAR"
        },
        {
            "bufferView" : 4,
            "componentType" : 5126,
            "count" : 28,
            "max" : [
                0.48750001192092896,
                -1.162500023841858,
                -0.30000001192092896
            ],
            "min" : [
                -0.48750001192092896,
                -1.2374999523162842,
                -0.30000001192092896
            ],
            "type" : "VEC3"
        },
        {
            "bufferView" : 5,
            "componentType" : 5126,
            "count" : 28,
            "type" : "VEC3"
        },
        {
            "bufferView" : 6,
            "componentType" : 5126,
            "count" : 28,
            "type" : "VEC2"
        },
        {
            "bufferView" : 7,
            "componentType" : 5123,
            "count" : 72,
            "type" : "SCALAR"
        },
        {
            "bufferView" : 8,
            "componentType" : 5126,
            "count" : 1440,
            "max" : [
                0.48750001192092896,
                1.162500023841858,
                -0.15000000596046448
            ],
            "min" : [
                -0.48750001192092896,
                -1.2374999523162842,
                -1.274999976158142
            ],
            "type" : "VEC3"
        },
        {
            "bufferView" : 9,
            "componentType" : 5126,
            "count" : 1440,
            "type" : "VEC3"
        },
        {
            "bufferView" : 10,
            "componentType" : 5126,
            "count" : 1440,
            "type" : "VEC2"
        },
        {
            "bufferView" : 11,
            "componentType" : 5123,
            "count" : 2688,
            "type" : "SCALAR"
        },
        {
            "bufferView" : 12,
            "componentType" : 5126,
            "count" : 176,
            "max" : [
                0.48750001192092896,
                1.087499976158142,
                -0.22499999403953552
            ],
            "min" : [
                -0.48750001192092896,
                -1.2374999523162842,
                -1.2000000476837158
            ],
            "type" : "VEC3"
        },
        {
            "bufferView" : 13,
            "componentType" : 5126,
            "count" : 176,
            "type" : "VEC3"
        },
        {
            "bufferView" : 14,
            "componentType" : 5126,
            "count" : 176,
            "type" : "VEC2"
        },
        {
            "bufferView" : 15,
            "componentType" : 5123,
            "count" : 504,
            "type" : "SCALAR"
        },
        {
            "bufferView" : 16,
            "componentType" : 5126,
            "count" : 8,
            "max" : [
                0.3375000059604645,
                1.066540002822876,
                -0.5961521863937378
            ],
            "min" : [
                -0.3375000059604645,
                1.0594630241394043,
                -0.6708176136016846
            ],
            "type" : "VEC3"
        },
        {
            "bufferView" : 17,
            "componentType" : 5126,
            "count" : 8,
            "type" : "VEC3"
        },
        {
            "bufferView" : 18,
            "componentType" : 5126,
            "count" : 8,
            "type" : "VEC2"
        },
        {
            "bufferView" : 19,
            "componentType" : 5123,
            "count" : 12,
            "type" : "SCALAR"
        },
        {
            "bufferView" : 20,
            "componentType" : 5126,
            "count" : 12,
            "max" : [
                0.4124999940395355,
                1.052386999130249,
                -0.7454829812049866
            ],
            "min" : [
                -0.4124999940395355,
                0.6979401707649231,
                -1.0503350496292114
            ],
            "type" : "VEC3"
        },
        {
            "bufferView" : 21,
            "componentType" : 5126,
            "count" : 12,
            "type" : "VEC3"
        },
        {
            "bufferView" : 22,
            "componentType" : 5126,
            "count" : 12,
            "type" : "VEC2"
        },
        {
            "bufferView" : 23,
            "componentType" : 5123,
            "count" : 18,
            "type" : "SCALAR"
        },
        {
            "bufferView" : 24,
            "componentType" : 5126,
            "count" : 64,
            "max" : [
                0.3375000059604645,
                0.9414172768592834,
                -1.125
            ],
            "min" : [
                -0.3375000059604645,
                -1.162500023841858,
                -1.274999976158142
            ],
            "type" : "VEC3"
        },
        {
            "bufferView" : 25,
            "componentType" : 5126,
            "count" : 64,
            "type" : "VEC3"
        },
        {
            "bufferView" : 26,
            "componentType" : 5126,
            "count" : 64,
            "type" : "VEC2"
        },
        {
            "bufferView" : 27,
            "componentType" : 5123,
            "count" : 96,
            "type" : "SCALAR"
        },
        {
            "bufferView" : 28,
            "componentType" : 5126,
            "count" : 1256,
            "max" : [
                0.48750001192092896,
                0.9921954274177551,
                -0.10925409942865372
            ],
            "min" : [
                -0.48750001192092896,
                -0.610745906829834,
                -0.8142353296279907
            ],
            "type" : "VEC3"
        },
        {
            "bufferView" : 29,
            "componentType" : 5126,
            "count" : 1256,
            "type" : "VEC3"
        },
        {
            "bufferView" : 30,
            "componentType" : 5126,
            "count" : 1256,
            "type" : "VEC2"
        },
        {
            "bufferView" : 31,
            "componentType" : 5123,
            "count" : 1740,
            "type" : "SCALAR"
        },
        {
            "bufferView" : 32,
            "componentType" : 5126,
            "count" : 1056,
            "max" : [
                0.48750001192092896,
                0.9449999928474426,
                0
            ],
            "min" : [
                -0.48750001192092896,
                -0.7200000286102295,
                -0.44999998807907104
            ],
            "type" : "VEC3"
        },
        {
            "bufferView" : 33,
            "componentType" : 5126,
            "count" : 1056,
            "type" : "VEC3"
        },
        {
            "bufferView" : 34,
            "componentType" : 5126,
            "count" : 1056,
            "type" : "VEC2"
        },
        {
            "bufferView" : 35,
            "componentType" : 5123,
            "count" : 1992,
            "type" : "SCALAR"
        }
    ],
    "bufferViews" : [
        {
            "buffer" : 0,
            "byteLength" : 120,
            "byteOffset" : 0
        },
        {
            "buffer" : 0,
            "byteLength" : 120,
            "byteOffset" : 120
        },
        {
            "buffer" : 0,
            "byteLength" : 80,
            "byteOffset" : 240
        },
        {
            "buffer" : 0,
            "byteLength" : 36,
            "byteOffset" : 320
        },
        {
            "buffer" : 0,
            "byteLength" : 336,
            "byteOffset" : 356
        },
        {
            "buffer" : 0,
            "byteLength" : 336,
            "byteOffset" : 692
        },
        {
            "buffer" : 0,
            "byteLength" : 224,
            "byteOffset" : 1028
        },
        {
            "buffer" : 0,
            "byteLength" : 144,
            "byteOffset" : 1252
        },
        {
            "buffer" : 0,
            "byteLength" : 17280,
            "byteOffset" : 1396
        },
        {
            "buffer" : 0,
            "byteLength" : 17280,
            "byteOffset" : 18676
        },
        {
            "buffer" : 0,
            "byteLength" : 11520,
            "byteOffset" : 35956
        },
        {
            "buffer" : 0,
            "byteLength" : 5376,
            "byteOffset" : 47476
        },
        {
            "buffer" : 0,
            "byteLength" : 2112,
            "byteOffset" : 52852
        },
        {
            "buffer" : 0,
            "byteLength" : 2112,
            "byteOffset" : 54964
        },
        {
            "buffer" : 0,
            "byteLength" : 1408,
            "byteOffset" : 57076
        },
        {
            "buffer" : 0,
            "byteLength" : 1008,
            "byteOffset" : 58484
        },
        {
            "buffer" : 0,
            "byteLength" : 96,
            "byteOffset" : 59492
        },
        {
            "buffer" : 0,
            "byteLength" : 96,
            "byteOffset" : 59588
        },
        {
            "buffer" : 0,
            "byteLength" : 64,
            "byteOffset" : 59684
        },
        {
            "buffer" : 0,
            "byteLength" : 24,
            "byteOffset" : 59748
        },
        {
            "buffer" : 0,
            "byteLength" : 144,
            "byteOffset" : 59772
        },
        {
            "buffer" : 0,
            "byteLength" : 144,
            "byteOffset" : 59916
        },
        {
            "buffer" : 0,
            "byteLength" : 96,
            "byteOffset" : 60060
        },
        {
            "buffer" : 0,
            "byteLength" : 36,
            "byteOffset" : 60156
        },
        {
            "buffer" : 0,
            "byteLength" : 768,
            "byteOffset" : 60192
        },
        {
            "buffer" : 0,
            "byteLength" : 768,
            "byteOffset" : 60960
        },
        {
            "buffer" : 0,
            "byteLength" : 512,
            "byteOffset" : 61728
        },
        {
            "buffer" : 0,
            "byteLength" : 192,
            "byteOffset" : 62240
        },
        {
            "buffer" : 0,
            "byteLength" : 15072,
            "byteOffset" : 62432
        },
        {
            "buffer" : 0,
            "byteLength" : 15072,
            "byteOffset" : 77504
        },
        {
            "buffer" : 0,
            "byteLength" : 10048,
            "byteOffset" : 92576
        },
        {
            "buffer" : 0,
            "byteLength" : 3480,
            "byteOffset" : 102624
        },
        {
            "buffer" : 0,
            "byteLength" : 12672,
            "byteOffset" : 106104
        },
        {
            "buffer" : 0,
            "byteLength" : 12672,
            "byteOffset" : 118776
        },
        {
            "buffer" : 0,
            "byteLength" : 8448,
            "byteOffset" : 131448
        },
        {
            "buffer" : 0,
            "byteLength" : 3984,
            "byteOffset" : 139896
        }
    ],
    "buffers" : [
        {
            "byteLength" : 143880,
            "uri" : "data:application/octet-stream;base64,"
        }
    ]
}
