{
    "asset" : {
        "generator" : "Khronos glTF Blender I/O v3.2.43",
        "version" : "2.0"
    },
    "scene" : 0,
    "scenes" : [
        {
            "name" : "Scene",
            "nodes" : [
                0
            ]
        }
    ],
    "nodes" : [
        {
            "mesh" : 0,
            "name" : "raceFuture",
            "rotation" : [
                0.7071068286895752,
                0,
                0,
                0.7071067094802856
            ]
        }
    ],
    "materials" : [
        {
            "doubleSided" : true,
            "name" : "plastic.009",
            "pbrMetallicRoughness" : {
                "baseColorFactor" : [
                    0.3764705955982208,
                    0.3764705955982208,
                    0.3764705955982208,
                    1
                ],
                "metallicFactor" : 0
            }
        },
        {
            "doubleSided" : true,
            "name" : "paintBlue",
            "pbrMetallicRoughness" : {
                "baseColorFactor" : [
                    0.4117647111415863,
                    0.4784314036369324,
                    0.8470587730407715,
                    1
                ],
                "metallicFactor" : 0
            }
        },
        {
            "doubleSided" : true,
            "name" : "_defaultMat.009",
            "pbrMetallicRoughness" : {
                "metallicFactor" : 0
            }
        },
        {
            "doubleSided" : true,
            "name" : "window.009",
            "pbrMetallicRoughness" : {
                "baseColorFactor" : [
                    0.9372549057006836,
                    0.9372549057006836,
                    0.9372549057006836,
                    1
                ],
                "metallicFactor" : 0
            }
        },
        {
            "doubleSided" : true,
            "name" : "carTire.009",
            "pbrMetallicRoughness" : {
                "baseColorFactor" : [
                    0.2392157018184662,
                    0.2392157018184662,
                    0.2392157018184662,
                    1
                ],
                "metallicFactor" : 0
            }
        },
        {
            "doubleSided" : true,
            "name" : "paintYellow.001",
            "pbrMetallicRoughness" : {
                "baseColorFactor" : [
                    0.9764705896377563,
                    0.7686275243759155,
                    0.2745097875595093,
                    1
                ],
                "metallicFactor" : 0
            }
        }
    ],
    "meshes" : [
        {
            "name" : "raceFuture",
            "primitives" : [
                {
                    "attributes" : {
                        "POSITION" : 0,
                        "NORMAL" : 1,
                        "TEXCOORD_0" : 2
                    },
                    "indices" : 3,
                    "material" : 0
                },
                {
                    "attributes" : {
                        "POSITION" : 4,
                        "NORMAL" : 5,
                        "TEXCOORD_0" : 6
                    },
                    "indices" : 7,
                    "material" : 1
                },
                {
                    "attributes" : {
                        "POSITION" : 8,
                        "NORMAL" : 9,
                        "TEXCOORD_0" : 10
                    },
                    "indices" : 11,
                    "material" : 2
                },
                {
                    "attributes" : {
                        "POSITION" : 12,
                        "NORMAL" : 13,
                        "TEXCOORD_0" : 14
                    },
                    "indices" : 15,
                    "material" : 3
                },
                {
                    "attributes" : {
                        "POSITION" : 16,
                        "NORMAL" : 17,
                        "TEXCOORD_0" : 18
                    },
                    "indices" : 19,
                    "material" : 4
                },
                {
                    "attributes" : {
                        "POSITION" : 20,
                        "NORMAL" : 21,
                        "TEXCOORD_0" : 22
                    },
                    "indices" : 23,
                    "material" : 5
                }
            ]
        }
    ],
    "accessors" : [
        {
            "bufferView" : 0,
            "componentType" : 5126,
            "count" : 848,
            "max" : [
                0.48750001192092896,
                0.9974145889282227,
                -0.1013398990035057
            ],
            "min" : [
                -0.48750001192092896,
                -0.9974145889282227,
                -0.6244081854820251
            ],
            "type" : "VEC3"
        },
        {
            "bufferView" : 1,
            "componentType" : 5126,
            "count" : 848,
            "type" : "VEC3"
        },
        {
            "bufferView" : 2,
            "componentType" : 5126,
            "count" : 848,
            "type" : "VEC2"
        },
        {
            "bufferView" : 3,
            "componentType" : 5123,
            "count" : 1746,
            "type" : "SCALAR"
        },
        {
            "bufferView" : 4,
            "componentType" : 5126,
            "count" : 914,
            "max" : [
                0.48750001192092896,
                0.8474146723747253,
                -0.15000000596046448
            ],
            "min" : [
                -0.48750001192092896,
                -0.9974145889282227,
                -0.6244081854820251
            ],
            "type" : "VEC3"
        },
        {
            "bufferView" : 5,
            "componentType" : 5126,
            "count" : 914,
            "type" : "VEC3"
        },
        {
            "bufferView" : 6,
            "componentType" : 5126,
            "count" : 914,
            "type" : "VEC2"
        },
        {
            "bufferView" : 7,
            "componentType" : 5123,
            "count" : 1824,
            "type" : "SCALAR"
        },
        {
            "bufferView" : 8,
            "componentType" : 5126,
            "count" : 12,
            "max" : [
                0.4124999940395355,
                0.011616789735853672,
                -0.36640819907188416
            ],
            "min" : [
                -0.4124999940395355,
                0.011616789735853672,
                -0.4414081871509552
            ],
            "type" : "VEC3"
        },
        {
            "bufferView" : 9,
            "componentType" : 5126,
            "count" : 12,
            "type" : "VEC3"
        },
        {
            "bufferView" : 10,
            "componentType" : 5126,
            "count" : 12,
            "type" : "VEC2"
        },
        {
            "bufferView" : 11,
            "componentType" : 5123,
            "count" : 12,
            "type" : "SCALAR"
        },
        {
            "bufferView" : 12,
            "componentType" : 5126,
            "count" : 12,
            "max" : [
                0.1889999955892563,
                0.11015649884939194,
                -0.4414081871509552
            ],
            "min" : [
                -0.1889999955892563,
                -0.18984350562095642,
                -0.5494081974029541
            ],
            "type" : "VEC3"
        },
        {
            "bufferView" : 13,
            "componentType" : 5126,
            "count" : 12,
            "type" : "VEC3"
        },
        {
            "bufferView" : 14,
            "componentType" : 5126,
            "count" : 12,
            "type" : "VEC2"
        },
        {
            "bufferView" : 15,
            "componentType" : 5123,
            "count" : 18,
            "type" : "SCALAR"
        },
        {
            "bufferView" : 16,
            "componentType" : 5126,
            "count" : 856,
            "max" : [
                0.48750001192092896,
                0.6674147248268127,
                0
            ],
            "min" : [
                -0.48750001192092896,
                -0.9225853085517883,
                -0.44999998807907104
            ],
            "type" : "VEC3"
        },
        {
            "bufferView" : 17,
            "componentType" : 5126,
            "count" : 856,
            "type" : "VEC3"
        },
        {
            "bufferView" : 18,
            "componentType" : 5126,
            "count" : 856,
            "type" : "VEC2"
        },
        {
            "bufferView" : 19,
            "componentType" : 5123,
            "count" : 1416,
            "type" : "SCALAR"
        },
        {
            "bufferView" : 20,
            "componentType" : 5126,
            "count" : 192,
            "max" : [
                0.48750001192092896,
                0.6336647272109985,
                -0.033750008791685104
            ],
            "min" : [
                -0.48750001192092896,
                -0.8888353109359741,
                -0.41624999046325684
            ],
            "type" : "VEC3"
        },
        {
            "bufferView" : 21,
            "componentType" : 5126,
            "count" : 192,
            "type" : "VEC3"
        },
        {
            "bufferView" : 22,
            "componentType" : 5126,
            "count" : 192,
            "type" : "VEC2"
        },
        {
            "bufferView" : 23,
            "componentType" : 5123,
            "count" : 576,
            "type" : "SCALAR"
        }
    ],
    "bufferViews" : [
        {
            "buffer" : 0,
            "byteLength" : 10176,
            "byteOffset" : 0
        },
        {
            "buffer" : 0,
            "byteLength" : 10176,
            "byteOffset" : 10176
        },
        {
            "buffer" : 0,
            "byteLength" : 6784,
            "byteOffset" : 20352
        },
        {
            "buffer" : 0,
            "byteLength" : 3492,
            "byteOffset" : 27136
        },
        {
            "buffer" : 0,
            "byteLength" : 10968,
            "byteOffset" : 30628
        },
        {
            "buffer" : 0,
            "byteLength" : 10968,
            "byteOffset" : 41596
        },
        {
            "buffer" : 0,
            "byteLength" : 7312,
            "byteOffset" : 52564
        },
        {
            "buffer" : 0,
            "byteLength" : 3648,
            "byteOffset" : 59876
        },
        {
            "buffer" : 0,
            "byteLength" : 144,
            "byteOffset" : 63524
        },
        {
            "buffer" : 0,
            "byteLength" : 144,
            "byteOffset" : 63668
        },
        {
            "buffer" : 0,
            "byteLength" : 96,
            "byteOffset" : 63812
        },
        {
            "buffer" : 0,
            "byteLength" : 24,
            "byteOffset" : 63908
        },
        {
            "buffer" : 0,
            "byteLength" : 144,
            "byteOffset" : 63932
        },
        {
            "buffer" : 0,
            "byteLength" : 144,
            "byteOffset" : 64076
        },
        {
            "buffer" : 0,
            "byteLength" : 96,
            "byteOffset" : 64220
        },
        {
            "buffer" : 0,
            "byteLength" : 36,
            "byteOffset" : 64316
        },
        {
            "buffer" : 0,
            "byteLength" : 10272,
            "byteOffset" : 64352
        },
        {
            "buffer" : 0,
            "byteLength" : 10272,
            "byteOffset" : 74624
        },
        {
            "buffer" : 0,
            "byteLength" : 6848,
            "byteOffset" : 84896
        },
        {
            "buffer" : 0,
            "byteLength" : 2832,
            "byteOffset" : 91744
        },
        {
            "buffer" : 0,
            "byteLength" : 2304,
            "byteOffset" : 94576
        },
        {
            "buffer" : 0,
            "byteLength" : 2304,
            "byteOffset" : 96880
        },
        {
            "buffer" : 0,
            "byteLength" : 1536,
            "byteOffset" : 99184
        },
        {
            "buffer" : 0,
            "byteLength" : 1152,
            "byteOffset" : 100720
        }
    ],
    "buffers" : [
        {
            "byteLength" : 101872,
            "uri" : "data:application/octet-stream;base64,"
        }
    ]
}
