{
    "asset" : {
        "generator" : "Khronos glTF Blender I/O v3.2.43",
        "version" : "2.0"
    },
    "scene" : 0,
    "scenes" : [
        {
            "name" : "Scene",
            "nodes" : [
                0
            ]
        }
    ],
    "nodes" : [
        {
            "mesh" : 0,
            "name" : "race",
            "rotation" : [
                0.7071068286895752,
                0,
                0,
                0.7071067094802856
            ]
        }
    ],
    "materials" : [
        {
            "doubleSided" : true,
            "name" : "paintRed.004",
            "pbrMetallicRoughness" : {
                "baseColorFactor" : [
                    1,
                    0.22745099663734436,
                    0.3019607961177826,
                    1
                ],
                "metallicFactor" : 0
            }
        },
        {
            "doubleSided" : true,
            "name" : "plastic.008",
            "pbrMetallicRoughness" : {
                "baseColorFactor" : [
                    0.3764705955982208,
                    0.3764705955982208,
                    0.3764705955982208,
                    1
                ],
                "metallicFactor" : 0
            }
        },
        {
            "doubleSided" : true,
            "name" : "window.008",
            "pbrMetallicRoughness" : {
                "baseColorFactor" : [
                    0.9372549057006836,
                    0.9372549057006836,
                    0.9372549057006836,
                    1
                ],
                "metallicFactor" : 0
            }
        },
        {
            "doubleSided" : true,
            "name" : "_defaultMat.008",
            "pbrMetallicRoughness" : {
                "metallicFactor" : 0
            }
        },
        {
            "doubleSided" : true,
            "name" : "carTire.008",
            "pbrMetallicRoughness" : {
                "baseColorFactor" : [
                    0.2392157018184662,
                    0.2392157018184662,
                    0.2392157018184662,
                    1
                ],
                "metallicFactor" : 0
            }
        },
        {
            "doubleSided" : true,
            "name" : "paintYellow",
            "pbrMetallicRoughness" : {
                "baseColorFactor" : [
                    0.9764705896377563,
                    0.7686275243759155,
                    0.2745097875595093,
                    1
                ],
                "metallicFactor" : 0
            }
        }
    ],
    "meshes" : [
        {
            "name" : "race",
            "primitives" : [
                {
                    "attributes" : {
                        "POSITION" : 0,
                        "NORMAL" : 1,
                        "TEXCOORD_0" : 2
                    },
                    "indices" : 3,
                    "material" : 0
                },
                {
                    "attributes" : {
                        "POSITION" : 4,
                        "NORMAL" : 5,
                        "TEXCOORD_0" : 6
                    },
                    "indices" : 7,
                    "material" : 1
                },
                {
                    "attributes" : {
                        "POSITION" : 8,
                        "NORMAL" : 9,
                        "TEXCOORD_0" : 10
                    },
                    "indices" : 11,
                    "material" : 2
                },
                {
                    "attributes" : {
                        "POSITION" : 12,
                        "NORMAL" : 13,
                        "TEXCOORD_0" : 14
                    },
                    "indices" : 15,
                    "material" : 3
                },
                {
                    "attributes" : {
                        "POSITION" : 16,
                        "NORMAL" : 17,
                        "TEXCOORD_0" : 18
                    },
                    "indices" : 19,
                    "material" : 4
                },
                {
                    "attributes" : {
                        "POSITION" : 20,
                        "NORMAL" : 21,
                        "TEXCOORD_0" : 22
                    },
                    "indices" : 23,
                    "material" : 5
                }
            ]
        }
    ],
    "accessors" : [
        {
            "bufferView" : 0,
            "componentType" : 5126,
            "count" : 264,
            "max" : [
                0.4124999940395355,
                0.8099145889282227,
                -0.07500000298023224
            ],
            "min" : [
                -0.4124999940395355,
                -0.9599146842956543,
                -0.5494081974029541
            ],
            "type" : "VEC3"
        },
        {
            "bufferView" : 1,
            "componentType" : 5126,
            "count" : 264,
            "type" : "VEC3"
        },
        {
            "bufferView" : 2,
            "componentType" : 5126,
            "count" : 264,
            "type" : "VEC2"
        },
        {
            "bufferView" : 3,
            "componentType" : 5123,
            "count" : 594,
            "type" : "SCALAR"
        },
        {
            "bufferView" : 4,
            "componentType" : 5126,
            "count" : 1312,
            "max" : [
                0.48750001192092896,
                0.9599146842956543,
                -0.07500000298023224
            ],
            "min" : [
                -0.48750001192092896,
                -0.9599146842956543,
                -0.5494081974029541
            ],
            "type" : "VEC3"
        },
        {
            "bufferView" : 5,
            "componentType" : 5126,
            "count" : 1312,
            "type" : "VEC3"
        },
        {
            "bufferView" : 6,
            "componentType" : 5126,
            "count" : 1312,
            "type" : "VEC2"
        },
        {
            "bufferView" : 7,
            "componentType" : 5123,
            "count" : 2574,
            "type" : "SCALAR"
        },
        {
            "bufferView" : 8,
            "componentType" : 5126,
            "count" : 48,
            "max" : [
                0.1889999955892563,
                0.07265646755695343,
                -0.36640819907188416
            ],
            "min" : [
                -0.1889999955892563,
                -0.1523434966802597,
                -0.47440820932388306
            ],
            "type" : "VEC3"
        },
        {
            "bufferView" : 9,
            "componentType" : 5126,
            "count" : 48,
            "type" : "VEC3"
        },
        {
            "bufferView" : 10,
            "componentType" : 5126,
            "count" : 48,
            "type" : "VEC2"
        },
        {
            "bufferView" : 11,
            "componentType" : 5123,
            "count" : 72,
            "type" : "SCALAR"
        },
        {
            "bufferView" : 12,
            "componentType" : 5126,
            "count" : 12,
            "max" : [
                0.4124999940395355,
                0.04911679029464722,
                -0.2914082109928131
            ],
            "min" : [
                -0.4124999940395355,
                0.04911679029464722,
                -0.36640819907188416
            ],
            "type" : "VEC3"
        },
        {
            "bufferView" : 13,
            "componentType" : 5126,
            "count" : 12,
            "type" : "VEC3"
        },
        {
            "bufferView" : 14,
            "componentType" : 5126,
            "count" : 12,
            "type" : "VEC2"
        },
        {
            "bufferView" : 15,
            "componentType" : 5123,
            "count" : 12,
            "type" : "SCALAR"
        },
        {
            "bufferView" : 16,
            "componentType" : 5126,
            "count" : 856,
            "max" : [
                0.48750001192092896,
                0.7049146890640259,
                0
            ],
            "min" : [
                -0.48750001192092896,
                -0.8850852847099304,
                -0.44999998807907104
            ],
            "type" : "VEC3"
        },
        {
            "bufferView" : 17,
            "componentType" : 5126,
            "count" : 856,
            "type" : "VEC3"
        },
        {
            "bufferView" : 18,
            "componentType" : 5126,
            "count" : 856,
            "type" : "VEC2"
        },
        {
            "bufferView" : 19,
            "componentType" : 5123,
            "count" : 1416,
            "type" : "SCALAR"
        },
        {
            "bufferView" : 20,
            "componentType" : 5126,
            "count" : 192,
            "max" : [
                0.48750001192092896,
                0.6711645722389221,
                -0.033750008791685104
            ],
            "min" : [
                -0.48750001192092896,
                -0.8513352870941162,
                -0.41624999046325684
            ],
            "type" : "VEC3"
        },
        {
            "bufferView" : 21,
            "componentType" : 5126,
            "count" : 192,
            "type" : "VEC3"
        },
        {
            "bufferView" : 22,
            "componentType" : 5126,
            "count" : 192,
            "type" : "VEC2"
        },
        {
            "bufferView" : 23,
            "componentType" : 5123,
            "count" : 576,
            "type" : "SCALAR"
        }
    ],
    "bufferViews" : [
        {
            "buffer" : 0,
            "byteLength" : 3168,
            "byteOffset" : 0
        },
        {
            "buffer" : 0,
            "byteLength" : 3168,
            "byteOffset" : 3168
        },
        {
            "buffer" : 0,
            "byteLength" : 2112,
            "byteOffset" : 6336
        },
        {
            "buffer" : 0,
            "byteLength" : 1188,
            "byteOffset" : 8448
        },
        {
            "buffer" : 0,
            "byteLength" : 15744,
            "byteOffset" : 9636
        },
        {
            "buffer" : 0,
            "byteLength" : 15744,
            "byteOffset" : 25380
        },
        {
            "buffer" : 0,
            "byteLength" : 10496,
            "byteOffset" : 41124
        },
        {
            "buffer" : 0,
            "byteLength" : 5148,
            "byteOffset" : 51620
        },
        {
            "buffer" : 0,
            "byteLength" : 576,
            "byteOffset" : 56768
        },
        {
            "buffer" : 0,
            "byteLength" : 576,
            "byteOffset" : 57344
        },
        {
            "buffer" : 0,
            "byteLength" : 384,
            "byteOffset" : 57920
        },
        {
            "buffer" : 0,
            "byteLength" : 144,
            "byteOffset" : 58304
        },
        {
            "buffer" : 0,
            "byteLength" : 144,
            "byteOffset" : 58448
        },
        {
            "buffer" : 0,
            "byteLength" : 144,
            "byteOffset" : 58592
        },
        {
            "buffer" : 0,
            "byteLength" : 96,
            "byteOffset" : 58736
        },
        {
            "buffer" : 0,
            "byteLength" : 24,
            "byteOffset" : 58832
        },
        {
            "buffer" : 0,
            "byteLength" : 10272,
            "byteOffset" : 58856
        },
        {
            "buffer" : 0,
            "byteLength" : 10272,
            "byteOffset" : 69128
        },
        {
            "buffer" : 0,
            "byteLength" : 6848,
            "byteOffset" : 79400
        },
        {
            "buffer" : 0,
            "byteLength" : 2832,
            "byteOffset" : 86248
        },
        {
            "buffer" : 0,
            "byteLength" : 2304,
            "byteOffset" : 89080
        },
        {
            "buffer" : 0,
            "byteLength" : 2304,
            "byteOffset" : 91384
        },
        {
            "buffer" : 0,
            "byteLength" : 1536,
            "byteOffset" : 93688
        },
        {
            "buffer" : 0,
            "byteLength" : 1152,
            "byteOffset" : 95224
        }
    ],
    "buffers" : [
        {
            "byteLength" : 96376,
            "uri" : "data:application/octet-stream;base64,"
        }
    ]
}
