{
    "asset" : {
        "generator" : "Khronos glTF Blender I/O v3.2.43",
        "version" : "2.0"
    },
    "scene" : 0,
    "scenes" : [
        {
            "name" : "Scene",
            "nodes" : [
                0
            ]
        }
    ],
    "nodes" : [
        {
            "mesh" : 0,
            "name" : "garbageTruck",
            "rotation" : [
                0.7071068286895752,
                0,
                0,
                0.7071067094802856
            ]
        }
    ],
    "materials" : [
        {
            "doubleSided" : true,
            "name" : "paintGreen.002",
            "pbrMetallicRoughness" : {
                "baseColorFactor" : [
                    0.2392157018184662,
                    0.8470587730407715,
                    0.5058823823928833,
                    1
                ],
                "metallicFactor" : 0
            }
        },
        {
            "doubleSided" : true,
            "name" : "plastic.005",
            "pbrMetallicRoughness" : {
                "baseColorFactor" : [
                    0.3764705955982208,
                    0.3764705955982208,
                    0.3764705955982208,
                    1
                ],
                "metallicFactor" : 0
            }
        },
        {
            "doubleSided" : true,
            "name" : "_defaultMat.005",
            "pbrMetallicRoughness" : {
                "metallicFactor" : 0
            }
        },
        {
            "doubleSided" : true,
            "name" : "lightFront.005",
            "pbrMetallicRoughness" : {
                "baseColorFactor" : [
                    1,
                    0.9762833118438721,
                    0.9292452931404114,
                    1
                ],
                "metallicFactor" : 0
            }
        },
        {
            "doubleSided" : true,
            "name" : "paintWhite.003",
            "pbrMetallicRoughness" : {
                "baseColorFactor" : [
                    0.8980392217636108,
                    0.9058824181556702,
                    0.9686275124549866,
                    1
                ],
                "metallicFactor" : 0
            }
        },
        {
            "doubleSided" : true,
            "name" : "window.005",
            "pbrMetallicRoughness" : {
                "baseColorFactor" : [
                    0.9372549057006836,
                    0.9372549057006836,
                    0.9372549057006836,
                    1
                ],
                "metallicFactor" : 0
            }
        },
        {
            "doubleSided" : true,
            "name" : "lightBack.003",
            "pbrMetallicRoughness" : {
                "baseColorFactor" : [
                    1,
                    0.3490195870399475,
                    0.22745099663734436,
                    1
                ],
                "metallicFactor" : 0
            }
        },
        {
            "doubleSided" : true,
            "name" : "carTire.005",
            "pbrMetallicRoughness" : {
                "baseColorFactor" : [
                    0.2392157018184662,
                    0.2392157018184662,
                    0.2392157018184662,
                    1
                ],
                "metallicFactor" : 0
            }
        }
    ],
    "meshes" : [
        {
            "name" : "garbageTruck",
            "primitives" : [
                {
                    "attributes" : {
                        "POSITION" : 0,
                        "NORMAL" : 1,
                        "TEXCOORD_0" : 2
                    },
                    "indices" : 3,
                    "material" : 0
                },
                {
                    "attributes" : {
                        "POSITION" : 4,
                        "NORMAL" : 5,
                        "TEXCOORD_0" : 6
                    },
                    "indices" : 7,
                    "material" : 1
                },
                {
                    "attributes" : {
                        "POSITION" : 8,
                        "NORMAL" : 9,
                        "TEXCOORD_0" : 10
                    },
                    "indices" : 11,
                    "material" : 2
                },
                {
                    "attributes" : {
                        "POSITION" : 12,
                        "NORMAL" : 13,
                        "TEXCOORD_0" : 14
                    },
                    "indices" : 15,
                    "material" : 3
                },
                {
                    "attributes" : {
                        "POSITION" : 16,
                        "NORMAL" : 17,
                        "TEXCOORD_0" : 18
                    },
                    "indices" : 19,
                    "material" : 4
                },
                {
                    "attributes" : {
                        "POSITION" : 20,
                        "NORMAL" : 21,
                        "TEXCOORD_0" : 22
                    },
                    "indices" : 23,
                    "material" : 5
                },
                {
                    "attributes" : {
                        "POSITION" : 24,
                        "NORMAL" : 25,
                        "TEXCOORD_0" : 26
                    },
                    "indices" : 27,
                    "material" : 6
                },
                {
                    "attributes" : {
                        "POSITION" : 28,
                        "NORMAL" : 29,
                        "TEXCOORD_0" : 30
                    },
                    "indices" : 31,
                    "material" : 7
                }
            ]
        }
    ],
    "accessors" : [
        {
            "bufferView" : 0,
            "componentType" : 5126,
            "count" : 228,
            "max" : [
                0.6000000238418579,
                1.2031680345535278,
                -0.22499999403953552
            ],
            "min" : [
                -0.6000000238418579,
                -1.125,
                -1.2000000476837158
            ],
            "type" : "VEC3"
        },
        {
            "bufferView" : 1,
            "componentType" : 5126,
            "count" : 228,
            "type" : "VEC3"
        },
        {
            "bufferView" : 2,
            "componentType" : 5126,
            "count" : 228,
            "type" : "VEC2"
        },
        {
            "bufferView" : 3,
            "componentType" : 5123,
            "count" : 522,
            "type" : "SCALAR"
        },
        {
            "bufferView" : 4,
            "componentType" : 5126,
            "count" : 2044,
            "max" : [
                0.6000000238418579,
                1.274999976158142,
                -0.15000000596046448
            ],
            "min" : [
                -0.6000000238418579,
                -1.274999976158142,
                -1.0515040159225464
            ],
            "type" : "VEC3"
        },
        {
            "bufferView" : 5,
            "componentType" : 5126,
            "count" : 2044,
            "type" : "VEC3"
        },
        {
            "bufferView" : 6,
            "componentType" : 5126,
            "count" : 2044,
            "type" : "VEC2"
        },
        {
            "bufferView" : 7,
            "componentType" : 5123,
            "count" : 3882,
            "type" : "SCALAR"
        },
        {
            "bufferView" : 8,
            "componentType" : 5126,
            "count" : 1279,
            "max" : [
                0.5625,
                0.9482458829879761,
                -0.10925409942865372
            ],
            "min" : [
                -0.5625,
                -1.274999976158142,
                -0.675000011920929
            ],
            "type" : "VEC3"
        },
        {
            "bufferView" : 9,
            "componentType" : 5126,
            "count" : 1279,
            "type" : "VEC3"
        },
        {
            "bufferView" : 10,
            "componentType" : 5126,
            "count" : 1279,
            "type" : "VEC2"
        },
        {
            "bufferView" : 11,
            "componentType" : 5123,
            "count" : 1770,
            "type" : "SCALAR"
        },
        {
            "bufferView" : 12,
            "componentType" : 5126,
            "count" : 8,
            "max" : [
                0.4124999940395355,
                1.2000000476837158,
                -0.44999998807907104
            ],
            "min" : [
                -0.4124999940395355,
                1.2000000476837158,
                -0.5249999761581421
            ],
            "type" : "VEC3"
        },
        {
            "bufferView" : 13,
            "componentType" : 5126,
            "count" : 8,
            "type" : "VEC3"
        },
        {
            "bufferView" : 14,
            "componentType" : 5126,
            "count" : 8,
            "type" : "VEC2"
        },
        {
            "bufferView" : 15,
            "componentType" : 5123,
            "count" : 12,
            "type" : "SCALAR"
        },
        {
            "bufferView" : 16,
            "componentType" : 5126,
            "count" : 42,
            "max" : [
                0.4124999940395355,
                1.2000000476837158,
                -0.44999998807907104
            ],
            "min" : [
                -0.4124999940395355,
                0.4101910889148712,
                -0.6000000238418579
            ],
            "type" : "VEC3"
        },
        {
            "bufferView" : 17,
            "componentType" : 5126,
            "count" : 42,
            "type" : "VEC3"
        },
        {
            "bufferView" : 18,
            "componentType" : 5126,
            "count" : 42,
            "type" : "VEC2"
        },
        {
            "bufferView" : 19,
            "componentType" : 5123,
            "count" : 108,
            "type" : "SCALAR"
        },
        {
            "bufferView" : 20,
            "componentType" : 5126,
            "count" : 20,
            "max" : [
                0.4124999940395355,
                0.8999999761581421,
                -0.6000000238418579
            ],
            "min" : [
                -0.4124999940395355,
                0.4101910889148712,
                -0.9053642749786377
            ],
            "type" : "VEC3"
        },
        {
            "bufferView" : 21,
            "componentType" : 5126,
            "count" : 20,
            "type" : "VEC3"
        },
        {
            "bufferView" : 22,
            "componentType" : 5126,
            "count" : 20,
            "type" : "VEC2"
        },
        {
            "bufferView" : 23,
            "componentType" : 5123,
            "count" : 42,
            "type" : "SCALAR"
        },
        {
            "bufferView" : 24,
            "componentType" : 5126,
            "count" : 8,
            "max" : [
                0.3375000059604645,
                -1.125,
                -0.30000001192092896
            ],
            "min" : [
                -0.3375000059604645,
                -1.125,
                -0.44999998807907104
            ],
            "type" : "VEC3"
        },
        {
            "bufferView" : 25,
            "componentType" : 5126,
            "count" : 8,
            "type" : "VEC3"
        },
        {
            "bufferView" : 26,
            "componentType" : 5126,
            "count" : 8,
            "type" : "VEC2"
        },
        {
            "bufferView" : 27,
            "componentType" : 5123,
            "count" : 12,
            "type" : "SCALAR"
        },
        {
            "bufferView" : 28,
            "componentType" : 5126,
            "count" : 1056,
            "max" : [
                0.48750001192092896,
                1.0575000047683716,
                0
            ],
            "min" : [
                -0.48750001192092896,
                -0.6075000166893005,
                -0.44999998807907104
            ],
            "type" : "VEC3"
        },
        {
            "bufferView" : 29,
            "componentType" : 5126,
            "count" : 1056,
            "type" : "VEC3"
        },
        {
            "bufferView" : 30,
            "componentType" : 5126,
            "count" : 1056,
            "type" : "VEC2"
        },
        {
            "bufferView" : 31,
            "componentType" : 5123,
            "count" : 1992,
            "type" : "SCALAR"
        }
    ],
    "bufferViews" : [
        {
            "buffer" : 0,
            "byteLength" : 2736,
            "byteOffset" : 0
        },
        {
            "buffer" : 0,
            "byteLength" : 2736,
            "byteOffset" : 2736
        },
        {
            "buffer" : 0,
            "byteLength" : 1824,
            "byteOffset" : 5472
        },
        {
            "buffer" : 0,
            "byteLength" : 1044,
            "byteOffset" : 7296
        },
        {
            "buffer" : 0,
            "byteLength" : 24528,
            "byteOffset" : 8340
        },
        {
            "buffer" : 0,
            "byteLength" : 24528,
            "byteOffset" : 32868
        },
        {
            "buffer" : 0,
            "byteLength" : 16352,
            "byteOffset" : 57396
        },
        {
            "buffer" : 0,
            "byteLength" : 7764,
            "byteOffset" : 73748
        },
        {
            "buffer" : 0,
            "byteLength" : 15348,
            "byteOffset" : 81512
        },
        {
            "buffer" : 0,
            "byteLength" : 15348,
            "byteOffset" : 96860
        },
        {
            "buffer" : 0,
            "byteLength" : 10232,
            "byteOffset" : 112208
        },
        {
            "buffer" : 0,
            "byteLength" : 3540,
            "byteOffset" : 122440
        },
        {
            "buffer" : 0,
            "byteLength" : 96,
            "byteOffset" : 125980
        },
        {
            "buffer" : 0,
            "byteLength" : 96,
            "byteOffset" : 126076
        },
        {
            "buffer" : 0,
            "byteLength" : 64,
            "byteOffset" : 126172
        },
        {
            "buffer" : 0,
            "byteLength" : 24,
            "byteOffset" : 126236
        },
        {
            "buffer" : 0,
            "byteLength" : 504,
            "byteOffset" : 126260
        },
        {
            "buffer" : 0,
            "byteLength" : 504,
            "byteOffset" : 126764
        },
        {
            "buffer" : 0,
            "byteLength" : 336,
            "byteOffset" : 127268
        },
        {
            "buffer" : 0,
            "byteLength" : 216,
            "byteOffset" : 127604
        },
        {
            "buffer" : 0,
            "byteLength" : 240,
            "byteOffset" : 127820
        },
        {
            "buffer" : 0,
            "byteLength" : 240,
            "byteOffset" : 128060
        },
        {
            "buffer" : 0,
            "byteLength" : 160,
            "byteOffset" : 128300
        },
        {
            "buffer" : 0,
            "byteLength" : 84,
            "byteOffset" : 128460
        },
        {
            "buffer" : 0,
            "byteLength" : 96,
            "byteOffset" : 128544
        },
        {
            "buffer" : 0,
            "byteLength" : 96,
            "byteOffset" : 128640
        },
        {
            "buffer" : 0,
            "byteLength" : 64,
            "byteOffset" : 128736
        },
        {
            "buffer" : 0,
            "byteLength" : 24,
            "byteOffset" : 128800
        },
        {
            "buffer" : 0,
            "byteLength" : 12672,
            "byteOffset" : 128824
        },
        {
            "buffer" : 0,
            "byteLength" : 12672,
            "byteOffset" : 141496
        },
        {
            "buffer" : 0,
            "byteLength" : 8448,
            "byteOffset" : 154168
        },
        {
            "buffer" : 0,
            "byteLength" : 3984,
            "byteOffset" : 162616
        }
    ],
    "buffers" : [
        {
            "byteLength" : 166600,
            "uri" : "data:application/octet-stream;base64,"
        }
    ]
}
