{
    "asset" : {
        "generator" : "Khronos glTF Blender I/O v3.2.43",
        "version" : "2.0"
    },
    "scene" : 0,
    "scenes" : [
        {
            "name" : "Scene",
            "nodes" : [
                0
            ]
        }
    ],
    "nodes" : [
        {
            "mesh" : 0,
            "name" : "suv",
            "rotation" : [
                0.7071068286895752,
                0,
                0,
                0.7071067094802856
            ]
        }
    ],
    "materials" : [
        {
            "doubleSided" : true,
            "name" : "plastic.012",
            "pbrMetallicRoughness" : {
                "baseColorFactor" : [
                    0.3764705955982208,
                    0.3764705955982208,
                    0.3764705955982208,
                    1
                ],
                "metallicFactor" : 0
            }
        },
        {
            "doubleSided" : true,
            "name" : "paintGreen.004",
            "pbrMetallicRoughness" : {
                "baseColorFactor" : [
                    0.2392157018184662,
                    0.8470587730407715,
                    0.5058823823928833,
                    1
                ],
                "metallicFactor" : 0
            }
        },
        {
            "doubleSided" : true,
            "name" : "_defaultMat.012",
            "pbrMetallicRoughness" : {
                "metallicFactor" : 0
            }
        },
        {
            "doubleSided" : true,
            "name" : "window.012",
            "pbrMetallicRoughness" : {
                "baseColorFactor" : [
                    0.9372549057006836,
                    0.9372549057006836,
                    0.9372549057006836,
                    1
                ],
                "metallicFactor" : 0
            }
        },
        {
            "doubleSided" : true,
            "name" : "lightBack.008",
            "pbrMetallicRoughness" : {
                "baseColorFactor" : [
                    1,
                    0.3490195870399475,
                    0.22745099663734436,
                    1
                ],
                "metallicFactor" : 0
            }
        },
        {
            "doubleSided" : true,
            "name" : "lightFront.010",
            "pbrMetallicRoughness" : {
                "baseColorFactor" : [
                    1,
                    0.9762833118438721,
                    0.9292452931404114,
                    1
                ],
                "metallicFactor" : 0
            }
        },
        {
            "doubleSided" : true,
            "name" : "carTire.012",
            "pbrMetallicRoughness" : {
                "baseColorFactor" : [
                    0.2392157018184662,
                    0.2392157018184662,
                    0.2392157018184662,
                    1
                ],
                "metallicFactor" : 0
            }
        }
    ],
    "meshes" : [
        {
            "name" : "suv",
            "primitives" : [
                {
                    "attributes" : {
                        "POSITION" : 0,
                        "NORMAL" : 1,
                        "TEXCOORD_0" : 2
                    },
                    "indices" : 3,
                    "material" : 0
                },
                {
                    "attributes" : {
                        "POSITION" : 4,
                        "NORMAL" : 5,
                        "TEXCOORD_0" : 6
                    },
                    "indices" : 7,
                    "material" : 1
                },
                {
                    "attributes" : {
                        "POSITION" : 8,
                        "NORMAL" : 9,
                        "TEXCOORD_0" : 10
                    },
                    "indices" : 11,
                    "material" : 2
                },
                {
                    "attributes" : {
                        "POSITION" : 12,
                        "NORMAL" : 13,
                        "TEXCOORD_0" : 14
                    },
                    "indices" : 15,
                    "material" : 3
                },
                {
                    "attributes" : {
                        "POSITION" : 16,
                        "NORMAL" : 17,
                        "TEXCOORD_0" : 18
                    },
                    "indices" : 19,
                    "material" : 4
                },
                {
                    "attributes" : {
                        "POSITION" : 20,
                        "NORMAL" : 21,
                        "TEXCOORD_0" : 22
                    },
                    "indices" : 23,
                    "material" : 5
                },
                {
                    "attributes" : {
                        "POSITION" : 24,
                        "NORMAL" : 25,
                        "TEXCOORD_0" : 26
                    },
                    "indices" : 27,
                    "material" : 6
                }
            ]
        }
    ],
    "accessors" : [
        {
            "bufferView" : 0,
            "componentType" : 5126,
            "count" : 1024,
            "max" : [
                0.48750001192092896,
                1.0125000476837158,
                -0.15000000596046448
            ],
            "min" : [
                -0.48750001192092896,
                -0.862500011920929,
                -0.9750000238418579
            ],
            "type" : "VEC3"
        },
        {
            "bufferView" : 1,
            "componentType" : 5126,
            "count" : 1024,
            "type" : "VEC3"
        },
        {
            "bufferView" : 2,
            "componentType" : 5126,
            "count" : 1024,
            "type" : "VEC2"
        },
        {
            "bufferView" : 3,
            "componentType" : 5123,
            "count" : 2004,
            "type" : "SCALAR"
        },
        {
            "bufferView" : 4,
            "componentType" : 5126,
            "count" : 210,
            "max" : [
                0.5625,
                0.9375,
                -0.375
            ],
            "min" : [
                -0.5625,
                -0.862500011920929,
                -0.9014564752578735
            ],
            "type" : "VEC3"
        },
        {
            "bufferView" : 5,
            "componentType" : 5126,
            "count" : 210,
            "type" : "VEC3"
        },
        {
            "bufferView" : 6,
            "componentType" : 5126,
            "count" : 210,
            "type" : "VEC2"
        },
        {
            "bufferView" : 7,
            "componentType" : 5123,
            "count" : 516,
            "type" : "SCALAR"
        },
        {
            "bufferView" : 8,
            "componentType" : 5126,
            "count" : 1120,
            "max" : [
                0.5625,
                0.7060261964797974,
                -0.08897385746240616
            ],
            "min" : [
                -0.5625,
                -0.5560261011123657,
                -0.675000011920929
            ],
            "type" : "VEC3"
        },
        {
            "bufferView" : 9,
            "componentType" : 5126,
            "count" : 1120,
            "type" : "VEC3"
        },
        {
            "bufferView" : 10,
            "componentType" : 5126,
            "count" : 1120,
            "type" : "VEC2"
        },
        {
            "bufferView" : 11,
            "componentType" : 5123,
            "count" : 1446,
            "type" : "SCALAR"
        },
        {
            "bufferView" : 12,
            "componentType" : 5126,
            "count" : 18,
            "max" : [
                0.4124999940395355,
                0.48750001192092896,
                -0.6000000238418579
            ],
            "min" : [
                -0.4124999940395355,
                -0.7875000238418579,
                -0.9053642749786377
            ],
            "type" : "VEC3"
        },
        {
            "bufferView" : 13,
            "componentType" : 5126,
            "count" : 18,
            "type" : "VEC3"
        },
        {
            "bufferView" : 14,
            "componentType" : 5126,
            "count" : 18,
            "type" : "VEC2"
        },
        {
            "bufferView" : 15,
            "componentType" : 5123,
            "count" : 30,
            "type" : "SCALAR"
        },
        {
            "bufferView" : 16,
            "componentType" : 5126,
            "count" : 8,
            "max" : [
                0.4124999940395355,
                -0.862500011920929,
                -0.375
            ],
            "min" : [
                -0.4124999940395355,
                -0.862500011920929,
                -0.5249999761581421
            ],
            "type" : "VEC3"
        },
        {
            "bufferView" : 17,
            "componentType" : 5126,
            "count" : 8,
            "type" : "VEC3"
        },
        {
            "bufferView" : 18,
            "componentType" : 5126,
            "count" : 8,
            "type" : "VEC2"
        },
        {
            "bufferView" : 19,
            "componentType" : 5123,
            "count" : 12,
            "type" : "SCALAR"
        },
        {
            "bufferView" : 20,
            "componentType" : 5126,
            "count" : 48,
            "max" : [
                0.3843750059604645,
                0.9375,
                -0.4124999940395355
            ],
            "min" : [
                -0.3843750059604645,
                0.9375,
                -0.5625
            ],
            "type" : "VEC3"
        },
        {
            "bufferView" : 21,
            "componentType" : 5126,
            "count" : 48,
            "type" : "VEC3"
        },
        {
            "bufferView" : 22,
            "componentType" : 5126,
            "count" : 48,
            "type" : "VEC2"
        },
        {
            "bufferView" : 23,
            "componentType" : 5123,
            "count" : 132,
            "type" : "SCALAR"
        },
        {
            "bufferView" : 24,
            "componentType" : 5126,
            "count" : 1048,
            "max" : [
                0.48750001192092896,
                0.7950000166893005,
                0
            ],
            "min" : [
                -0.48750001192092896,
                -0.6449999809265137,
                -0.44999998807907104
            ],
            "type" : "VEC3"
        },
        {
            "bufferView" : 25,
            "componentType" : 5126,
            "count" : 1048,
            "type" : "VEC3"
        },
        {
            "bufferView" : 26,
            "componentType" : 5126,
            "count" : 1048,
            "type" : "VEC2"
        },
        {
            "bufferView" : 27,
            "componentType" : 5123,
            "count" : 1992,
            "type" : "SCALAR"
        }
    ],
    "bufferViews" : [
        {
            "buffer" : 0,
            "byteLength" : 12288,
            "byteOffset" : 0
        },
        {
            "buffer" : 0,
            "byteLength" : 12288,
            "byteOffset" : 12288
        },
        {
            "buffer" : 0,
            "byteLength" : 8192,
            "byteOffset" : 24576
        },
        {
            "buffer" : 0,
            "byteLength" : 4008,
            "byteOffset" : 32768
        },
        {
            "buffer" : 0,
            "byteLength" : 2520,
            "byteOffset" : 36776
        },
        {
            "buffer" : 0,
            "byteLength" : 2520,
            "byteOffset" : 39296
        },
        {
            "buffer" : 0,
            "byteLength" : 1680,
            "byteOffset" : 41816
        },
        {
            "buffer" : 0,
            "byteLength" : 1032,
            "byteOffset" : 43496
        },
        {
            "buffer" : 0,
            "byteLength" : 13440,
            "byteOffset" : 44528
        },
        {
            "buffer" : 0,
            "byteLength" : 13440,
            "byteOffset" : 57968
        },
        {
            "buffer" : 0,
            "byteLength" : 8960,
            "byteOffset" : 71408
        },
        {
            "buffer" : 0,
            "byteLength" : 2892,
            "byteOffset" : 80368
        },
        {
            "buffer" : 0,
            "byteLength" : 216,
            "byteOffset" : 83260
        },
        {
            "buffer" : 0,
            "byteLength" : 216,
            "byteOffset" : 83476
        },
        {
            "buffer" : 0,
            "byteLength" : 144,
            "byteOffset" : 83692
        },
        {
            "buffer" : 0,
            "byteLength" : 60,
            "byteOffset" : 83836
        },
        {
            "buffer" : 0,
            "byteLength" : 96,
            "byteOffset" : 83896
        },
        {
            "buffer" : 0,
            "byteLength" : 96,
            "byteOffset" : 83992
        },
        {
            "buffer" : 0,
            "byteLength" : 64,
            "byteOffset" : 84088
        },
        {
            "buffer" : 0,
            "byteLength" : 24,
            "byteOffset" : 84152
        },
        {
            "buffer" : 0,
            "byteLength" : 576,
            "byteOffset" : 84176
        },
        {
            "buffer" : 0,
            "byteLength" : 576,
            "byteOffset" : 84752
        },
        {
            "buffer" : 0,
            "byteLength" : 384,
            "byteOffset" : 85328
        },
        {
            "buffer" : 0,
            "byteLength" : 264,
            "byteOffset" : 85712
        },
        {
            "buffer" : 0,
            "byteLength" : 12576,
            "byteOffset" : 85976
        },
        {
            "buffer" : 0,
            "byteLength" : 12576,
            "byteOffset" : 98552
        },
        {
            "buffer" : 0,
            "byteLength" : 8384,
            "byteOffset" : 111128
        },
        {
            "buffer" : 0,
            "byteLength" : 3984,
            "byteOffset" : 119512
        }
    ],
    "buffers" : [
        {
            "byteLength" : 123496,
            "uri" : "data:application/octet-stream;base64,"
        }
    ]
}
