{
    "asset" : {
        "generator" : "Khronos glTF Blender I/O v3.2.43",
        "version" : "2.0"
    },
    "scene" : 0,
    "scenes" : [
        {
            "name" : "Scene",
            "nodes" : [
                0
            ]
        }
    ],
    "nodes" : [
        {
            "mesh" : 0,
            "name" : "truckFlat",
            "rotation" : [
                0.7071068286895752,
                0,
                0,
                0.7071067094802856
            ]
        }
    ],
    "materials" : [
        {
            "doubleSided" : true,
            "name" : "plastic.018",
            "pbrMetallicRoughness" : {
                "baseColorFactor" : [
                    0.3764705955982208,
                    0.3764705955982208,
                    0.3764705955982208,
                    1
                ],
                "metallicFactor" : 0
            }
        },
        {
            "doubleSided" : true,
            "name" : "window.018",
            "pbrMetallicRoughness" : {
                "baseColorFactor" : [
                    0.9372549057006836,
                    0.9372549057006836,
                    0.9372549057006836,
                    1
                ],
                "metallicFactor" : 0
            }
        },
        {
            "doubleSided" : true,
            "name" : "lightBack.012",
            "pbrMetallicRoughness" : {
                "baseColorFactor" : [
                    1,
                    0.3490195870399475,
                    0.22745099663734436,
                    1
                ],
                "metallicFactor" : 0
            }
        },
        {
            "doubleSided" : true,
            "name" : "paintWhite.006",
            "pbrMetallicRoughness" : {
                "baseColorFactor" : [
                    0.8980392217636108,
                    0.9058824181556702,
                    0.9686275124549866,
                    1
                ],
                "metallicFactor" : 0
            }
        },
        {
            "doubleSided" : true,
            "name" : "lightFront.016",
            "pbrMetallicRoughness" : {
                "baseColorFactor" : [
                    1,
                    0.9762833118438721,
                    0.9292452931404114,
                    1
                ],
                "metallicFactor" : 0
            }
        },
        {
            "doubleSided" : true,
            "name" : "_defaultMat.018",
            "pbrMetallicRoughness" : {
                "metallicFactor" : 0
            }
        },
        {
            "doubleSided" : true,
            "name" : "carTire.018",
            "pbrMetallicRoughness" : {
                "baseColorFactor" : [
                    0.2392157018184662,
                    0.2392157018184662,
                    0.2392157018184662,
                    1
                ],
                "metallicFactor" : 0
            }
        }
    ],
    "meshes" : [
        {
            "name" : "truckFlat",
            "primitives" : [
                {
                    "attributes" : {
                        "POSITION" : 0,
                        "NORMAL" : 1,
                        "TEXCOORD_0" : 2
                    },
                    "indices" : 3,
                    "material" : 0
                },
                {
                    "attributes" : {
                        "POSITION" : 4,
                        "NORMAL" : 5,
                        "TEXCOORD_0" : 6
                    },
                    "indices" : 7,
                    "material" : 1
                },
                {
                    "attributes" : {
                        "POSITION" : 8,
                        "NORMAL" : 9,
                        "TEXCOORD_0" : 10
                    },
                    "indices" : 11,
                    "material" : 2
                },
                {
                    "attributes" : {
                        "POSITION" : 12,
                        "NORMAL" : 13,
                        "TEXCOORD_0" : 14
                    },
                    "indices" : 15,
                    "material" : 3
                },
                {
                    "attributes" : {
                        "POSITION" : 16,
                        "NORMAL" : 17,
                        "TEXCOORD_0" : 18
                    },
                    "indices" : 19,
                    "material" : 4
                },
                {
                    "attributes" : {
                        "POSITION" : 20,
                        "NORMAL" : 21,
                        "TEXCOORD_0" : 22
                    },
                    "indices" : 23,
                    "material" : 5
                },
                {
                    "attributes" : {
                        "POSITION" : 24,
                        "NORMAL" : 25,
                        "TEXCOORD_0" : 26
                    },
                    "indices" : 27,
                    "material" : 6
                }
            ]
        }
    ],
    "accessors" : [
        {
            "bufferView" : 0,
            "componentType" : 5126,
            "count" : 1492,
            "max" : [
                0.48750001192092896,
                1.0294179916381836,
                -0.15000000596046448
            ],
            "min" : [
                -0.48750001192092896,
                -0.9919177889823914,
                -0.6000000238418579
            ],
            "type" : "VEC3"
        },
        {
            "bufferView" : 1,
            "componentType" : 5126,
            "count" : 1492,
            "type" : "VEC3"
        },
        {
            "bufferView" : 2,
            "componentType" : 5126,
            "count" : 1492,
            "type" : "VEC2"
        },
        {
            "bufferView" : 3,
            "componentType" : 5123,
            "count" : 2820,
            "type" : "SCALAR"
        },
        {
            "bufferView" : 4,
            "componentType" : 5126,
            "count" : 12,
            "max" : [
                0.4124999940395355,
                0.7294179201126099,
                -0.6000000238418579
            ],
            "min" : [
                -0.4124999940395355,
                0.21174639463424683,
                -0.9164348244667053
            ],
            "type" : "VEC3"
        },
        {
            "bufferView" : 5,
            "componentType" : 5126,
            "count" : 12,
            "type" : "VEC3"
        },
        {
            "bufferView" : 6,
            "componentType" : 5126,
            "count" : 12,
            "type" : "VEC2"
        },
        {
            "bufferView" : 7,
            "componentType" : 5123,
            "count" : 18,
            "type" : "SCALAR"
        },
        {
            "bufferView" : 8,
            "componentType" : 5126,
            "count" : 8,
            "max" : [
                0.4124999940395355,
                -0.9919177889823914,
                -0.44999998807907104
            ],
            "min" : [
                -0.4124999940395355,
                -0.9919177889823914,
                -0.5249999761581421
            ],
            "type" : "VEC3"
        },
        {
            "bufferView" : 9,
            "componentType" : 5126,
            "count" : 8,
            "type" : "VEC3"
        },
        {
            "bufferView" : 10,
            "componentType" : 5126,
            "count" : 8,
            "type" : "VEC2"
        },
        {
            "bufferView" : 11,
            "componentType" : 5123,
            "count" : 12,
            "type" : "SCALAR"
        },
        {
            "bufferView" : 12,
            "componentType" : 5126,
            "count" : 219,
            "max" : [
                0.5625,
                0.9544178247451782,
                -0.375
            ],
            "min" : [
                -0.5625,
                -1.0294179916381836,
                -0.9750000238418579
            ],
            "type" : "VEC3"
        },
        {
            "bufferView" : 13,
            "componentType" : 5126,
            "count" : 219,
            "type" : "VEC3"
        },
        {
            "bufferView" : 14,
            "componentType" : 5126,
            "count" : 219,
            "type" : "VEC2"
        },
        {
            "bufferView" : 15,
            "componentType" : 5123,
            "count" : 471,
            "type" : "SCALAR"
        },
        {
            "bufferView" : 16,
            "componentType" : 5126,
            "count" : 8,
            "max" : [
                0.4124999940395355,
                0.9544178247451782,
                -0.375
            ],
            "min" : [
                -0.4124999940395355,
                0.9544178247451782,
                -0.44999998807907104
            ],
            "type" : "VEC3"
        },
        {
            "bufferView" : 17,
            "componentType" : 5126,
            "count" : 8,
            "type" : "VEC3"
        },
        {
            "bufferView" : 18,
            "componentType" : 5126,
            "count" : 8,
            "type" : "VEC2"
        },
        {
            "bufferView" : 19,
            "componentType" : 5123,
            "count" : 12,
            "type" : "SCALAR"
        },
        {
            "bufferView" : 20,
            "componentType" : 5126,
            "count" : 1286,
            "max" : [
                0.5625,
                0.7294179201126099,
                -0.10925409942865372
            ],
            "min" : [
                -0.5625,
                -0.593828022480011,
                -0.6000000238418579
            ],
            "type" : "VEC3"
        },
        {
            "bufferView" : 21,
            "componentType" : 5126,
            "count" : 1286,
            "type" : "VEC3"
        },
        {
            "bufferView" : 22,
            "componentType" : 5126,
            "count" : 1286,
            "type" : "VEC2"
        },
        {
            "bufferView" : 23,
            "componentType" : 5123,
            "count" : 1782,
            "type" : "SCALAR"
        },
        {
            "bufferView" : 24,
            "componentType" : 5126,
            "count" : 1056,
            "max" : [
                0.48750001192092896,
                0.8119179010391235,
                0
            ],
            "min" : [
                -0.48750001192092896,
                -0.7030820846557617,
                -0.44999998807907104
            ],
            "type" : "VEC3"
        },
        {
            "bufferView" : 25,
            "componentType" : 5126,
            "count" : 1056,
            "type" : "VEC3"
        },
        {
            "bufferView" : 26,
            "componentType" : 5126,
            "count" : 1056,
            "type" : "VEC2"
        },
        {
            "bufferView" : 27,
            "componentType" : 5123,
            "count" : 1992,
            "type" : "SCALAR"
        }
    ],
    "bufferViews" : [
        {
            "buffer" : 0,
            "byteLength" : 17904,
            "byteOffset" : 0
        },
        {
            "buffer" : 0,
            "byteLength" : 17904,
            "byteOffset" : 17904
        },
        {
            "buffer" : 0,
            "byteLength" : 11936,
            "byteOffset" : 35808
        },
        {
            "buffer" : 0,
            "byteLength" : 5640,
            "byteOffset" : 47744
        },
        {
            "buffer" : 0,
            "byteLength" : 144,
            "byteOffset" : 53384
        },
        {
            "buffer" : 0,
            "byteLength" : 144,
            "byteOffset" : 53528
        },
        {
            "buffer" : 0,
            "byteLength" : 96,
            "byteOffset" : 53672
        },
        {
            "buffer" : 0,
            "byteLength" : 36,
            "byteOffset" : 53768
        },
        {
            "buffer" : 0,
            "byteLength" : 96,
            "byteOffset" : 53804
        },
        {
            "buffer" : 0,
            "byteLength" : 96,
            "byteOffset" : 53900
        },
        {
            "buffer" : 0,
            "byteLength" : 64,
            "byteOffset" : 53996
        },
        {
            "buffer" : 0,
            "byteLength" : 24,
            "byteOffset" : 54060
        },
        {
            "buffer" : 0,
            "byteLength" : 2628,
            "byteOffset" : 54084
        },
        {
            "buffer" : 0,
            "byteLength" : 2628,
            "byteOffset" : 56712
        },
        {
            "buffer" : 0,
            "byteLength" : 1752,
            "byteOffset" : 59340
        },
        {
            "buffer" : 0,
            "byteLength" : 942,
            "byteOffset" : 61092
        },
        {
            "buffer" : 0,
            "byteLength" : 96,
            "byteOffset" : 62036
        },
        {
            "buffer" : 0,
            "byteLength" : 96,
            "byteOffset" : 62132
        },
        {
            "buffer" : 0,
            "byteLength" : 64,
            "byteOffset" : 62228
        },
        {
            "buffer" : 0,
            "byteLength" : 24,
            "byteOffset" : 62292
        },
        {
            "buffer" : 0,
            "byteLength" : 15432,
            "byteOffset" : 62316
        },
        {
            "buffer" : 0,
            "byteLength" : 15432,
            "byteOffset" : 77748
        },
        {
            "buffer" : 0,
            "byteLength" : 10288,
            "byteOffset" : 93180
        },
        {
            "buffer" : 0,
            "byteLength" : 3564,
            "byteOffset" : 103468
        },
        {
            "buffer" : 0,
            "byteLength" : 12672,
            "byteOffset" : 107032
        },
        {
            "buffer" : 0,
            "byteLength" : 12672,
            "byteOffset" : 119704
        },
        {
            "buffer" : 0,
            "byteLength" : 8448,
            "byteOffset" : 132376
        },
        {
            "buffer" : 0,
            "byteLength" : 3984,
            "byteOffset" : 140824
        }
    ],
    "buffers" : [
        {
            "byteLength" : 144808,
            "uri" : "data:application/octet-stream;base64,"
        }
    ]
}
