{
    "asset" : {
        "generator" : "Khronos glTF Blender I/O v3.2.43",
        "version" : "2.0"
    },
    "scene" : 0,
    "scenes" : [
        {
            "name" : "Scene",
            "nodes" : [
                0
            ]
        }
    ],
    "nodes" : [
        {
            "mesh" : 0,
            "name" : "truck",
            "rotation" : [
                0.7071068286895752,
                0,
                0,
                0.7071067094802856
            ]
        }
    ],
    "materials" : [
        {
            "doubleSided" : true,
            "name" : "plastic.020",
            "pbrMetallicRoughness" : {
                "baseColorFactor" : [
                    0.3764705955982208,
                    0.3764705955982208,
                    0.3764705955982208,
                    1
                ],
                "metallicFactor" : 0
            }
        },
        {
            "doubleSided" : true,
            "name" : "paintGreen.005",
            "pbrMetallicRoughness" : {
                "baseColorFactor" : [
                    0.2392157018184662,
                    0.8470587730407715,
                    0.5058823823928833,
                    1
                ],
                "metallicFactor" : 0
            }
        },
        {
            "doubleSided" : true,
            "name" : "lightFront.018",
            "pbrMetallicRoughness" : {
                "baseColorFactor" : [
                    1,
                    0.9762833118438721,
                    0.9292452931404114,
                    1
                ],
                "metallicFactor" : 0
            }
        },
        {
            "doubleSided" : true,
            "name" : "_defaultMat.020",
            "pbrMetallicRoughness" : {
                "metallicFactor" : 0
            }
        },
        {
            "doubleSided" : true,
            "name" : "window.020",
            "pbrMetallicRoughness" : {
                "baseColorFactor" : [
                    0.9372549057006836,
                    0.9372549057006836,
                    0.9372549057006836,
                    1
                ],
                "metallicFactor" : 0
            }
        },
        {
            "doubleSided" : true,
            "name" : "lightBack.014",
            "pbrMetallicRoughness" : {
                "baseColorFactor" : [
                    1,
                    0.3490195870399475,
                    0.22745099663734436,
                    1
                ],
                "metallicFactor" : 0
            }
        },
        {
            "doubleSided" : true,
            "name" : "carTire.020",
            "pbrMetallicRoughness" : {
                "baseColorFactor" : [
                    0.2392157018184662,
                    0.2392157018184662,
                    0.2392157018184662,
                    1
                ],
                "metallicFactor" : 0
            }
        }
    ],
    "meshes" : [
        {
            "name" : "truck",
            "primitives" : [
                {
                    "attributes" : {
                        "POSITION" : 0,
                        "NORMAL" : 1,
                        "TEXCOORD_0" : 2
                    },
                    "indices" : 3,
                    "material" : 0
                },
                {
                    "attributes" : {
                        "POSITION" : 4,
                        "NORMAL" : 5,
                        "TEXCOORD_0" : 6
                    },
                    "indices" : 7,
                    "material" : 1
                },
                {
                    "attributes" : {
                        "POSITION" : 8,
                        "NORMAL" : 9,
                        "TEXCOORD_0" : 10
                    },
                    "indices" : 11,
                    "material" : 2
                },
                {
                    "attributes" : {
                        "POSITION" : 12,
                        "NORMAL" : 13,
                        "TEXCOORD_0" : 14
                    },
                    "indices" : 15,
                    "material" : 3
                },
                {
                    "attributes" : {
                        "POSITION" : 16,
                        "NORMAL" : 17,
                        "TEXCOORD_0" : 18
                    },
                    "indices" : 19,
                    "material" : 4
                },
                {
                    "attributes" : {
                        "POSITION" : 20,
                        "NORMAL" : 21,
                        "TEXCOORD_0" : 22
                    },
                    "indices" : 23,
                    "material" : 5
                },
                {
                    "attributes" : {
                        "POSITION" : 24,
                        "NORMAL" : 25,
                        "TEXCOORD_0" : 26
                    },
                    "indices" : 27,
                    "material" : 6
                }
            ]
        }
    ],
    "accessors" : [
        {
            "bufferView" : 0,
            "componentType" : 5126,
            "count" : 1012,
            "max" : [
                0.48750001192092896,
                1.087499976158142,
                -0.15000000596046448
            ],
            "min" : [
                -0.48750001192092896,
                -1.087499976158142,
                -0.6000000238418579
            ],
            "type" : "VEC3"
        },
        {
            "bufferView" : 1,
            "componentType" : 5126,
            "count" : 1012,
            "type" : "VEC3"
        },
        {
            "bufferView" : 2,
            "componentType" : 5126,
            "count" : 1012,
            "type" : "VEC2"
        },
        {
            "bufferView" : 3,
            "componentType" : 5123,
            "count" : 1980,
            "type" : "SCALAR"
        },
        {
            "bufferView" : 4,
            "componentType" : 5126,
            "count" : 184,
            "max" : [
                0.5625,
                1.0125000476837158,
                -0.375
            ],
            "min" : [
                -0.5625,
                -1.087499976158142,
                -0.9750000238418579
            ],
            "type" : "VEC3"
        },
        {
            "bufferView" : 5,
            "componentType" : 5126,
            "count" : 184,
            "type" : "VEC3"
        },
        {
            "bufferView" : 6,
            "componentType" : 5126,
            "count" : 184,
            "type" : "VEC2"
        },
        {
            "bufferView" : 7,
            "componentType" : 5123,
            "count" : 426,
            "type" : "SCALAR"
        },
        {
            "bufferView" : 8,
            "componentType" : 5126,
            "count" : 8,
            "max" : [
                0.4124999940395355,
                1.0125000476837158,
                -0.375
            ],
            "min" : [
                -0.4124999940395355,
                1.0125000476837158,
                -0.5249999761581421
            ],
            "type" : "VEC3"
        },
        {
            "bufferView" : 9,
            "componentType" : 5126,
            "count" : 8,
            "type" : "VEC3"
        },
        {
            "bufferView" : 10,
            "componentType" : 5126,
            "count" : 8,
            "type" : "VEC2"
        },
        {
            "bufferView" : 11,
            "componentType" : 5123,
            "count" : 12,
            "type" : "SCALAR"
        },
        {
            "bufferView" : 12,
            "componentType" : 5126,
            "count" : 1104,
            "max" : [
                0.5625,
                0.7810261845588684,
                -0.08897385746240616
            ],
            "min" : [
                -0.5625,
                -0.7060261964797974,
                -0.6000000238418579
            ],
            "type" : "VEC3"
        },
        {
            "bufferView" : 13,
            "componentType" : 5126,
            "count" : 1104,
            "type" : "VEC3"
        },
        {
            "bufferView" : 14,
            "componentType" : 5126,
            "count" : 1104,
            "type" : "VEC2"
        },
        {
            "bufferView" : 15,
            "componentType" : 5123,
            "count" : 1428,
            "type" : "SCALAR"
        },
        {
            "bufferView" : 16,
            "componentType" : 5126,
            "count" : 18,
            "max" : [
                0.4124999940395355,
                0.5625,
                -0.6000000238418579
            ],
            "min" : [
                -0.4124999940395355,
                -0.1596457064151764,
                -0.9164348244667053
            ],
            "type" : "VEC3"
        },
        {
            "bufferView" : 17,
            "componentType" : 5126,
            "count" : 18,
            "type" : "VEC3"
        },
        {
            "bufferView" : 18,
            "componentType" : 5126,
            "count" : 18,
            "type" : "VEC2"
        },
        {
            "bufferView" : 19,
            "componentType" : 5123,
            "count" : 30,
            "type" : "SCALAR"
        },
        {
            "bufferView" : 20,
            "componentType" : 5126,
            "count" : 8,
            "max" : [
                0.4124999940395355,
                -1.087499976158142,
                -0.44999998807907104
            ],
            "min" : [
                -0.4124999940395355,
                -1.087499976158142,
                -0.5249999761581421
            ],
            "type" : "VEC3"
        },
        {
            "bufferView" : 21,
            "componentType" : 5126,
            "count" : 8,
            "type" : "VEC3"
        },
        {
            "bufferView" : 22,
            "componentType" : 5126,
            "count" : 8,
            "type" : "VEC2"
        },
        {
            "bufferView" : 23,
            "componentType" : 5123,
            "count" : 12,
            "type" : "SCALAR"
        },
        {
            "bufferView" : 24,
            "componentType" : 5126,
            "count" : 1048,
            "max" : [
                0.48750001192092896,
                0.8700001239776611,
                0
            ],
            "min" : [
                -0.48750001192092896,
                -0.7950000166893005,
                -0.44999998807907104
            ],
            "type" : "VEC3"
        },
        {
            "bufferView" : 25,
            "componentType" : 5126,
            "count" : 1048,
            "type" : "VEC3"
        },
        {
            "bufferView" : 26,
            "componentType" : 5126,
            "count" : 1048,
            "type" : "VEC2"
        },
        {
            "bufferView" : 27,
            "componentType" : 5123,
            "count" : 1992,
            "type" : "SCALAR"
        }
    ],
    "bufferViews" : [
        {
            "buffer" : 0,
            "byteLength" : 12144,
            "byteOffset" : 0
        },
        {
            "buffer" : 0,
            "byteLength" : 12144,
            "byteOffset" : 12144
        },
        {
            "buffer" : 0,
            "byteLength" : 8096,
            "byteOffset" : 24288
        },
        {
            "buffer" : 0,
            "byteLength" : 3960,
            "byteOffset" : 32384
        },
        {
            "buffer" : 0,
            "byteLength" : 2208,
            "byteOffset" : 36344
        },
        {
            "buffer" : 0,
            "byteLength" : 2208,
            "byteOffset" : 38552
        },
        {
            "buffer" : 0,
            "byteLength" : 1472,
            "byteOffset" : 40760
        },
        {
            "buffer" : 0,
            "byteLength" : 852,
            "byteOffset" : 42232
        },
        {
            "buffer" : 0,
            "byteLength" : 96,
            "byteOffset" : 43084
        },
        {
            "buffer" : 0,
            "byteLength" : 96,
            "byteOffset" : 43180
        },
        {
            "buffer" : 0,
            "byteLength" : 64,
            "byteOffset" : 43276
        },
        {
            "buffer" : 0,
            "byteLength" : 24,
            "byteOffset" : 43340
        },
        {
            "buffer" : 0,
            "byteLength" : 13248,
            "byteOffset" : 43364
        },
        {
            "buffer" : 0,
            "byteLength" : 13248,
            "byteOffset" : 56612
        },
        {
            "buffer" : 0,
            "byteLength" : 8832,
            "byteOffset" : 69860
        },
        {
            "buffer" : 0,
            "byteLength" : 2856,
            "byteOffset" : 78692
        },
        {
            "buffer" : 0,
            "byteLength" : 216,
            "byteOffset" : 81548
        },
        {
            "buffer" : 0,
            "byteLength" : 216,
            "byteOffset" : 81764
        },
        {
            "buffer" : 0,
            "byteLength" : 144,
            "byteOffset" : 81980
        },
        {
            "buffer" : 0,
            "byteLength" : 60,
            "byteOffset" : 82124
        },
        {
            "buffer" : 0,
            "byteLength" : 96,
            "byteOffset" : 82184
        },
        {
            "buffer" : 0,
            "byteLength" : 96,
            "byteOffset" : 82280
        },
        {
            "buffer" : 0,
            "byteLength" : 64,
            "byteOffset" : 82376
        },
        {
            "buffer" : 0,
            "byteLength" : 24,
            "byteOffset" : 82440
        },
        {
            "buffer" : 0,
            "byteLength" : 12576,
            "byteOffset" : 82464
        },
        {
            "buffer" : 0,
            "byteLength" : 12576,
            "byteOffset" : 95040
        },
        {
            "buffer" : 0,
            "byteLength" : 8384,
            "byteOffset" : 107616
        },
        {
            "buffer" : 0,
            "byteLength" : 3984,
            "byteOffset" : 116000
        }
    ],
    "buffers" : [
        {
            "byteLength" : 119984,
            "uri" : "data:application/octet-stream;base64,"
        }
    ]
}
