{
    "asset" : {
        "generator" : "Khronos glTF Blender I/O v3.2.43",
        "version" : "2.0"
    },
    "scene" : 0,
    "scenes" : [
        {
            "name" : "Scene",
            "nodes" : [
                0
            ]
        }
    ],
    "nodes" : [
        {
            "mesh" : 0,
            "name" : "police",
            "rotation" : [
                0.7071068286895752,
                0,
                0,
                0.7071067094802856
            ]
        }
    ],
    "materials" : [
        {
            "doubleSided" : true,
            "name" : "paintWhite.004",
            "pbrMetallicRoughness" : {
                "baseColorFactor" : [
                    0.8980392217636108,
                    0.9058824181556702,
                    0.9686275124549866,
                    1
                ],
                "metallicFactor" : 0
            }
        },
        {
            "doubleSided" : true,
            "name" : "plastic.007",
            "pbrMetallicRoughness" : {
                "baseColorFactor" : [
                    0.3764705955982208,
                    0.3764705955982208,
                    0.3764705955982208,
                    1
                ],
                "metallicFactor" : 0
            }
        },
        {
            "doubleSided" : true,
            "name" : "_defaultMat.007",
            "pbrMetallicRoughness" : {
                "metallicFactor" : 0
            }
        },
        {
            "doubleSided" : true,
            "name" : "lightFront.007",
            "pbrMetallicRoughness" : {
                "baseColorFactor" : [
                    1,
                    0.9762833118438721,
                    0.9292452931404114,
                    1
                ],
                "metallicFactor" : 0
            }
        },
        {
            "doubleSided" : true,
            "name" : "lightBack.005",
            "pbrMetallicRoughness" : {
                "baseColorFactor" : [
                    1,
                    0.3490195870399475,
                    0.22745099663734436,
                    1
                ],
                "metallicFactor" : 0
            }
        },
        {
            "doubleSided" : true,
            "name" : "window.007",
            "pbrMetallicRoughness" : {
                "baseColorFactor" : [
                    0.9372549057006836,
                    0.9372549057006836,
                    0.9372549057006836,
                    1
                ],
                "metallicFactor" : 0
            }
        },
        {
            "doubleSided" : true,
            "name" : "carTire.007",
            "pbrMetallicRoughness" : {
                "baseColorFactor" : [
                    0.2392157018184662,
                    0.2392157018184662,
                    0.2392157018184662,
                    1
                ],
                "metallicFactor" : 0
            }
        },
        {
            "doubleSided" : true,
            "name" : "lightBlue.003",
            "pbrMetallicRoughness" : {
                "baseColorFactor" : [
                    0.3568628132343292,
                    0.6941177248954773,
                    1,
                    1
                ],
                "metallicFactor" : 0
            }
        }
    ],
    "meshes" : [
        {
            "name" : "police",
            "primitives" : [
                {
                    "attributes" : {
                        "POSITION" : 0,
                        "NORMAL" : 1,
                        "TEXCOORD_0" : 2
                    },
                    "indices" : 3,
                    "material" : 0
                },
                {
                    "attributes" : {
                        "POSITION" : 4,
                        "NORMAL" : 5,
                        "TEXCOORD_0" : 6
                    },
                    "indices" : 7,
                    "material" : 1
                },
                {
                    "attributes" : {
                        "POSITION" : 8,
                        "NORMAL" : 9,
                        "TEXCOORD_0" : 10
                    },
                    "indices" : 11,
                    "material" : 2
                },
                {
                    "attributes" : {
                        "POSITION" : 12,
                        "NORMAL" : 13,
                        "TEXCOORD_0" : 14
                    },
                    "indices" : 15,
                    "material" : 3
                },
                {
                    "attributes" : {
                        "POSITION" : 16,
                        "NORMAL" : 17,
                        "TEXCOORD_0" : 18
                    },
                    "indices" : 19,
                    "material" : 4
                },
                {
                    "attributes" : {
                        "POSITION" : 20,
                        "NORMAL" : 21,
                        "TEXCOORD_0" : 22
                    },
                    "indices" : 23,
                    "material" : 5
                },
                {
                    "attributes" : {
                        "POSITION" : 24,
                        "NORMAL" : 25,
                        "TEXCOORD_0" : 26
                    },
                    "indices" : 27,
                    "material" : 6
                },
                {
                    "attributes" : {
                        "POSITION" : 28,
                        "NORMAL" : 29,
                        "TEXCOORD_0" : 30
                    },
                    "indices" : 31,
                    "material" : 7
                }
            ]
        }
    ],
    "accessors" : [
        {
            "bufferView" : 0,
            "componentType" : 5126,
            "count" : 858,
            "max" : [
                0.48750001192092896,
                1.0499999523162842,
                -0.15000000596046448
            ],
            "min" : [
                -0.48750001192092896,
                -1.125,
                -0.8999999761581421
            ],
            "type" : "VEC3"
        },
        {
            "bufferView" : 1,
            "componentType" : 5126,
            "count" : 858,
            "type" : "VEC3"
        },
        {
            "bufferView" : 2,
            "componentType" : 5126,
            "count" : 858,
            "type" : "VEC2"
        },
        {
            "bufferView" : 3,
            "componentType" : 5123,
            "count" : 1596,
            "type" : "SCALAR"
        },
        {
            "bufferView" : 4,
            "componentType" : 5126,
            "count" : 1320,
            "max" : [
                0.5625,
                1.125,
                -0.1013398990035057
            ],
            "min" : [
                -0.5625,
                -1.125,
                -0.8999999761581421
            ],
            "type" : "VEC3"
        },
        {
            "bufferView" : 5,
            "componentType" : 5126,
            "count" : 1320,
            "type" : "VEC3"
        },
        {
            "bufferView" : 6,
            "componentType" : 5126,
            "count" : 1320,
            "type" : "VEC2"
        },
        {
            "bufferView" : 7,
            "componentType" : 5123,
            "count" : 2838,
            "type" : "SCALAR"
        },
        {
            "bufferView" : 8,
            "componentType" : 5126,
            "count" : 36,
            "max" : [
                0.5625,
                1.125,
                -0.375
            ],
            "min" : [
                -0.5625,
                0.42967671155929565,
                -0.6000000238418579
            ],
            "type" : "VEC3"
        },
        {
            "bufferView" : 9,
            "componentType" : 5126,
            "count" : 36,
            "type" : "VEC3"
        },
        {
            "bufferView" : 10,
            "componentType" : 5126,
            "count" : 36,
            "type" : "VEC2"
        },
        {
            "bufferView" : 11,
            "componentType" : 5123,
            "count" : 36,
            "type" : "SCALAR"
        },
        {
            "bufferView" : 12,
            "componentType" : 5126,
            "count" : 16,
            "max" : [
                0.4124999940395355,
                0.9750000238418579,
                -0.375
            ],
            "min" : [
                -0.4124999940395355,
                0.8999999761581421,
                -0.44999998807907104
            ],
            "type" : "VEC3"
        },
        {
            "bufferView" : 13,
            "componentType" : 5126,
            "count" : 16,
            "type" : "VEC3"
        },
        {
            "bufferView" : 14,
            "componentType" : 5126,
            "count" : 16,
            "type" : "VEC2"
        },
        {
            "bufferView" : 15,
            "componentType" : 5123,
            "count" : 24,
            "type" : "SCALAR"
        },
        {
            "bufferView" : 16,
            "componentType" : 5126,
            "count" : 28,
            "max" : [
                0.4124999940395355,
                1.125,
                -0.375
            ],
            "min" : [
                -0.4124999940395355,
                -1.125,
                -0.9750000238418579
            ],
            "type" : "VEC3"
        },
        {
            "bufferView" : 17,
            "componentType" : 5126,
            "count" : 28,
            "type" : "VEC3"
        },
        {
            "bufferView" : 18,
            "componentType" : 5126,
            "count" : 28,
            "type" : "VEC2"
        },
        {
            "bufferView" : 19,
            "componentType" : 5123,
            "count" : 42,
            "type" : "SCALAR"
        },
        {
            "bufferView" : 20,
            "componentType" : 5126,
            "count" : 16,
            "max" : [
                0.4124999940395355,
                0.5249999761581421,
                -0.6000000238418579
            ],
            "min" : [
                -0.4124999940395355,
                -0.6414589881896973,
                -0.8469669818878174
            ],
            "type" : "VEC3"
        },
        {
            "bufferView" : 21,
            "componentType" : 5126,
            "count" : 16,
            "type" : "VEC3"
        },
        {
            "bufferView" : 22,
            "componentType" : 5126,
            "count" : 16,
            "type" : "VEC2"
        },
        {
            "bufferView" : 23,
            "componentType" : 5123,
            "count" : 24,
            "type" : "SCALAR"
        },
        {
            "bufferView" : 24,
            "componentType" : 5126,
            "count" : 1060,
            "max" : [
                0.48750001192092896,
                0.8324999213218689,
                0
            ],
            "min" : [
                -0.48750001192092896,
                -0.8324999213218689,
                -0.9750000238418579
            ],
            "type" : "VEC3"
        },
        {
            "bufferView" : 25,
            "componentType" : 5126,
            "count" : 1060,
            "type" : "VEC3"
        },
        {
            "bufferView" : 26,
            "componentType" : 5126,
            "count" : 1060,
            "type" : "VEC2"
        },
        {
            "bufferView" : 27,
            "componentType" : 5123,
            "count" : 2010,
            "type" : "SCALAR"
        },
        {
            "bufferView" : 28,
            "componentType" : 5126,
            "count" : 20,
            "max" : [
                -0.10815969854593277,
                1.125,
                -0.375
            ],
            "min" : [
                -0.30000001192092896,
                0.07500000298023224,
                -0.9750000238418579
            ],
            "type" : "VEC3"
        },
        {
            "bufferView" : 29,
            "componentType" : 5126,
            "count" : 20,
            "type" : "VEC3"
        },
        {
            "bufferView" : 30,
            "componentType" : 5126,
            "count" : 20,
            "type" : "VEC2"
        },
        {
            "bufferView" : 31,
            "componentType" : 5123,
            "count" : 30,
            "type" : "SCALAR"
        }
    ],
    "bufferViews" : [
        {
            "buffer" : 0,
            "byteLength" : 10296,
            "byteOffset" : 0
        },
        {
            "buffer" : 0,
            "byteLength" : 10296,
            "byteOffset" : 10296
        },
        {
            "buffer" : 0,
            "byteLength" : 6864,
            "byteOffset" : 20592
        },
        {
            "buffer" : 0,
            "byteLength" : 3192,
            "byteOffset" : 27456
        },
        {
            "buffer" : 0,
            "byteLength" : 15840,
            "byteOffset" : 30648
        },
        {
            "buffer" : 0,
            "byteLength" : 15840,
            "byteOffset" : 46488
        },
        {
            "buffer" : 0,
            "byteLength" : 10560,
            "byteOffset" : 62328
        },
        {
            "buffer" : 0,
            "byteLength" : 5676,
            "byteOffset" : 72888
        },
        {
            "buffer" : 0,
            "byteLength" : 432,
            "byteOffset" : 78564
        },
        {
            "buffer" : 0,
            "byteLength" : 432,
            "byteOffset" : 78996
        },
        {
            "buffer" : 0,
            "byteLength" : 288,
            "byteOffset" : 79428
        },
        {
            "buffer" : 0,
            "byteLength" : 72,
            "byteOffset" : 79716
        },
        {
            "buffer" : 0,
            "byteLength" : 192,
            "byteOffset" : 79788
        },
        {
            "buffer" : 0,
            "byteLength" : 192,
            "byteOffset" : 79980
        },
        {
            "buffer" : 0,
            "byteLength" : 128,
            "byteOffset" : 80172
        },
        {
            "buffer" : 0,
            "byteLength" : 48,
            "byteOffset" : 80300
        },
        {
            "buffer" : 0,
            "byteLength" : 336,
            "byteOffset" : 80348
        },
        {
            "buffer" : 0,
            "byteLength" : 336,
            "byteOffset" : 80684
        },
        {
            "buffer" : 0,
            "byteLength" : 224,
            "byteOffset" : 81020
        },
        {
            "buffer" : 0,
            "byteLength" : 84,
            "byteOffset" : 81244
        },
        {
            "buffer" : 0,
            "byteLength" : 192,
            "byteOffset" : 81328
        },
        {
            "buffer" : 0,
            "byteLength" : 192,
            "byteOffset" : 81520
        },
        {
            "buffer" : 0,
            "byteLength" : 128,
            "byteOffset" : 81712
        },
        {
            "buffer" : 0,
            "byteLength" : 48,
            "byteOffset" : 81840
        },
        {
            "buffer" : 0,
            "byteLength" : 12720,
            "byteOffset" : 81888
        },
        {
            "buffer" : 0,
            "byteLength" : 12720,
            "byteOffset" : 94608
        },
        {
            "buffer" : 0,
            "byteLength" : 8480,
            "byteOffset" : 107328
        },
        {
            "buffer" : 0,
            "byteLength" : 4020,
            "byteOffset" : 115808
        },
        {
            "buffer" : 0,
            "byteLength" : 240,
            "byteOffset" : 119828
        },
        {
            "buffer" : 0,
            "byteLength" : 240,
            "byteOffset" : 120068
        },
        {
            "buffer" : 0,
            "byteLength" : 160,
            "byteOffset" : 120308
        },
        {
            "buffer" : 0,
            "byteLength" : 60,
            "byteOffset" : 120468
        }
    ],
    "buffers" : [
        {
            "byteLength" : 120528,
            "uri" : "data:application/octet-stream;base64,"
        }
    ]
}
