{
    "asset" : {
        "generator" : "Khronos glTF Blender I/O v3.2.43",
        "version" : "2.0"
    },
    "scene" : 0,
    "scenes" : [
        {
            "name" : "Scene",
            "nodes" : [
                0
            ]
        }
    ],
    "nodes" : [
        {
            "mesh" : 0,
            "name" : "sedanSports",
            "rotation" : [
                0.7071068286895752,
                0,
                0,
                0.7071067094802856
            ]
        }
    ],
    "materials" : [
        {
            "doubleSided" : true,
            "name" : "plastic.011",
            "pbrMetallicRoughness" : {
                "baseColorFactor" : [
                    0.3764705955982208,
                    0.3764705955982208,
                    0.3764705955982208,
                    1
                ],
                "metallicFactor" : 0
            }
        },
        {
            "doubleSided" : true,
            "name" : "paintRed.006",
            "pbrMetallicRoughness" : {
                "baseColorFactor" : [
                    1,
                    0.22745099663734436,
                    0.3019607961177826,
                    1
                ],
                "metallicFactor" : 0
            }
        },
        {
            "doubleSided" : true,
            "name" : "_defaultMat.011",
            "pbrMetallicRoughness" : {
                "metallicFactor" : 0
            }
        },
        {
            "doubleSided" : true,
            "name" : "window.011",
            "pbrMetallicRoughness" : {
                "baseColorFactor" : [
                    0.9372549057006836,
                    0.9372549057006836,
                    0.9372549057006836,
                    1
                ],
                "metallicFactor" : 0
            }
        },
        {
            "doubleSided" : true,
            "name" : "lightBack.007",
            "pbrMetallicRoughness" : {
                "baseColorFactor" : [
                    1,
                    0.3490195870399475,
                    0.22745099663734436,
                    1
                ],
                "metallicFactor" : 0
            }
        },
        {
            "doubleSided" : true,
            "name" : "lightFront.009",
            "pbrMetallicRoughness" : {
                "baseColorFactor" : [
                    1,
                    0.9762833118438721,
                    0.9292452931404114,
                    1
                ],
                "metallicFactor" : 0
            }
        },
        {
            "doubleSided" : true,
            "name" : "carTire.011",
            "pbrMetallicRoughness" : {
                "baseColorFactor" : [
                    0.2392157018184662,
                    0.2392157018184662,
                    0.2392157018184662,
                    1
                ],
                "metallicFactor" : 0
            }
        }
    ],
    "meshes" : [
        {
            "name" : "sedanSports",
            "primitives" : [
                {
                    "attributes" : {
                        "POSITION" : 0,
                        "NORMAL" : 1,
                        "TEXCOORD_0" : 2
                    },
                    "indices" : 3,
                    "material" : 0
                },
                {
                    "attributes" : {
                        "POSITION" : 4,
                        "NORMAL" : 5,
                        "TEXCOORD_0" : 6
                    },
                    "indices" : 7,
                    "material" : 1
                },
                {
                    "attributes" : {
                        "POSITION" : 8,
                        "NORMAL" : 9,
                        "TEXCOORD_0" : 10
                    },
                    "indices" : 11,
                    "material" : 2
                },
                {
                    "attributes" : {
                        "POSITION" : 12,
                        "NORMAL" : 13,
                        "TEXCOORD_0" : 14
                    },
                    "indices" : 15,
                    "material" : 3
                },
                {
                    "attributes" : {
                        "POSITION" : 16,
                        "NORMAL" : 17,
                        "TEXCOORD_0" : 18
                    },
                    "indices" : 19,
                    "material" : 4
                },
                {
                    "attributes" : {
                        "POSITION" : 20,
                        "NORMAL" : 21,
                        "TEXCOORD_0" : 22
                    },
                    "indices" : 23,
                    "material" : 5
                },
                {
                    "attributes" : {
                        "POSITION" : 24,
                        "NORMAL" : 25,
                        "TEXCOORD_0" : 26
                    },
                    "indices" : 27,
                    "material" : 6
                }
            ]
        }
    ],
    "accessors" : [
        {
            "bufferView" : 0,
            "componentType" : 5126,
            "count" : 994,
            "max" : [
                0.48750001192092896,
                0.9375,
                -0.15000000596046448
            ],
            "min" : [
                -0.48750001192092896,
                -0.9375,
                -0.5174999833106995
            ],
            "type" : "VEC3"
        },
        {
            "bufferView" : 1,
            "componentType" : 5126,
            "count" : 994,
            "type" : "VEC3"
        },
        {
            "bufferView" : 2,
            "componentType" : 5126,
            "count" : 994,
            "type" : "VEC2"
        },
        {
            "bufferView" : 3,
            "componentType" : 5123,
            "count" : 1944,
            "type" : "SCALAR"
        },
        {
            "bufferView" : 4,
            "componentType" : 5126,
            "count" : 172,
            "max" : [
                0.48750001192092896,
                0.862500011920929,
                -0.375
            ],
            "min" : [
                -0.48750001192092896,
                -0.9375,
                -0.824999988079071
            ],
            "type" : "VEC3"
        },
        {
            "bufferView" : 5,
            "componentType" : 5126,
            "count" : 172,
            "type" : "VEC3"
        },
        {
            "bufferView" : 6,
            "componentType" : 5126,
            "count" : 172,
            "type" : "VEC2"
        },
        {
            "bufferView" : 7,
            "componentType" : 5123,
            "count" : 402,
            "type" : "SCALAR"
        },
        {
            "bufferView" : 8,
            "componentType" : 5126,
            "count" : 1104,
            "max" : [
                0.48750001192092896,
                0.6310260891914368,
                -0.08897385746240616
            ],
            "min" : [
                -0.48750001192092896,
                -0.6310260891914368,
                -0.6000000238418579
            ],
            "type" : "VEC3"
        },
        {
            "bufferView" : 9,
            "componentType" : 5126,
            "count" : 1104,
            "type" : "VEC3"
        },
        {
            "bufferView" : 10,
            "componentType" : 5126,
            "count" : 1104,
            "type" : "VEC2"
        },
        {
            "bufferView" : 11,
            "componentType" : 5123,
            "count" : 1428,
            "type" : "SCALAR"
        },
        {
            "bufferView" : 12,
            "componentType" : 5126,
            "count" : 18,
            "max" : [
                0.4124999940395355,
                0.4124999940395355,
                -0.6000000238418579
            ],
            "min" : [
                -0.4124999940395355,
                -0.5844669938087463,
                -0.7799999713897705
            ],
            "type" : "VEC3"
        },
        {
            "bufferView" : 13,
            "componentType" : 5126,
            "count" : 18,
            "type" : "VEC3"
        },
        {
            "bufferView" : 14,
            "componentType" : 5126,
            "count" : 18,
            "type" : "VEC2"
        },
        {
            "bufferView" : 15,
            "componentType" : 5123,
            "count" : 30,
            "type" : "SCALAR"
        },
        {
            "bufferView" : 16,
            "componentType" : 5126,
            "count" : 8,
            "max" : [
                0.4124999940395355,
                -0.7875000238418579,
                -0.44999998807907104
            ],
            "min" : [
                -0.4124999940395355,
                -0.9375,
                -0.5249999761581421
            ],
            "type" : "VEC3"
        },
        {
            "bufferView" : 17,
            "componentType" : 5126,
            "count" : 8,
            "type" : "VEC3"
        },
        {
            "bufferView" : 18,
            "componentType" : 5126,
            "count" : 8,
            "type" : "VEC2"
        },
        {
            "bufferView" : 19,
            "componentType" : 5123,
            "count" : 12,
            "type" : "SCALAR"
        },
        {
            "bufferView" : 20,
            "componentType" : 5126,
            "count" : 8,
            "max" : [
                0.4124999940395355,
                0.862500011920929,
                -0.44999998807907104
            ],
            "min" : [
                -0.4124999940395355,
                0.768750011920929,
                -0.5062500238418579
            ],
            "type" : "VEC3"
        },
        {
            "bufferView" : 21,
            "componentType" : 5126,
            "count" : 8,
            "type" : "VEC3"
        },
        {
            "bufferView" : 22,
            "componentType" : 5126,
            "count" : 8,
            "type" : "VEC2"
        },
        {
            "bufferView" : 23,
            "componentType" : 5123,
            "count" : 12,
            "type" : "SCALAR"
        },
        {
            "bufferView" : 24,
            "componentType" : 5126,
            "count" : 1048,
            "max" : [
                0.48750001192092896,
                0.7200000286102295,
                0
            ],
            "min" : [
                -0.48750001192092896,
                -0.7200000286102295,
                -0.44999998807907104
            ],
            "type" : "VEC3"
        },
        {
            "bufferView" : 25,
            "componentType" : 5126,
            "count" : 1048,
            "type" : "VEC3"
        },
        {
            "bufferView" : 26,
            "componentType" : 5126,
            "count" : 1048,
            "type" : "VEC2"
        },
        {
            "bufferView" : 27,
            "componentType" : 5123,
            "count" : 1992,
            "type" : "SCALAR"
        }
    ],
    "bufferViews" : [
        {
            "buffer" : 0,
            "byteLength" : 11928,
            "byteOffset" : 0
        },
        {
            "buffer" : 0,
            "byteLength" : 11928,
            "byteOffset" : 11928
        },
        {
            "buffer" : 0,
            "byteLength" : 7952,
            "byteOffset" : 23856
        },
        {
            "buffer" : 0,
            "byteLength" : 3888,
            "byteOffset" : 31808
        },
        {
            "buffer" : 0,
            "byteLength" : 2064,
            "byteOffset" : 35696
        },
        {
            "buffer" : 0,
            "byteLength" : 2064,
            "byteOffset" : 37760
        },
        {
            "buffer" : 0,
            "byteLength" : 1376,
            "byteOffset" : 39824
        },
        {
            "buffer" : 0,
            "byteLength" : 804,
            "byteOffset" : 41200
        },
        {
            "buffer" : 0,
            "byteLength" : 13248,
            "byteOffset" : 42004
        },
        {
            "buffer" : 0,
            "byteLength" : 13248,
            "byteOffset" : 55252
        },
        {
            "buffer" : 0,
            "byteLength" : 8832,
            "byteOffset" : 68500
        },
        {
            "buffer" : 0,
            "byteLength" : 2856,
            "byteOffset" : 77332
        },
        {
            "buffer" : 0,
            "byteLength" : 216,
            "byteOffset" : 80188
        },
        {
            "buffer" : 0,
            "byteLength" : 216,
            "byteOffset" : 80404
        },
        {
            "buffer" : 0,
            "byteLength" : 144,
            "byteOffset" : 80620
        },
        {
            "buffer" : 0,
            "byteLength" : 60,
            "byteOffset" : 80764
        },
        {
            "buffer" : 0,
            "byteLength" : 96,
            "byteOffset" : 80824
        },
        {
            "buffer" : 0,
            "byteLength" : 96,
            "byteOffset" : 80920
        },
        {
            "buffer" : 0,
            "byteLength" : 64,
            "byteOffset" : 81016
        },
        {
            "buffer" : 0,
            "byteLength" : 24,
            "byteOffset" : 81080
        },
        {
            "buffer" : 0,
            "byteLength" : 96,
            "byteOffset" : 81104
        },
        {
            "buffer" : 0,
            "byteLength" : 96,
            "byteOffset" : 81200
        },
        {
            "buffer" : 0,
            "byteLength" : 64,
            "byteOffset" : 81296
        },
        {
            "buffer" : 0,
            "byteLength" : 24,
            "byteOffset" : 81360
        },
        {
            "buffer" : 0,
            "byteLength" : 12576,
            "byteOffset" : 81384
        },
        {
            "buffer" : 0,
            "byteLength" : 12576,
            "byteOffset" : 93960
        },
        {
            "buffer" : 0,
            "byteLength" : 8384,
            "byteOffset" : 106536
        },
        {
            "buffer" : 0,
            "byteLength" : 3984,
            "byteOffset" : 114920
        }
    ],
    "buffers" : [
        {
            "byteLength" : 118904,
            "uri" : "data:application/octet-stream;base64,"
        }
    ]
}
