{
    "asset" : {
        "generator" : "Khronos glTF Blender I/O v3.2.43",
        "version" : "2.0"
    },
    "scene" : 0,
    "scenes" : [
        {
            "name" : "Scene",
            "nodes" : [
                0
            ]
        }
    ],
    "nodes" : [
        {
            "mesh" : 0,
            "name" : "suvLuxury",
            "rotation" : [
                0.7071068286895752,
                0,
                0,
                0.7071067094802856
            ]
        }
    ],
    "materials" : [
        {
            "doubleSided" : true,
            "name" : "plastic.013",
            "pbrMetallicRoughness" : {
                "baseColorFactor" : [
                    0.3764705955982208,
                    0.3764705955982208,
                    0.3764705955982208,
                    1
                ],
                "metallicFactor" : 0
            }
        },
        {
            "doubleSided" : true,
            "name" : "paintYellow.002",
            "pbrMetallicRoughness" : {
                "baseColorFactor" : [
                    0.9764705896377563,
                    0.7686275243759155,
                    0.2745097875595093,
                    1
                ],
                "metallicFactor" : 0
            }
        },
        {
            "doubleSided" : true,
            "name" : "_defaultMat.013",
            "pbrMetallicRoughness" : {
                "metallicFactor" : 0
            }
        },
        {
            "doubleSided" : true,
            "name" : "lightBack.009",
            "pbrMetallicRoughness" : {
                "baseColorFactor" : [
                    1,
                    0.3490195870399475,
                    0.22745099663734436,
                    1
                ],
                "metallicFactor" : 0
            }
        },
        {
            "doubleSided" : true,
            "name" : "window.013",
            "pbrMetallicRoughness" : {
                "baseColorFactor" : [
                    0.9372549057006836,
                    0.9372549057006836,
                    0.9372549057006836,
                    1
                ],
                "metallicFactor" : 0
            }
        },
        {
            "doubleSided" : true,
            "name" : "lightFront.011",
            "pbrMetallicRoughness" : {
                "baseColorFactor" : [
                    1,
                    0.9762833118438721,
                    0.9292452931404114,
                    1
                ],
                "metallicFactor" : 0
            }
        },
        {
            "doubleSided" : true,
            "name" : "carTire.013",
            "pbrMetallicRoughness" : {
                "baseColorFactor" : [
                    0.2392157018184662,
                    0.2392157018184662,
                    0.2392157018184662,
                    1
                ],
                "metallicFactor" : 0
            }
        }
    ],
    "meshes" : [
        {
            "name" : "suvLuxury",
            "primitives" : [
                {
                    "attributes" : {
                        "POSITION" : 0,
                        "NORMAL" : 1,
                        "TEXCOORD_0" : 2
                    },
                    "indices" : 3,
                    "material" : 0
                },
                {
                    "attributes" : {
                        "POSITION" : 4,
                        "NORMAL" : 5,
                        "TEXCOORD_0" : 6
                    },
                    "indices" : 7,
                    "material" : 1
                },
                {
                    "attributes" : {
                        "POSITION" : 8,
                        "NORMAL" : 9,
                        "TEXCOORD_0" : 10
                    },
                    "indices" : 11,
                    "material" : 2
                },
                {
                    "attributes" : {
                        "POSITION" : 12,
                        "NORMAL" : 13,
                        "TEXCOORD_0" : 14
                    },
                    "indices" : 15,
                    "material" : 3
                },
                {
                    "attributes" : {
                        "POSITION" : 16,
                        "NORMAL" : 17,
                        "TEXCOORD_0" : 18
                    },
                    "indices" : 19,
                    "material" : 4
                },
                {
                    "attributes" : {
                        "POSITION" : 20,
                        "NORMAL" : 21,
                        "TEXCOORD_0" : 22
                    },
                    "indices" : 23,
                    "material" : 5
                },
                {
                    "attributes" : {
                        "POSITION" : 24,
                        "NORMAL" : 25,
                        "TEXCOORD_0" : 26
                    },
                    "indices" : 27,
                    "material" : 6
                }
            ]
        }
    ],
    "accessors" : [
        {
            "bufferView" : 0,
            "componentType" : 5126,
            "count" : 877,
            "max" : [
                0.48750001192092896,
                1.0499999523162842,
                -0.15000000596046448
            ],
            "min" : [
                -0.48750001192092896,
                -1.0499999523162842,
                -0.6633865833282471
            ],
            "type" : "VEC3"
        },
        {
            "bufferView" : 1,
            "componentType" : 5126,
            "count" : 877,
            "type" : "VEC3"
        },
        {
            "bufferView" : 2,
            "componentType" : 5126,
            "count" : 877,
            "type" : "VEC2"
        },
        {
            "bufferView" : 3,
            "componentType" : 5123,
            "count" : 1683,
            "type" : "SCALAR"
        },
        {
            "bufferView" : 4,
            "componentType" : 5126,
            "count" : 181,
            "max" : [
                0.5625,
                0.9750000238418579,
                -0.375
            ],
            "min" : [
                -0.5625,
                -1.0499999523162842,
                -0.9750000238418579
            ],
            "type" : "VEC3"
        },
        {
            "bufferView" : 5,
            "componentType" : 5126,
            "count" : 181,
            "type" : "VEC3"
        },
        {
            "bufferView" : 6,
            "componentType" : 5126,
            "count" : 181,
            "type" : "VEC2"
        },
        {
            "bufferView" : 7,
            "componentType" : 5123,
            "count" : 429,
            "type" : "SCALAR"
        },
        {
            "bufferView" : 8,
            "componentType" : 5126,
            "count" : 1111,
            "max" : [
                0.5625,
                0.7435261011123657,
                -0.08897385746240616
            ],
            "min" : [
                -0.5625,
                -0.8151261210441589,
                -0.675000011920929
            ],
            "type" : "VEC3"
        },
        {
            "bufferView" : 9,
            "componentType" : 5126,
            "count" : 1111,
            "type" : "VEC3"
        },
        {
            "bufferView" : 10,
            "componentType" : 5126,
            "count" : 1111,
            "type" : "VEC2"
        },
        {
            "bufferView" : 11,
            "componentType" : 5123,
            "count" : 1437,
            "type" : "SCALAR"
        },
        {
            "bufferView" : 12,
            "componentType" : 5126,
            "count" : 8,
            "max" : [
                0.4124999940395355,
                -1.0499999523162842,
                -0.5249999761581421
            ],
            "min" : [
                -0.4124999940395355,
                -1.0499999523162842,
                -0.6000000238418579
            ],
            "type" : "VEC3"
        },
        {
            "bufferView" : 13,
            "componentType" : 5126,
            "count" : 8,
            "type" : "VEC3"
        },
        {
            "bufferView" : 14,
            "componentType" : 5126,
            "count" : 8,
            "type" : "VEC2"
        },
        {
            "bufferView" : 15,
            "componentType" : 5123,
            "count" : 12,
            "type" : "SCALAR"
        },
        {
            "bufferView" : 16,
            "componentType" : 5126,
            "count" : 25,
            "max" : [
                0.4124999940395355,
                0.4869680106639862,
                -0.6000000238418579
            ],
            "min" : [
                -0.4124999940395355,
                -0.9750000238418579,
                -0.9750000238418579
            ],
            "type" : "VEC3"
        },
        {
            "bufferView" : 17,
            "componentType" : 5126,
            "count" : 25,
            "type" : "VEC3"
        },
        {
            "bufferView" : 18,
            "componentType" : 5126,
            "count" : 25,
            "type" : "VEC2"
        },
        {
            "bufferView" : 19,
            "componentType" : 5123,
            "count" : 45,
            "type" : "SCALAR"
        },
        {
            "bufferView" : 20,
            "componentType" : 5126,
            "count" : 8,
            "max" : [
                0.4124999940395355,
                0.9375,
                -0.48750001192092896
            ],
            "min" : [
                -0.4124999940395355,
                0.9187499284744263,
                -0.543749988079071
            ],
            "type" : "VEC3"
        },
        {
            "bufferView" : 21,
            "componentType" : 5126,
            "count" : 8,
            "type" : "VEC3"
        },
        {
            "bufferView" : 22,
            "componentType" : 5126,
            "count" : 8,
            "type" : "VEC2"
        },
        {
            "bufferView" : 23,
            "componentType" : 5123,
            "count" : 12,
            "type" : "SCALAR"
        },
        {
            "bufferView" : 24,
            "componentType" : 5126,
            "count" : 1048,
            "max" : [
                0.48750001192092896,
                0.8324999213218689,
                0
            ],
            "min" : [
                -0.48750001192092896,
                -0.7574999928474426,
                -0.44999998807907104
            ],
            "type" : "VEC3"
        },
        {
            "bufferView" : 25,
            "componentType" : 5126,
            "count" : 1048,
            "type" : "VEC3"
        },
        {
            "bufferView" : 26,
            "componentType" : 5126,
            "count" : 1048,
            "type" : "VEC2"
        },
        {
            "bufferView" : 27,
            "componentType" : 5123,
            "count" : 1992,
            "type" : "SCALAR"
        }
    ],
    "bufferViews" : [
        {
            "buffer" : 0,
            "byteLength" : 10524,
            "byteOffset" : 0
        },
        {
            "buffer" : 0,
            "byteLength" : 10524,
            "byteOffset" : 10524
        },
        {
            "buffer" : 0,
            "byteLength" : 7016,
            "byteOffset" : 21048
        },
        {
            "buffer" : 0,
            "byteLength" : 3366,
            "byteOffset" : 28064
        },
        {
            "buffer" : 0,
            "byteLength" : 2172,
            "byteOffset" : 31432
        },
        {
            "buffer" : 0,
            "byteLength" : 2172,
            "byteOffset" : 33604
        },
        {
            "buffer" : 0,
            "byteLength" : 1448,
            "byteOffset" : 35776
        },
        {
            "buffer" : 0,
            "byteLength" : 858,
            "byteOffset" : 37224
        },
        {
            "buffer" : 0,
            "byteLength" : 13332,
            "byteOffset" : 38084
        },
        {
            "buffer" : 0,
            "byteLength" : 13332,
            "byteOffset" : 51416
        },
        {
            "buffer" : 0,
            "byteLength" : 8888,
            "byteOffset" : 64748
        },
        {
            "buffer" : 0,
            "byteLength" : 2874,
            "byteOffset" : 73636
        },
        {
            "buffer" : 0,
            "byteLength" : 96,
            "byteOffset" : 76512
        },
        {
            "buffer" : 0,
            "byteLength" : 96,
            "byteOffset" : 76608
        },
        {
            "buffer" : 0,
            "byteLength" : 64,
            "byteOffset" : 76704
        },
        {
            "buffer" : 0,
            "byteLength" : 24,
            "byteOffset" : 76768
        },
        {
            "buffer" : 0,
            "byteLength" : 300,
            "byteOffset" : 76792
        },
        {
            "buffer" : 0,
            "byteLength" : 300,
            "byteOffset" : 77092
        },
        {
            "buffer" : 0,
            "byteLength" : 200,
            "byteOffset" : 77392
        },
        {
            "buffer" : 0,
            "byteLength" : 90,
            "byteOffset" : 77592
        },
        {
            "buffer" : 0,
            "byteLength" : 96,
            "byteOffset" : 77684
        },
        {
            "buffer" : 0,
            "byteLength" : 96,
            "byteOffset" : 77780
        },
        {
            "buffer" : 0,
            "byteLength" : 64,
            "byteOffset" : 77876
        },
        {
            "buffer" : 0,
            "byteLength" : 24,
            "byteOffset" : 77940
        },
        {
            "buffer" : 0,
            "byteLength" : 12576,
            "byteOffset" : 77964
        },
        {
            "buffer" : 0,
            "byteLength" : 12576,
            "byteOffset" : 90540
        },
        {
            "buffer" : 0,
            "byteLength" : 8384,
            "byteOffset" : 103116
        },
        {
            "buffer" : 0,
            "byteLength" : 3984,
            "byteOffset" : 111500
        }
    ],
    "buffers" : [
        {
            "byteLength" : 115484,
            "uri" : "data:application/octet-stream;base64,"
        }
    ]
}
