{
    "asset" : {
        "generator" : "Khronos glTF Blender I/O v3.2.43",
        "version" : "2.0"
    },
    "scene" : 0,
    "scenes" : [
        {
            "name" : "Scene",
            "nodes" : [
                0
            ]
        }
    ],
    "nodes" : [
        {
            "mesh" : 0,
            "name" : "taxi",
            "rotation" : [
                0.7071068286895752,
                0,
                0,
                0.7071067094802856
            ]
        }
    ],
    "materials" : [
        {
            "doubleSided" : true,
            "name" : "plastic.014",
            "pbrMetallicRoughness" : {
                "baseColorFactor" : [
                    0.3764705955982208,
                    0.3764705955982208,
                    0.3764705955982208,
                    1
                ],
                "metallicFactor" : 0
            }
        },
        {
            "doubleSided" : true,
            "name" : "paintYellow.003",
            "pbrMetallicRoughness" : {
                "baseColorFactor" : [
                    0.9764705896377563,
                    0.7686275243759155,
                    0.2745097875595093,
                    1
                ],
                "metallicFactor" : 0
            }
        },
        {
            "doubleSided" : true,
            "name" : "lightFront.012",
            "pbrMetallicRoughness" : {
                "baseColorFactor" : [
                    1,
                    0.9762833118438721,
                    0.9292452931404114,
                    1
                ],
                "metallicFactor" : 0
            }
        },
        {
            "doubleSided" : true,
            "name" : "_defaultMat.014",
            "pbrMetallicRoughness" : {
                "metallicFactor" : 0
            }
        },
        {
            "doubleSided" : true,
            "name" : "window.014",
            "pbrMetallicRoughness" : {
                "baseColorFactor" : [
                    0.9372549057006836,
                    0.9372549057006836,
                    0.9372549057006836,
                    1
                ],
                "metallicFactor" : 0
            }
        },
        {
            "doubleSided" : true,
            "name" : "lightBack.010",
            "pbrMetallicRoughness" : {
                "baseColorFactor" : [
                    1,
                    0.3490195870399475,
                    0.22745099663734436,
                    1
                ],
                "metallicFactor" : 0
            }
        },
        {
            "doubleSided" : true,
            "name" : "carTire.014",
            "pbrMetallicRoughness" : {
                "baseColorFactor" : [
                    0.2392157018184662,
                    0.2392157018184662,
                    0.2392157018184662,
                    1
                ],
                "metallicFactor" : 0
            }
        }
    ],
    "meshes" : [
        {
            "name" : "taxi",
            "primitives" : [
                {
                    "attributes" : {
                        "POSITION" : 0,
                        "NORMAL" : 1,
                        "TEXCOORD_0" : 2
                    },
                    "indices" : 3,
                    "material" : 0
                },
                {
                    "attributes" : {
                        "POSITION" : 4,
                        "NORMAL" : 5,
                        "TEXCOORD_0" : 6
                    },
                    "indices" : 7,
                    "material" : 1
                },
                {
                    "attributes" : {
                        "POSITION" : 8,
                        "NORMAL" : 9,
                        "TEXCOORD_0" : 10
                    },
                    "indices" : 11,
                    "material" : 2
                },
                {
                    "attributes" : {
                        "POSITION" : 12,
                        "NORMAL" : 13,
                        "TEXCOORD_0" : 14
                    },
                    "indices" : 15,
                    "material" : 3
                },
                {
                    "attributes" : {
                        "POSITION" : 16,
                        "NORMAL" : 17,
                        "TEXCOORD_0" : 18
                    },
                    "indices" : 19,
                    "material" : 4
                },
                {
                    "attributes" : {
                        "POSITION" : 20,
                        "NORMAL" : 21,
                        "TEXCOORD_0" : 22
                    },
                    "indices" : 23,
                    "material" : 5
                },
                {
                    "attributes" : {
                        "POSITION" : 24,
                        "NORMAL" : 25,
                        "TEXCOORD_0" : 26
                    },
                    "indices" : 27,
                    "material" : 6
                }
            ]
        }
    ],
    "accessors" : [
        {
            "bufferView" : 0,
            "componentType" : 5126,
            "count" : 1670,
            "max" : [
                0.48750001192092896,
                1.0125000476837158,
                -0.1013398990035057
            ],
            "min" : [
                -0.48750001192092896,
                -1.0125000476837158,
                -0.5174999833106995
            ],
            "type" : "VEC3"
        },
        {
            "bufferView" : 1,
            "componentType" : 5126,
            "count" : 1670,
            "type" : "VEC3"
        },
        {
            "bufferView" : 2,
            "componentType" : 5126,
            "count" : 1670,
            "type" : "VEC2"
        },
        {
            "bufferView" : 3,
            "componentType" : 5123,
            "count" : 3372,
            "type" : "SCALAR"
        },
        {
            "bufferView" : 4,
            "componentType" : 5126,
            "count" : 184,
            "max" : [
                0.5625,
                0.9375,
                -0.375
            ],
            "min" : [
                -0.5625,
                -1.0125000476837158,
                -0.9750000238418579
            ],
            "type" : "VEC3"
        },
        {
            "bufferView" : 5,
            "componentType" : 5126,
            "count" : 184,
            "type" : "VEC3"
        },
        {
            "bufferView" : 6,
            "componentType" : 5126,
            "count" : 184,
            "type" : "VEC2"
        },
        {
            "bufferView" : 7,
            "componentType" : 5123,
            "count" : 426,
            "type" : "SCALAR"
        },
        {
            "bufferView" : 8,
            "componentType" : 5126,
            "count" : 8,
            "max" : [
                0.4124999940395355,
                0.9375,
                -0.5249999761581421
            ],
            "min" : [
                -0.4124999940395355,
                0.9375,
                -0.6000000238418579
            ],
            "type" : "VEC3"
        },
        {
            "bufferView" : 9,
            "componentType" : 5126,
            "count" : 8,
            "type" : "VEC3"
        },
        {
            "bufferView" : 10,
            "componentType" : 5126,
            "count" : 8,
            "type" : "VEC2"
        },
        {
            "bufferView" : 11,
            "componentType" : 5123,
            "count" : 12,
            "type" : "SCALAR"
        },
        {
            "bufferView" : 12,
            "componentType" : 5126,
            "count" : 54,
            "max" : [
                0.5625,
                0.31717661023139954,
                -0.375
            ],
            "min" : [
                -0.5625,
                -0.3375000059604645,
                -1.125
            ],
            "type" : "VEC3"
        },
        {
            "bufferView" : 13,
            "componentType" : 5126,
            "count" : 54,
            "type" : "VEC3"
        },
        {
            "bufferView" : 14,
            "componentType" : 5126,
            "count" : 54,
            "type" : "VEC2"
        },
        {
            "bufferView" : 15,
            "componentType" : 5123,
            "count" : 54,
            "type" : "SCALAR"
        },
        {
            "bufferView" : 16,
            "componentType" : 5126,
            "count" : 20,
            "max" : [
                0.4124999940395355,
                0.48750001192092896,
                -0.6000000238418579
            ],
            "min" : [
                -0.4124999940395355,
                -0.6096457242965698,
                -0.9164348244667053
            ],
            "type" : "VEC3"
        },
        {
            "bufferView" : 17,
            "componentType" : 5126,
            "count" : 20,
            "type" : "VEC3"
        },
        {
            "bufferView" : 18,
            "componentType" : 5126,
            "count" : 20,
            "type" : "VEC2"
        },
        {
            "bufferView" : 19,
            "componentType" : 5123,
            "count" : 36,
            "type" : "SCALAR"
        },
        {
            "bufferView" : 20,
            "componentType" : 5126,
            "count" : 8,
            "max" : [
                0.4124999940395355,
                -1.0125000476837158,
                -0.44999998807907104
            ],
            "min" : [
                -0.4124999940395355,
                -1.0125000476837158,
                -0.5249999761581421
            ],
            "type" : "VEC3"
        },
        {
            "bufferView" : 21,
            "componentType" : 5126,
            "count" : 8,
            "type" : "VEC3"
        },
        {
            "bufferView" : 22,
            "componentType" : 5126,
            "count" : 8,
            "type" : "VEC2"
        },
        {
            "bufferView" : 23,
            "componentType" : 5123,
            "count" : 12,
            "type" : "SCALAR"
        },
        {
            "bufferView" : 24,
            "componentType" : 5126,
            "count" : 1048,
            "max" : [
                0.48750001192092896,
                0.7950000166893005,
                0
            ],
            "min" : [
                -0.48750001192092896,
                -0.7950000166893005,
                -0.44999998807907104
            ],
            "type" : "VEC3"
        },
        {
            "bufferView" : 25,
            "componentType" : 5126,
            "count" : 1048,
            "type" : "VEC3"
        },
        {
            "bufferView" : 26,
            "componentType" : 5126,
            "count" : 1048,
            "type" : "VEC2"
        },
        {
            "bufferView" : 27,
            "componentType" : 5123,
            "count" : 1992,
            "type" : "SCALAR"
        }
    ],
    "bufferViews" : [
        {
            "buffer" : 0,
            "byteLength" : 20040,
            "byteOffset" : 0
        },
        {
            "buffer" : 0,
            "byteLength" : 20040,
            "byteOffset" : 20040
        },
        {
            "buffer" : 0,
            "byteLength" : 13360,
            "byteOffset" : 40080
        },
        {
            "buffer" : 0,
            "byteLength" : 6744,
            "byteOffset" : 53440
        },
        {
            "buffer" : 0,
            "byteLength" : 2208,
            "byteOffset" : 60184
        },
        {
            "buffer" : 0,
            "byteLength" : 2208,
            "byteOffset" : 62392
        },
        {
            "buffer" : 0,
            "byteLength" : 1472,
            "byteOffset" : 64600
        },
        {
            "buffer" : 0,
            "byteLength" : 852,
            "byteOffset" : 66072
        },
        {
            "buffer" : 0,
            "byteLength" : 96,
            "byteOffset" : 66924
        },
        {
            "buffer" : 0,
            "byteLength" : 96,
            "byteOffset" : 67020
        },
        {
            "buffer" : 0,
            "byteLength" : 64,
            "byteOffset" : 67116
        },
        {
            "buffer" : 0,
            "byteLength" : 24,
            "byteOffset" : 67180
        },
        {
            "buffer" : 0,
            "byteLength" : 648,
            "byteOffset" : 67204
        },
        {
            "buffer" : 0,
            "byteLength" : 648,
            "byteOffset" : 67852
        },
        {
            "buffer" : 0,
            "byteLength" : 432,
            "byteOffset" : 68500
        },
        {
            "buffer" : 0,
            "byteLength" : 108,
            "byteOffset" : 68932
        },
        {
            "buffer" : 0,
            "byteLength" : 240,
            "byteOffset" : 69040
        },
        {
            "buffer" : 0,
            "byteLength" : 240,
            "byteOffset" : 69280
        },
        {
            "buffer" : 0,
            "byteLength" : 160,
            "byteOffset" : 69520
        },
        {
            "buffer" : 0,
            "byteLength" : 72,
            "byteOffset" : 69680
        },
        {
            "buffer" : 0,
            "byteLength" : 96,
            "byteOffset" : 69752
        },
        {
            "buffer" : 0,
            "byteLength" : 96,
            "byteOffset" : 69848
        },
        {
            "buffer" : 0,
            "byteLength" : 64,
            "byteOffset" : 69944
        },
        {
            "buffer" : 0,
            "byteLength" : 24,
            "byteOffset" : 70008
        },
        {
            "buffer" : 0,
            "byteLength" : 12576,
            "byteOffset" : 70032
        },
        {
            "buffer" : 0,
            "byteLength" : 12576,
            "byteOffset" : 82608
        },
        {
            "buffer" : 0,
            "byteLength" : 8384,
            "byteOffset" : 95184
        },
        {
            "buffer" : 0,
            "byteLength" : 3984,
            "byteOffset" : 103568
        }
    ],
    "buffers" : [
        {
            "byteLength" : 107552,
            "uri" : "data:application/octet-stream;base64,"
        }
    ]
}
