{
    "asset" : {
        "generator" : "Khronos glTF Blender I/O v3.2.43",
        "version" : "2.0"
    },
    "scene" : 0,
    "scenes" : [
        {
            "name" : "Scene",
            "nodes" : [
                0
            ]
        }
    ],
    "nodes" : [
        {
            "mesh" : 0,
            "name" : "tractorShovel",
            "rotation" : [
                0.7071068286895752,
                0,
                0,
                0.7071067094802856
            ]
        }
    ],
    "materials" : [
        {
            "doubleSided" : true,
            "name" : "paintYellow.006",
            "pbrMetallicRoughness" : {
                "baseColorFactor" : [
                    0.9764705896377563,
                    0.7686275243759155,
                    0.2745097875595093,
                    1
                ],
                "metallicFactor" : 0
            }
        },
        {
            "doubleSided" : true,
            "name" : "window.017",
            "pbrMetallicRoughness" : {
                "baseColorFactor" : [
                    0.9372549057006836,
                    0.9372549057006836,
                    0.9372549057006836,
                    1
                ],
                "metallicFactor" : 0
            }
        },
        {
            "doubleSided" : true,
            "name" : "plastic.017",
            "pbrMetallicRoughness" : {
                "baseColorFactor" : [
                    0.3764705955982208,
                    0.3764705955982208,
                    0.3764705955982208,
                    1
                ],
                "metallicFactor" : 0
            }
        },
        {
            "doubleSided" : true,
            "name" : "_defaultMat.017",
            "pbrMetallicRoughness" : {
                "metallicFactor" : 0
            }
        },
        {
            "doubleSided" : true,
            "name" : "lightFront.015",
            "pbrMetallicRoughness" : {
                "baseColorFactor" : [
                    1,
                    0.9762833118438721,
                    0.9292452931404114,
                    1
                ],
                "metallicFactor" : 0
            }
        },
        {
            "doubleSided" : true,
            "name" : "carTire.017",
            "pbrMetallicRoughness" : {
                "baseColorFactor" : [
                    0.2392157018184662,
                    0.2392157018184662,
                    0.2392157018184662,
                    1
                ],
                "metallicFactor" : 0
            }
        }
    ],
    "meshes" : [
        {
            "name" : "tractorShovel",
            "primitives" : [
                {
                    "attributes" : {
                        "POSITION" : 0,
                        "NORMAL" : 1,
                        "TEXCOORD_0" : 2
                    },
                    "indices" : 3,
                    "material" : 0
                },
                {
                    "attributes" : {
                        "POSITION" : 4,
                        "NORMAL" : 5,
                        "TEXCOORD_0" : 6
                    },
                    "indices" : 7,
                    "material" : 1
                },
                {
                    "attributes" : {
                        "POSITION" : 8,
                        "NORMAL" : 9,
                        "TEXCOORD_0" : 10
                    },
                    "indices" : 11,
                    "material" : 2
                },
                {
                    "attributes" : {
                        "POSITION" : 12,
                        "NORMAL" : 13,
                        "TEXCOORD_0" : 14
                    },
                    "indices" : 15,
                    "material" : 3
                },
                {
                    "attributes" : {
                        "POSITION" : 16,
                        "NORMAL" : 17,
                        "TEXCOORD_0" : 18
                    },
                    "indices" : 19,
                    "material" : 4
                },
                {
                    "attributes" : {
                        "POSITION" : 20,
                        "NORMAL" : 21,
                        "TEXCOORD_0" : 22
                    },
                    "indices" : 23,
                    "material" : 5
                }
            ]
        }
    ],
    "accessors" : [
        {
            "bufferView" : 0,
            "componentType" : 5126,
            "count" : 894,
            "max" : [
                0.5852100253105164,
                0.858610212802887,
                -0.09096264839172363
            ],
            "min" : [
                -0.5852100253105164,
                -0.7932605743408203,
                -1.0965189933776855
            ],
            "type" : "VEC3"
        },
        {
            "bufferView" : 1,
            "componentType" : 5126,
            "count" : 894,
            "type" : "VEC3"
        },
        {
            "bufferView" : 2,
            "componentType" : 5126,
            "count" : 894,
            "type" : "VEC2"
        },
        {
            "bufferView" : 3,
            "componentType" : 5123,
            "count" : 1938,
            "type" : "SCALAR"
        },
        {
            "bufferView" : 4,
            "componentType" : 5126,
            "count" : 20,
            "max" : [
                0.37867501378059387,
                0.048239268362522125,
                -0.5916187763214111
            ],
            "min" : [
                -0.37867501378059387,
                -0.709110677242279,
                -1.0160670280456543
            ],
            "type" : "VEC3"
        },
        {
            "bufferView" : 5,
            "componentType" : 5126,
            "count" : 20,
            "type" : "VEC3"
        },
        {
            "bufferView" : 6,
            "componentType" : 5126,
            "count" : 20,
            "type" : "VEC2"
        },
        {
            "bufferView" : 7,
            "componentType" : 5123,
            "count" : 36,
            "type" : "SCALAR"
        },
        {
            "bufferView" : 8,
            "componentType" : 5126,
            "count" : 1492,
            "max" : [
                0.5852100253105164,
                0.85310298204422,
                -0.12879380583763123
            ],
            "min" : [
                -0.5852100253105164,
                -0.8586102724075317,
                -1.0965189933776855
            ],
            "type" : "VEC3"
        },
        {
            "bufferView" : 9,
            "componentType" : 5126,
            "count" : 1492,
            "type" : "VEC3"
        },
        {
            "bufferView" : 10,
            "componentType" : 5126,
            "count" : 1492,
            "type" : "VEC2"
        },
        {
            "bufferView" : 11,
            "componentType" : 5123,
            "count" : 2856,
            "type" : "SCALAR"
        },
        {
            "bufferView" : 12,
            "componentType" : 5126,
            "count" : 16,
            "max" : [
                0.4628250002861023,
                -0.03591072931885719,
                -0.5074688196182251
            ],
            "min" : [
                -0.4628250002861023,
                -0.03591072931885719,
                -0.6757686734199524
            ],
            "type" : "VEC3"
        },
        {
            "bufferView" : 13,
            "componentType" : 5126,
            "count" : 16,
            "type" : "VEC3"
        },
        {
            "bufferView" : 14,
            "componentType" : 5126,
            "count" : 16,
            "type" : "VEC2"
        },
        {
            "bufferView" : 15,
            "componentType" : 5123,
            "count" : 18,
            "type" : "SCALAR"
        },
        {
            "bufferView" : 16,
            "componentType" : 5126,
            "count" : 8,
            "max" : [
                0.29452499747276306,
                0.5643079876899719,
                -0.4233187139034271
            ],
            "min" : [
                -0.29452499747276306,
                0.5643079876899719,
                -0.5074688196182251
            ],
            "type" : "VEC3"
        },
        {
            "bufferView" : 17,
            "componentType" : 5126,
            "count" : 8,
            "type" : "VEC3"
        },
        {
            "bufferView" : 18,
            "componentType" : 5126,
            "count" : 8,
            "type" : "VEC2"
        },
        {
            "bufferView" : 19,
            "componentType" : 5123,
            "count" : 12,
            "type" : "SCALAR"
        },
        {
            "bufferView" : 20,
            "componentType" : 5126,
            "count" : 1050,
            "max" : [
                0.5852100253105164,
                0.5033692121505737,
                4.470348002882929e-08
            ],
            "min" : [
                -0.5852100253105164,
                -0.7757108211517334,
                -0.6563699841499329
            ],
            "type" : "VEC3"
        },
        {
            "bufferView" : 21,
            "componentType" : 5126,
            "count" : 1050,
            "type" : "VEC3"
        },
        {
            "bufferView" : 22,
            "componentType" : 5126,
            "count" : 1050,
            "type" : "VEC2"
        },
        {
            "bufferView" : 23,
            "componentType" : 5123,
            "count" : 1992,
            "type" : "SCALAR"
        }
    ],
    "bufferViews" : [
        {
            "buffer" : 0,
            "byteLength" : 10728,
            "byteOffset" : 0
        },
        {
            "buffer" : 0,
            "byteLength" : 10728,
            "byteOffset" : 10728
        },
        {
            "buffer" : 0,
            "byteLength" : 7152,
            "byteOffset" : 21456
        },
        {
            "buffer" : 0,
            "byteLength" : 3876,
            "byteOffset" : 28608
        },
        {
            "buffer" : 0,
            "byteLength" : 240,
            "byteOffset" : 32484
        },
        {
            "buffer" : 0,
            "byteLength" : 240,
            "byteOffset" : 32724
        },
        {
            "buffer" : 0,
            "byteLength" : 160,
            "byteOffset" : 32964
        },
        {
            "buffer" : 0,
            "byteLength" : 72,
            "byteOffset" : 33124
        },
        {
            "buffer" : 0,
            "byteLength" : 17904,
            "byteOffset" : 33196
        },
        {
            "buffer" : 0,
            "byteLength" : 17904,
            "byteOffset" : 51100
        },
        {
            "buffer" : 0,
            "byteLength" : 11936,
            "byteOffset" : 69004
        },
        {
            "buffer" : 0,
            "byteLength" : 5712,
            "byteOffset" : 80940
        },
        {
            "buffer" : 0,
            "byteLength" : 192,
            "byteOffset" : 86652
        },
        {
            "buffer" : 0,
            "byteLength" : 192,
            "byteOffset" : 86844
        },
        {
            "buffer" : 0,
            "byteLength" : 128,
            "byteOffset" : 87036
        },
        {
            "buffer" : 0,
            "byteLength" : 36,
            "byteOffset" : 87164
        },
        {
            "buffer" : 0,
            "byteLength" : 96,
            "byteOffset" : 87200
        },
        {
            "buffer" : 0,
            "byteLength" : 96,
            "byteOffset" : 87296
        },
        {
            "buffer" : 0,
            "byteLength" : 64,
            "byteOffset" : 87392
        },
        {
            "buffer" : 0,
            "byteLength" : 24,
            "byteOffset" : 87456
        },
        {
            "buffer" : 0,
            "byteLength" : 12600,
            "byteOffset" : 87480
        },
        {
            "buffer" : 0,
            "byteLength" : 12600,
            "byteOffset" : 100080
        },
        {
            "buffer" : 0,
            "byteLength" : 8400,
            "byteOffset" : 112680
        },
        {
            "buffer" : 0,
            "byteLength" : 3984,
            "byteOffset" : 121080
        }
    ],
    "buffers" : [
        {
            "byteLength" : 125064,
            "uri" : "data:application/octet-stream;base64,"
        }
    ]
}
