{
    "asset" : {
        "generator" : "Khronos glTF Blender I/O v3.2.43",
        "version" : "2.0"
    },
    "scene" : 0,
    "scenes" : [
        {
            "name" : "Scene",
            "nodes" : [
                0
            ]
        }
    ],
    "nodes" : [
        {
            "mesh" : 0,
            "name" : "tractorPolice",
            "rotation" : [
                0.7071068286895752,
                0,
                0,
                0.7071067094802856
            ]
        }
    ],
    "materials" : [
        {
            "doubleSided" : true,
            "name" : "paintWhite.005",
            "pbrMetallicRoughness" : {
                "baseColorFactor" : [
                    0.8980392217636108,
                    0.9058824181556702,
                    0.9686275124549866,
                    1
                ],
                "metallicFactor" : 0
            }
        },
        {
            "doubleSided" : true,
            "name" : "window.016",
            "pbrMetallicRoughness" : {
                "baseColorFactor" : [
                    0.9372549057006836,
                    0.9372549057006836,
                    0.9372549057006836,
                    1
                ],
                "metallicFactor" : 0
            }
        },
        {
            "doubleSided" : true,
            "name" : "plastic.016",
            "pbrMetallicRoughness" : {
                "baseColorFactor" : [
                    0.3764705955982208,
                    0.3764705955982208,
                    0.3764705955982208,
                    1
                ],
                "metallicFactor" : 0
            }
        },
        {
            "doubleSided" : true,
            "name" : "lightFront.014",
            "pbrMetallicRoughness" : {
                "baseColorFactor" : [
                    1,
                    0.9762833118438721,
                    0.9292452931404114,
                    1
                ],
                "metallicFactor" : 0
            }
        },
        {
            "doubleSided" : true,
            "name" : "_defaultMat.016",
            "pbrMetallicRoughness" : {
                "metallicFactor" : 0
            }
        },
        {
            "doubleSided" : true,
            "name" : "lightBlue.004",
            "pbrMetallicRoughness" : {
                "baseColorFactor" : [
                    0.3568628132343292,
                    0.6941177248954773,
                    1,
                    1
                ],
                "metallicFactor" : 0
            }
        },
        {
            "doubleSided" : true,
            "name" : "carTire.016",
            "pbrMetallicRoughness" : {
                "baseColorFactor" : [
                    0.2392157018184662,
                    0.2392157018184662,
                    0.2392157018184662,
                    1
                ],
                "metallicFactor" : 0
            }
        },
        {
            "doubleSided" : true,
            "name" : "lightBack.011",
            "pbrMetallicRoughness" : {
                "baseColorFactor" : [
                    1,
                    0.3490195870399475,
                    0.22745099663734436,
                    1
                ],
                "metallicFactor" : 0
            }
        },
        {
            "doubleSided" : true,
            "name" : "paintYellow.005",
            "pbrMetallicRoughness" : {
                "baseColorFactor" : [
                    0.9764705896377563,
                    0.7686275243759155,
                    0.2745097875595093,
                    1
                ],
                "metallicFactor" : 0
            }
        }
    ],
    "meshes" : [
        {
            "name" : "tractorPolice",
            "primitives" : [
                {
                    "attributes" : {
                        "POSITION" : 0,
                        "NORMAL" : 1,
                        "TEXCOORD_0" : 2
                    },
                    "indices" : 3,
                    "material" : 0
                },
                {
                    "attributes" : {
                        "POSITION" : 4,
                        "NORMAL" : 5,
                        "TEXCOORD_0" : 6
                    },
                    "indices" : 7,
                    "material" : 1
                },
                {
                    "attributes" : {
                        "POSITION" : 8,
                        "NORMAL" : 9,
                        "TEXCOORD_0" : 10
                    },
                    "indices" : 11,
                    "material" : 2
                },
                {
                    "attributes" : {
                        "POSITION" : 12,
                        "NORMAL" : 13,
                        "TEXCOORD_0" : 14
                    },
                    "indices" : 15,
                    "material" : 3
                },
                {
                    "attributes" : {
                        "POSITION" : 16,
                        "NORMAL" : 17,
                        "TEXCOORD_0" : 18
                    },
                    "indices" : 19,
                    "material" : 4
                },
                {
                    "attributes" : {
                        "POSITION" : 20,
                        "NORMAL" : 21,
                        "TEXCOORD_0" : 22
                    },
                    "indices" : 23,
                    "material" : 5
                },
                {
                    "attributes" : {
                        "POSITION" : 24,
                        "NORMAL" : 25,
                        "TEXCOORD_0" : 26
                    },
                    "indices" : 27,
                    "material" : 6
                },
                {
                    "attributes" : {
                        "POSITION" : 28,
                        "NORMAL" : 29,
                        "TEXCOORD_0" : 30
                    },
                    "indices" : 31,
                    "material" : 7
                },
                {
                    "attributes" : {
                        "POSITION" : 32,
                        "NORMAL" : 33,
                        "TEXCOORD_0" : 34
                    },
                    "indices" : 35,
                    "material" : 8
                }
            ]
        }
    ],
    "accessors" : [
        {
            "bufferView" : 0,
            "componentType" : 5126,
            "count" : 294,
            "max" : [
                0.6227099895477295,
                0.6664965748786926,
                -0.12879380583763123
            ],
            "min" : [
                -0.4628250002861023,
                -0.6910719871520996,
                -1.0965189933776855
            ],
            "type" : "VEC3"
        },
        {
            "bufferView" : 1,
            "componentType" : 5126,
            "count" : 294,
            "type" : "VEC3"
        },
        {
            "bufferView" : 2,
            "componentType" : 5126,
            "count" : 294,
            "type" : "VEC2"
        },
        {
            "bufferView" : 3,
            "componentType" : 5123,
            "count" : 558,
            "type" : "SCALAR"
        },
        {
            "bufferView" : 4,
            "componentType" : 5126,
            "count" : 20,
            "max" : [
                0.37867501378059387,
                0.1504278928041458,
                -0.5916187763214111
            ],
            "min" : [
                -0.37867501378059387,
                -0.6069219708442688,
                -1.0160670280456543
            ],
            "type" : "VEC3"
        },
        {
            "bufferView" : 5,
            "componentType" : 5126,
            "count" : 20,
            "type" : "VEC3"
        },
        {
            "bufferView" : 6,
            "componentType" : 5126,
            "count" : 20,
            "type" : "VEC2"
        },
        {
            "bufferView" : 7,
            "componentType" : 5123,
            "count" : 36,
            "type" : "SCALAR"
        },
        {
            "bufferView" : 8,
            "componentType" : 5126,
            "count" : 1692,
            "max" : [
                0.6227099895477295,
                0.756421685218811,
                -0.09096264839172363
            ],
            "min" : [
                -0.6227099895477295,
                -0.7564216256141663,
                -1.0965189933776855
            ],
            "type" : "VEC3"
        },
        {
            "bufferView" : 9,
            "componentType" : 5126,
            "count" : 1692,
            "type" : "VEC3"
        },
        {
            "bufferView" : 10,
            "componentType" : 5126,
            "count" : 1692,
            "type" : "VEC2"
        },
        {
            "bufferView" : 11,
            "componentType" : 5123,
            "count" : 3384,
            "type" : "SCALAR"
        },
        {
            "bufferView" : 12,
            "componentType" : 5126,
            "count" : 8,
            "max" : [
                0.37867501378059387,
                0.6664965748786926,
                -0.4233187139034271
            ],
            "min" : [
                -0.37867501378059387,
                0.6664965748786926,
                -0.5074688196182251
            ],
            "type" : "VEC3"
        },
        {
            "bufferView" : 13,
            "componentType" : 5126,
            "count" : 8,
            "type" : "VEC3"
        },
        {
            "bufferView" : 14,
            "componentType" : 5126,
            "count" : 8,
            "type" : "VEC2"
        },
        {
            "bufferView" : 15,
            "componentType" : 5123,
            "count" : 12,
            "type" : "SCALAR"
        },
        {
            "bufferView" : 16,
            "componentType" : 5126,
            "count" : 28,
            "max" : [
                0.4628250002861023,
                0.7414966821670532,
                -0.2879438102245331
            ],
            "min" : [
                -0.4628250002861023,
                0.0662778913974762,
                -0.6757686734199524
            ],
            "type" : "VEC3"
        },
        {
            "bufferView" : 17,
            "componentType" : 5126,
            "count" : 28,
            "type" : "VEC3"
        },
        {
            "bufferView" : 18,
            "componentType" : 5126,
            "count" : 28,
            "type" : "VEC2"
        },
        {
            "bufferView" : 19,
            "componentType" : 5123,
            "count" : 30,
            "type" : "SCALAR"
        },
        {
            "bufferView" : 20,
            "componentType" : 5126,
            "count" : 20,
            "max" : [
                -0.09337499737739563,
                0.7414966821670532,
                -0.2879438102245331
            ],
            "min" : [
                -0.24771520495414734,
                -0.15440809726715088,
                -1.1715190410614014
            ],
            "type" : "VEC3"
        },
        {
            "bufferView" : 21,
            "componentType" : 5126,
            "count" : 20,
            "type" : "VEC3"
        },
        {
            "bufferView" : 22,
            "componentType" : 5126,
            "count" : 20,
            "type" : "VEC2"
        },
        {
            "bufferView" : 23,
            "componentType" : 5123,
            "count" : 30,
            "type" : "SCALAR"
        },
        {
            "bufferView" : 24,
            "componentType" : 5126,
            "count" : 1061,
            "max" : [
                0.6227099895477295,
                0.7555578947067261,
                4.470348002882929e-08
            ],
            "min" : [
                -0.6227099895477295,
                -0.6735221743583679,
                -1.1715190410614014
            ],
            "type" : "VEC3"
        },
        {
            "bufferView" : 25,
            "componentType" : 5126,
            "count" : 1061,
            "type" : "VEC3"
        },
        {
            "bufferView" : 26,
            "componentType" : 5126,
            "count" : 1061,
            "type" : "VEC2"
        },
        {
            "bufferView" : 27,
            "componentType" : 5123,
            "count" : 2010,
            "type" : "SCALAR"
        },
        {
            "bufferView" : 28,
            "componentType" : 5126,
            "count" : 20,
            "max" : [
                0.24771520495414734,
                0.7414966821670532,
                -0.2879438102245331
            ],
            "min" : [
                0.09337499737739563,
                -0.15440809726715088,
                -1.1715190410614014
            ],
            "type" : "VEC3"
        },
        {
            "bufferView" : 29,
            "componentType" : 5126,
            "count" : 20,
            "type" : "VEC3"
        },
        {
            "bufferView" : 30,
            "componentType" : 5126,
            "count" : 20,
            "type" : "VEC2"
        },
        {
            "bufferView" : 31,
            "componentType" : 5123,
            "count" : 30,
            "type" : "SCALAR"
        },
        {
            "bufferView" : 32,
            "componentType" : 5126,
            "count" : 360,
            "max" : [
                -0.4291650056838989,
                0.6645951271057129,
                -0.09096264839172363
            ],
            "min" : [
                -0.6227099895477295,
                -0.564812183380127,
                -0.5476599931716919
            ],
            "type" : "VEC3"
        },
        {
            "bufferView" : 33,
            "componentType" : 5126,
            "count" : 360,
            "type" : "VEC3"
        },
        {
            "bufferView" : 34,
            "componentType" : 5126,
            "count" : 360,
            "type" : "VEC2"
        },
        {
            "bufferView" : 35,
            "componentType" : 5123,
            "count" : 786,
            "type" : "SCALAR"
        }
    ],
    "bufferViews" : [
        {
            "buffer" : 0,
            "byteLength" : 3528,
            "byteOffset" : 0
        },
        {
            "buffer" : 0,
            "byteLength" : 3528,
            "byteOffset" : 3528
        },
        {
            "buffer" : 0,
            "byteLength" : 2352,
            "byteOffset" : 7056
        },
        {
            "buffer" : 0,
            "byteLength" : 1116,
            "byteOffset" : 9408
        },
        {
            "buffer" : 0,
            "byteLength" : 240,
            "byteOffset" : 10524
        },
        {
            "buffer" : 0,
            "byteLength" : 240,
            "byteOffset" : 10764
        },
        {
            "buffer" : 0,
            "byteLength" : 160,
            "byteOffset" : 11004
        },
        {
            "buffer" : 0,
            "byteLength" : 72,
            "byteOffset" : 11164
        },
        {
            "buffer" : 0,
            "byteLength" : 20304,
            "byteOffset" : 11236
        },
        {
            "buffer" : 0,
            "byteLength" : 20304,
            "byteOffset" : 31540
        },
        {
            "buffer" : 0,
            "byteLength" : 13536,
            "byteOffset" : 51844
        },
        {
            "buffer" : 0,
            "byteLength" : 6768,
            "byteOffset" : 65380
        },
        {
            "buffer" : 0,
            "byteLength" : 96,
            "byteOffset" : 72148
        },
        {
            "buffer" : 0,
            "byteLength" : 96,
            "byteOffset" : 72244
        },
        {
            "buffer" : 0,
            "byteLength" : 64,
            "byteOffset" : 72340
        },
        {
            "buffer" : 0,
            "byteLength" : 24,
            "byteOffset" : 72404
        },
        {
            "buffer" : 0,
            "byteLength" : 336,
            "byteOffset" : 72428
        },
        {
            "buffer" : 0,
            "byteLength" : 336,
            "byteOffset" : 72764
        },
        {
            "buffer" : 0,
            "byteLength" : 224,
            "byteOffset" : 73100
        },
        {
            "buffer" : 0,
            "byteLength" : 60,
            "byteOffset" : 73324
        },
        {
            "buffer" : 0,
            "byteLength" : 240,
            "byteOffset" : 73384
        },
        {
            "buffer" : 0,
            "byteLength" : 240,
            "byteOffset" : 73624
        },
        {
            "buffer" : 0,
            "byteLength" : 160,
            "byteOffset" : 73864
        },
        {
            "buffer" : 0,
            "byteLength" : 60,
            "byteOffset" : 74024
        },
        {
            "buffer" : 0,
            "byteLength" : 12732,
            "byteOffset" : 74084
        },
        {
            "buffer" : 0,
            "byteLength" : 12732,
            "byteOffset" : 86816
        },
        {
            "buffer" : 0,
            "byteLength" : 8488,
            "byteOffset" : 99548
        },
        {
            "buffer" : 0,
            "byteLength" : 4020,
            "byteOffset" : 108036
        },
        {
            "buffer" : 0,
            "byteLength" : 240,
            "byteOffset" : 112056
        },
        {
            "buffer" : 0,
            "byteLength" : 240,
            "byteOffset" : 112296
        },
        {
            "buffer" : 0,
            "byteLength" : 160,
            "byteOffset" : 112536
        },
        {
            "buffer" : 0,
            "byteLength" : 60,
            "byteOffset" : 112696
        },
        {
            "buffer" : 0,
            "byteLength" : 4320,
            "byteOffset" : 112756
        },
        {
            "buffer" : 0,
            "byteLength" : 4320,
            "byteOffset" : 117076
        },
        {
            "buffer" : 0,
            "byteLength" : 2880,
            "byteOffset" : 121396
        },
        {
            "buffer" : 0,
            "byteLength" : 1572,
            "byteOffset" : 124276
        }
    ],
    "buffers" : [
        {
            "byteLength" : 125848,
            "uri" : "data:application/octet-stream;base64,"
        }
    ]
}
