{
    "asset" : {
        "generator" : "Khronos glTF Blender I/O v3.2.43",
        "version" : "2.0"
    },
    "scene" : 0,
    "scenes" : [
        {
            "name" : "Scene",
            "nodes" : [
                0
            ]
        }
    ],
    "nodes" : [
        {
            "mesh" : 0,
            "name" : "tractor",
            "rotation" : [
                0.7071068286895752,
                0,
                0,
                0.7071067094802856
            ]
        }
    ],
    "materials" : [
        {
            "doubleSided" : true,
            "name" : "paintBlue.001",
            "pbrMetallicRoughness" : {
                "baseColorFactor" : [
                    0.4117647111415863,
                    0.4784314036369324,
                    0.8470587730407715,
                    1
                ],
                "metallicFactor" : 0
            }
        },
        {
            "doubleSided" : true,
            "name" : "window.015",
            "pbrMetallicRoughness" : {
                "baseColorFactor" : [
                    0.9372549057006836,
                    0.9372549057006836,
                    0.9372549057006836,
                    1
                ],
                "metallicFactor" : 0
            }
        },
        {
            "doubleSided" : true,
            "name" : "plastic.015",
            "pbrMetallicRoughness" : {
                "baseColorFactor" : [
                    0.3764705955982208,
                    0.3764705955982208,
                    0.3764705955982208,
                    1
                ],
                "metallicFactor" : 0
            }
        },
        {
            "doubleSided" : true,
            "name" : "lightFront.013",
            "pbrMetallicRoughness" : {
                "baseColorFactor" : [
                    1,
                    0.9762833118438721,
                    0.9292452931404114,
                    1
                ],
                "metallicFactor" : 0
            }
        },
        {
            "doubleSided" : true,
            "name" : "_defaultMat.015",
            "pbrMetallicRoughness" : {
                "metallicFactor" : 0
            }
        },
        {
            "doubleSided" : true,
            "name" : "carTire.015",
            "pbrMetallicRoughness" : {
                "baseColorFactor" : [
                    0.2392157018184662,
                    0.2392157018184662,
                    0.2392157018184662,
                    1
                ],
                "metallicFactor" : 0
            }
        },
        {
            "doubleSided" : true,
            "name" : "paintYellow.004",
            "pbrMetallicRoughness" : {
                "baseColorFactor" : [
                    0.9764705896377563,
                    0.7686275243759155,
                    0.2745097875595093,
                    1
                ],
                "metallicFactor" : 0
            }
        }
    ],
    "meshes" : [
        {
            "name" : "tractor",
            "primitives" : [
                {
                    "attributes" : {
                        "POSITION" : 0,
                        "NORMAL" : 1,
                        "TEXCOORD_0" : 2
                    },
                    "indices" : 3,
                    "material" : 0
                },
                {
                    "attributes" : {
                        "POSITION" : 4,
                        "NORMAL" : 5,
                        "TEXCOORD_0" : 6
                    },
                    "indices" : 7,
                    "material" : 1
                },
                {
                    "attributes" : {
                        "POSITION" : 8,
                        "NORMAL" : 9,
                        "TEXCOORD_0" : 10
                    },
                    "indices" : 11,
                    "material" : 2
                },
                {
                    "attributes" : {
                        "POSITION" : 12,
                        "NORMAL" : 13,
                        "TEXCOORD_0" : 14
                    },
                    "indices" : 15,
                    "material" : 3
                },
                {
                    "attributes" : {
                        "POSITION" : 16,
                        "NORMAL" : 17,
                        "TEXCOORD_0" : 18
                    },
                    "indices" : 19,
                    "material" : 4
                },
                {
                    "attributes" : {
                        "POSITION" : 20,
                        "NORMAL" : 21,
                        "TEXCOORD_0" : 22
                    },
                    "indices" : 23,
                    "material" : 5
                },
                {
                    "attributes" : {
                        "POSITION" : 24,
                        "NORMAL" : 25,
                        "TEXCOORD_0" : 26
                    },
                    "indices" : 27,
                    "material" : 6
                }
            ]
        }
    ],
    "accessors" : [
        {
            "bufferView" : 0,
            "componentType" : 5126,
            "count" : 172,
            "max" : [
                0.4628250002861023,
                0.7114591002464294,
                -0.12879380583763123
            ],
            "min" : [
                -0.4628250002861023,
                -0.6461095809936523,
                -1.0965189933776855
            ],
            "type" : "VEC3"
        },
        {
            "bufferView" : 1,
            "componentType" : 5126,
            "count" : 172,
            "type" : "VEC3"
        },
        {
            "bufferView" : 2,
            "componentType" : 5126,
            "count" : 172,
            "type" : "VEC2"
        },
        {
            "bufferView" : 3,
            "componentType" : 5123,
            "count" : 342,
            "type" : "SCALAR"
        },
        {
            "bufferView" : 4,
            "componentType" : 5126,
            "count" : 20,
            "max" : [
                0.37867501378059387,
                0.19539029896259308,
                -0.5916187763214111
            ],
            "min" : [
                -0.37867501378059387,
                -0.5619596242904663,
                -1.0160670280456543
            ],
            "type" : "VEC3"
        },
        {
            "bufferView" : 5,
            "componentType" : 5126,
            "count" : 20,
            "type" : "VEC3"
        },
        {
            "bufferView" : 6,
            "componentType" : 5126,
            "count" : 20,
            "type" : "VEC2"
        },
        {
            "bufferView" : 7,
            "componentType" : 5123,
            "count" : 36,
            "type" : "SCALAR"
        },
        {
            "bufferView" : 8,
            "componentType" : 5126,
            "count" : 1138,
            "max" : [
                0.6227099895477295,
                0.7114591002464294,
                -0.12879380583763123
            ],
            "min" : [
                -0.6227099895477295,
                -0.711459219455719,
                -1.0965189933776855
            ],
            "type" : "VEC3"
        },
        {
            "bufferView" : 9,
            "componentType" : 5126,
            "count" : 1138,
            "type" : "VEC3"
        },
        {
            "bufferView" : 10,
            "componentType" : 5126,
            "count" : 1138,
            "type" : "VEC2"
        },
        {
            "bufferView" : 11,
            "componentType" : 5123,
            "count" : 2184,
            "type" : "SCALAR"
        },
        {
            "bufferView" : 12,
            "componentType" : 5126,
            "count" : 8,
            "max" : [
                0.37867501378059387,
                0.7114591002464294,
                -0.4233187139034271
            ],
            "min" : [
                -0.37867501378059387,
                0.7114591002464294,
                -0.5074688196182251
            ],
            "type" : "VEC3"
        },
        {
            "bufferView" : 13,
            "componentType" : 5126,
            "count" : 8,
            "type" : "VEC3"
        },
        {
            "bufferView" : 14,
            "componentType" : 5126,
            "count" : 8,
            "type" : "VEC2"
        },
        {
            "bufferView" : 15,
            "componentType" : 5123,
            "count" : 12,
            "type" : "SCALAR"
        },
        {
            "bufferView" : 16,
            "componentType" : 5126,
            "count" : 16,
            "max" : [
                0.4628250002861023,
                0.11124029755592346,
                -0.5074688196182251
            ],
            "min" : [
                -0.4628250002861023,
                0.11124029755592346,
                -0.6757686734199524
            ],
            "type" : "VEC3"
        },
        {
            "bufferView" : 17,
            "componentType" : 5126,
            "count" : 16,
            "type" : "VEC3"
        },
        {
            "bufferView" : 18,
            "componentType" : 5126,
            "count" : 16,
            "type" : "VEC2"
        },
        {
            "bufferView" : 19,
            "componentType" : 5123,
            "count" : 18,
            "type" : "SCALAR"
        },
        {
            "bufferView" : 20,
            "componentType" : 5126,
            "count" : 1050,
            "max" : [
                0.6227099895477295,
                0.6505203247070312,
                4.470348002882929e-08
            ],
            "min" : [
                -0.6227099895477295,
                -0.6285598278045654,
                -0.6563699841499329
            ],
            "type" : "VEC3"
        },
        {
            "bufferView" : 21,
            "componentType" : 5126,
            "count" : 1050,
            "type" : "VEC3"
        },
        {
            "bufferView" : 22,
            "componentType" : 5126,
            "count" : 1050,
            "type" : "VEC2"
        },
        {
            "bufferView" : 23,
            "componentType" : 5123,
            "count" : 1992,
            "type" : "SCALAR"
        },
        {
            "bufferView" : 24,
            "componentType" : 5126,
            "count" : 720,
            "max" : [
                0.6227099895477295,
                0.5595576167106628,
                -0.09096264839172363
            ],
            "min" : [
                -0.6227099895477295,
                -0.5198497772216797,
                -0.5476599931716919
            ],
            "type" : "VEC3"
        },
        {
            "bufferView" : 25,
            "componentType" : 5126,
            "count" : 720,
            "type" : "VEC3"
        },
        {
            "bufferView" : 26,
            "componentType" : 5126,
            "count" : 720,
            "type" : "VEC2"
        },
        {
            "bufferView" : 27,
            "componentType" : 5123,
            "count" : 1572,
            "type" : "SCALAR"
        }
    ],
    "bufferViews" : [
        {
            "buffer" : 0,
            "byteLength" : 2064,
            "byteOffset" : 0
        },
        {
            "buffer" : 0,
            "byteLength" : 2064,
            "byteOffset" : 2064
        },
        {
            "buffer" : 0,
            "byteLength" : 1376,
            "byteOffset" : 4128
        },
        {
            "buffer" : 0,
            "byteLength" : 684,
            "byteOffset" : 5504
        },
        {
            "buffer" : 0,
            "byteLength" : 240,
            "byteOffset" : 6188
        },
        {
            "buffer" : 0,
            "byteLength" : 240,
            "byteOffset" : 6428
        },
        {
            "buffer" : 0,
            "byteLength" : 160,
            "byteOffset" : 6668
        },
        {
            "buffer" : 0,
            "byteLength" : 72,
            "byteOffset" : 6828
        },
        {
            "buffer" : 0,
            "byteLength" : 13656,
            "byteOffset" : 6900
        },
        {
            "buffer" : 0,
            "byteLength" : 13656,
            "byteOffset" : 20556
        },
        {
            "buffer" : 0,
            "byteLength" : 9104,
            "byteOffset" : 34212
        },
        {
            "buffer" : 0,
            "byteLength" : 4368,
            "byteOffset" : 43316
        },
        {
            "buffer" : 0,
            "byteLength" : 96,
            "byteOffset" : 47684
        },
        {
            "buffer" : 0,
            "byteLength" : 96,
            "byteOffset" : 47780
        },
        {
            "buffer" : 0,
            "byteLength" : 64,
            "byteOffset" : 47876
        },
        {
            "buffer" : 0,
            "byteLength" : 24,
            "byteOffset" : 47940
        },
        {
            "buffer" : 0,
            "byteLength" : 192,
            "byteOffset" : 47964
        },
        {
            "buffer" : 0,
            "byteLength" : 192,
            "byteOffset" : 48156
        },
        {
            "buffer" : 0,
            "byteLength" : 128,
            "byteOffset" : 48348
        },
        {
            "buffer" : 0,
            "byteLength" : 36,
            "byteOffset" : 48476
        },
        {
            "buffer" : 0,
            "byteLength" : 12600,
            "byteOffset" : 48512
        },
        {
            "buffer" : 0,
            "byteLength" : 12600,
            "byteOffset" : 61112
        },
        {
            "buffer" : 0,
            "byteLength" : 8400,
            "byteOffset" : 73712
        },
        {
            "buffer" : 0,
            "byteLength" : 3984,
            "byteOffset" : 82112
        },
        {
            "buffer" : 0,
            "byteLength" : 8640,
            "byteOffset" : 86096
        },
        {
            "buffer" : 0,
            "byteLength" : 8640,
            "byteOffset" : 94736
        },
        {
            "buffer" : 0,
            "byteLength" : 5760,
            "byteOffset" : 103376
        },
        {
            "buffer" : 0,
            "byteLength" : 3144,
            "byteOffset" : 109136
        }
    ],
    "buffers" : [
        {
            "byteLength" : 112280,
            "uri" : "data:application/octet-stream;base64,"
        }
    ]
}
