{
    "asset" : {
        "generator" : "Khronos glTF Blender I/O v3.2.43",
        "version" : "2.0"
    },
    "scene" : 0,
    "scenes" : [
        {
            "name" : "Scene",
            "nodes" : [
                0
            ]
        }
    ],
    "nodes" : [
        {
            "mesh" : 0,
            "name" : "van",
            "rotation" : [
                0.7071068286895752,
                0,
                0,
                0.7071067094802856
            ]
        }
    ],
    "materials" : [
        {
            "doubleSided" : true,
            "name" : "plastic.021",
            "pbrMetallicRoughness" : {
                "baseColorFactor" : [
                    0.3764705955982208,
                    0.3764705955982208,
                    0.3764705955982208,
                    1
                ],
                "metallicFactor" : 0
            }
        },
        {
            "doubleSided" : true,
            "name" : "paintBlue.002",
            "pbrMetallicRoughness" : {
                "baseColorFactor" : [
                    0.4117647111415863,
                    0.4784314036369324,
                    0.8470587730407715,
                    1
                ],
                "metallicFactor" : 0
            }
        },
        {
            "doubleSided" : true,
            "name" : "lightFront.019",
            "pbrMetallicRoughness" : {
                "baseColorFactor" : [
                    1,
                    0.9762833118438721,
                    0.9292452931404114,
                    1
                ],
                "metallicFactor" : 0
            }
        },
        {
            "doubleSided" : true,
            "name" : "_defaultMat.021",
            "pbrMetallicRoughness" : {
                "metallicFactor" : 0
            }
        },
        {
            "doubleSided" : true,
            "name" : "lightBack.015",
            "pbrMetallicRoughness" : {
                "baseColorFactor" : [
                    1,
                    0.3490195870399475,
                    0.22745099663734436,
                    1
                ],
                "metallicFactor" : 0
            }
        },
        {
            "doubleSided" : true,
            "name" : "window.021",
            "pbrMetallicRoughness" : {
                "baseColorFactor" : [
                    0.9372549057006836,
                    0.9372549057006836,
                    0.9372549057006836,
                    1
                ],
                "metallicFactor" : 0
            }
        },
        {
            "doubleSided" : true,
            "name" : "carTire.021",
            "pbrMetallicRoughness" : {
                "baseColorFactor" : [
                    0.2392157018184662,
                    0.2392157018184662,
                    0.2392157018184662,
                    1
                ],
                "metallicFactor" : 0
            }
        }
    ],
    "meshes" : [
        {
            "name" : "van",
            "primitives" : [
                {
                    "attributes" : {
                        "POSITION" : 0,
                        "NORMAL" : 1,
                        "TEXCOORD_0" : 2
                    },
                    "indices" : 3,
                    "material" : 0
                },
                {
                    "attributes" : {
                        "POSITION" : 4,
                        "NORMAL" : 5,
                        "TEXCOORD_0" : 6
                    },
                    "indices" : 7,
                    "material" : 1
                },
                {
                    "attributes" : {
                        "POSITION" : 8,
                        "NORMAL" : 9,
                        "TEXCOORD_0" : 10
                    },
                    "indices" : 11,
                    "material" : 2
                },
                {
                    "attributes" : {
                        "POSITION" : 12,
                        "NORMAL" : 13,
                        "TEXCOORD_0" : 14
                    },
                    "indices" : 15,
                    "material" : 3
                },
                {
                    "attributes" : {
                        "POSITION" : 16,
                        "NORMAL" : 17,
                        "TEXCOORD_0" : 18
                    },
                    "indices" : 19,
                    "material" : 4
                },
                {
                    "attributes" : {
                        "POSITION" : 20,
                        "NORMAL" : 21,
                        "TEXCOORD_0" : 22
                    },
                    "indices" : 23,
                    "material" : 5
                },
                {
                    "attributes" : {
                        "POSITION" : 24,
                        "NORMAL" : 25,
                        "TEXCOORD_0" : 26
                    },
                    "indices" : 27,
                    "material" : 6
                }
            ]
        }
    ],
    "accessors" : [
        {
            "bufferView" : 0,
            "componentType" : 5126,
            "count" : 994,
            "max" : [
                0.48750001192092896,
                1.0125000476837158,
                -0.15000000596046448
            ],
            "min" : [
                -0.48750001192092896,
                -1.0125000476837158,
                -0.5174999833106995
            ],
            "type" : "VEC3"
        },
        {
            "bufferView" : 1,
            "componentType" : 5126,
            "count" : 994,
            "type" : "VEC3"
        },
        {
            "bufferView" : 2,
            "componentType" : 5126,
            "count" : 994,
            "type" : "VEC2"
        },
        {
            "bufferView" : 3,
            "componentType" : 5123,
            "count" : 1944,
            "type" : "SCALAR"
        },
        {
            "bufferView" : 4,
            "componentType" : 5126,
            "count" : 164,
            "max" : [
                0.5625,
                0.9375,
                -0.375
            ],
            "min" : [
                -0.5625,
                -1.0125000476837158,
                -0.9750000238418579
            ],
            "type" : "VEC3"
        },
        {
            "bufferView" : 5,
            "componentType" : 5126,
            "count" : 164,
            "type" : "VEC3"
        },
        {
            "bufferView" : 6,
            "componentType" : 5126,
            "count" : 164,
            "type" : "VEC2"
        },
        {
            "bufferView" : 7,
            "componentType" : 5123,
            "count" : 390,
            "type" : "SCALAR"
        },
        {
            "bufferView" : 8,
            "componentType" : 5126,
            "count" : 8,
            "max" : [
                0.4124999940395355,
                0.9375,
                -0.44999998807907104
            ],
            "min" : [
                -0.4124999940395355,
                0.9375,
                -0.5249999761581421
            ],
            "type" : "VEC3"
        },
        {
            "bufferView" : 9,
            "componentType" : 5126,
            "count" : 8,
            "type" : "VEC3"
        },
        {
            "bufferView" : 10,
            "componentType" : 5126,
            "count" : 8,
            "type" : "VEC2"
        },
        {
            "bufferView" : 11,
            "componentType" : 5123,
            "count" : 12,
            "type" : "SCALAR"
        },
        {
            "bufferView" : 12,
            "componentType" : 5126,
            "count" : 1108,
            "max" : [
                0.5625,
                0.7060261964797974,
                -0.08897385746240616
            ],
            "min" : [
                -0.5625,
                -0.7060261964797974,
                -0.675000011920929
            ],
            "type" : "VEC3"
        },
        {
            "bufferView" : 13,
            "componentType" : 5126,
            "count" : 1108,
            "type" : "VEC3"
        },
        {
            "bufferView" : 14,
            "componentType" : 5126,
            "count" : 1108,
            "type" : "VEC2"
        },
        {
            "bufferView" : 15,
            "componentType" : 5123,
            "count" : 1434,
            "type" : "SCALAR"
        },
        {
            "bufferView" : 16,
            "componentType" : 5126,
            "count" : 8,
            "max" : [
                0.4124999940395355,
                -1.0125000476837158,
                -0.44999998807907104
            ],
            "min" : [
                -0.4124999940395355,
                -1.0125000476837158,
                -0.5249999761581421
            ],
            "type" : "VEC3"
        },
        {
            "bufferView" : 17,
            "componentType" : 5126,
            "count" : 8,
            "type" : "VEC3"
        },
        {
            "bufferView" : 18,
            "componentType" : 5126,
            "count" : 8,
            "type" : "VEC2"
        },
        {
            "bufferView" : 19,
            "componentType" : 5123,
            "count" : 12,
            "type" : "SCALAR"
        },
        {
            "bufferView" : 20,
            "componentType" : 5126,
            "count" : 24,
            "max" : [
                0.4124999940395355,
                0.637499988079071,
                -0.6000000238418579
            ],
            "min" : [
                -0.4124999940395355,
                -0.9846457242965698,
                -0.9053642749786377
            ],
            "type" : "VEC3"
        },
        {
            "bufferView" : 21,
            "componentType" : 5126,
            "count" : 24,
            "type" : "VEC3"
        },
        {
            "bufferView" : 22,
            "componentType" : 5126,
            "count" : 24,
            "type" : "VEC2"
        },
        {
            "bufferView" : 23,
            "componentType" : 5123,
            "count" : 48,
            "type" : "SCALAR"
        },
        {
            "bufferView" : 24,
            "componentType" : 5126,
            "count" : 1048,
            "max" : [
                0.48750001192092896,
                0.7950000166893005,
                0
            ],
            "min" : [
                -0.48750001192092896,
                -0.7950000166893005,
                -0.44999998807907104
            ],
            "type" : "VEC3"
        },
        {
            "bufferView" : 25,
            "componentType" : 5126,
            "count" : 1048,
            "type" : "VEC3"
        },
        {
            "bufferView" : 26,
            "componentType" : 5126,
            "count" : 1048,
            "type" : "VEC2"
        },
        {
            "bufferView" : 27,
            "componentType" : 5123,
            "count" : 1992,
            "type" : "SCALAR"
        }
    ],
    "bufferViews" : [
        {
            "buffer" : 0,
            "byteLength" : 11928,
            "byteOffset" : 0
        },
        {
            "buffer" : 0,
            "byteLength" : 11928,
            "byteOffset" : 11928
        },
        {
            "buffer" : 0,
            "byteLength" : 7952,
            "byteOffset" : 23856
        },
        {
            "buffer" : 0,
            "byteLength" : 3888,
            "byteOffset" : 31808
        },
        {
            "buffer" : 0,
            "byteLength" : 1968,
            "byteOffset" : 35696
        },
        {
            "buffer" : 0,
            "byteLength" : 1968,
            "byteOffset" : 37664
        },
        {
            "buffer" : 0,
            "byteLength" : 1312,
            "byteOffset" : 39632
        },
        {
            "buffer" : 0,
            "byteLength" : 780,
            "byteOffset" : 40944
        },
        {
            "buffer" : 0,
            "byteLength" : 96,
            "byteOffset" : 41724
        },
        {
            "buffer" : 0,
            "byteLength" : 96,
            "byteOffset" : 41820
        },
        {
            "buffer" : 0,
            "byteLength" : 64,
            "byteOffset" : 41916
        },
        {
            "buffer" : 0,
            "byteLength" : 24,
            "byteOffset" : 41980
        },
        {
            "buffer" : 0,
            "byteLength" : 13296,
            "byteOffset" : 42004
        },
        {
            "buffer" : 0,
            "byteLength" : 13296,
            "byteOffset" : 55300
        },
        {
            "buffer" : 0,
            "byteLength" : 8864,
            "byteOffset" : 68596
        },
        {
            "buffer" : 0,
            "byteLength" : 2868,
            "byteOffset" : 77460
        },
        {
            "buffer" : 0,
            "byteLength" : 96,
            "byteOffset" : 80328
        },
        {
            "buffer" : 0,
            "byteLength" : 96,
            "byteOffset" : 80424
        },
        {
            "buffer" : 0,
            "byteLength" : 64,
            "byteOffset" : 80520
        },
        {
            "buffer" : 0,
            "byteLength" : 24,
            "byteOffset" : 80584
        },
        {
            "buffer" : 0,
            "byteLength" : 288,
            "byteOffset" : 80608
        },
        {
            "buffer" : 0,
            "byteLength" : 288,
            "byteOffset" : 80896
        },
        {
            "buffer" : 0,
            "byteLength" : 192,
            "byteOffset" : 81184
        },
        {
            "buffer" : 0,
            "byteLength" : 96,
            "byteOffset" : 81376
        },
        {
            "buffer" : 0,
            "byteLength" : 12576,
            "byteOffset" : 81472
        },
        {
            "buffer" : 0,
            "byteLength" : 12576,
            "byteOffset" : 94048
        },
        {
            "buffer" : 0,
            "byteLength" : 8384,
            "byteOffset" : 106624
        },
        {
            "buffer" : 0,
            "byteLength" : 3984,
            "byteOffset" : 115008
        }
    ],
    "buffers" : [
        {
            "byteLength" : 118992,
            "uri" : "data:application/octet-stream;base64,"
        }
    ]
}
